<svg viewBox="0 0 621.7 600" xmlns="http://www.w3.org/2000/svg"><ellipse cx="310.85" cy="300" fill="#d4f0f3" rx="189.11" ry="236.58" transform="matrix(.40657719 -.91361643 .91361643 .40657719 -89.61 462.04)"/><path d="m360.56 342.3 15.01 51.02h24.71l-21.63-54.82z" fill="#f1f4fc"/><path d="m297.37 385.67h140.28a2.06 2.06 0 0 1 2.06 2.06v3.52a8.22 8.22 0 0 1 -2.41 5.81l-27.12 27.11a8.21 8.21 0 0 1 -5.8 2.41h-151.32l38.5-38.5a8.22 8.22 0 0 1 5.81-2.41z" fill="#f1f4fc"/><path d="m404.38 427.61h-151.32a1 1 0 0 1 0-2.06h151.32a7.12 7.12 0 0 0 5.08-2.1l27.12-27.12a7.27 7.27 0 0 0 2.1-5.08v-3.52a1 1 0 0 0 -1-1h-52.16a1 1 0 1 1 0-2.05h52.13a3.08 3.08 0 0 1 3.08 3.08v3.52a9.29 9.29 0 0 1 -2.7 6.53l-27.12 27.09a9.16 9.16 0 0 1 -6.53 2.71z" fill="#333847"/><path d="m456.41 351.56h-178.63a22.59 22.59 0 0 1 -22.45-25.11l11.68-104a22.6 22.6 0 0 1 22.45-20.07h178.63a22.59 22.59 0 0 1 22.45 25.11l-11.68 104a22.6 22.6 0 0 1 -22.45 20.07z" fill="#f1f4fc"/><path d="m456.41 352.58h-178.63a23.6 23.6 0 0 1 -23.47-26.25l11.68-104a23.61 23.61 0 0 1 23.47-21h178.63a23.62 23.62 0 0 1 23.47 26.25l-11.68 104a23.59 23.59 0 0 1 -23.47 21zm-167-149.22a21.54 21.54 0 0 0 -21.41 19.16l-11.69 104a21.57 21.57 0 0 0 21.43 24h178.67a21.55 21.55 0 0 0 21.43-19.16l11.68-104a21.56 21.56 0 0 0 -21.43-24z" fill="#333847"/><path d="m277.78 343.34a14.37 14.37 0 0 1 -14.29-16l11.69-104a14.36 14.36 0 0 1 14.28-12.77h178.63a14.37 14.37 0 0 1 14.29 16l-11.68 104a14.37 14.37 0 0 1 -14.29 12.77z" fill="#fff"/><path d="m272.31 230.17c10.55 13.15 6.54 36 8.24 50.19s5.95 21.19 2.86 26c-2.29 3.55-9.86 0-11.56 4s-4.25 28.78-21.24 31.64-23.49 1.17-24.63 14.76 6.8 24.35 6.8 24.35l-59.19-27.26s11.44-18.29 8-26.68c-2.81-6.8 15-103.47 45.56-104.6s38.13-1.17 45.16 7.6z" fill="#e8f4ff"/><path d="m478.81 215.34a14.21 14.21 0 0 0 -10.72-4.79h-178.63a14.36 14.36 0 0 0 -14.28 12.77l-.05.42h207.28a14.18 14.18 0 0 0 -3.6-8.4z" fill="#7386b9"/><path d="m232.78 382.11a1 1 0 0 1 -.83-.42c-.33-.45-8.14-11.23-7-25 1-12.24 6.74-13 18.14-14.6 2.17-.3 4.64-.64 7.34-1.09 13.34-2.22 17.41-19 19.36-27.11a31.49 31.49 0 0 1 1.1-4c1.14-2.65 4.09-2.71 6.69-2.77 2.13 0 4.14-.08 5-1.35 1.67-2.59.81-6.26-.49-11.81a121.15 121.15 0 0 1 -2.53-13.49 127.82 127.82 0 0 1 -.53-13.79c-.07-12.52-.14-26.72-7.49-35.88a1 1 0 0 1 .16-1.44 1 1 0 0 1 1.44.16c7.8 9.72 7.87 24.29 7.94 37.15a127.93 127.93 0 0 0 .52 13.55 117.52 117.52 0 0 0 2.49 13.27c1.42 6.06 2.36 10.07.21 13.4-1.4 2.18-4.18 2.24-6.63 2.29-2.64.05-4.28.18-4.85 1.52a32.59 32.59 0 0 0 -1 3.62c-2.06 8.51-6.35 26.21-21 28.65-2.73.46-5.21.8-7.4 1.1-11.59 1.6-15.49 2.14-16.37 12.74-1.09 13.05 6.52 23.55 6.59 23.65a1 1 0 0 1 -.21 1.44 1.08 1.08 0 0 1 -.65.21z" fill="#333847"/><path d="m220.6 197.65c43.37 0 59.94 21 64.1 29.71s3.82 39.46-32 47.38-14.11 28.93-27.92 49.17c-7.58 11.1-28.19 10.95-40.84 7.08s-49.58-32.92-30.83-67.92 38.3-65.42 67.49-65.42z" fill="#d4bcfc"/><path d="m193.27 221.33c21.17 34.22-26.23 60.81-37.69 88.46s-15 36.49-25.69 46.2.28-6.26-7.13-33.92-15.12-71.28 10.42-93.59 52.33-19.68 60.09-7.15z" fill="#d4bcfc"/><path d="m146.39 332.52a.92.92 0 0 1 -.42-.1 1 1 0 0 1 -.51-1.35c2.37-5.27 5-11.65 8.37-19.74l.8-1.93c3.83-9.25 11.41-18.14 19.44-27.54 15.8-18.52 32.13-37.67 18.32-60-3.33-5.38-10.2-8.67-18.84-9a1 1 0 0 1 -1-1.07 1 1 0 0 1 1.07-1c9.34.38 16.81 4 20.51 10 14.6 23.6-2.23 43.32-18.51 62.4-7.92 9.28-15.39 18.05-19.11 27l-.8 1.93c-3.35 8.1-6 14.5-8.39 19.79a1 1 0 0 1 -.93.61z" fill="#333847"/><path d="m196.15 334.24h-.07a57.63 57.63 0 0 1 -12.45-2.24c-6.45-2-19.45-10.5-28.15-23.29a1 1 0 1 1 1.69-1.16c8.43 12.38 20.9 20.6 27.07 22.49a55.32 55.32 0 0 0 12 2.18 1 1 0 0 1 -.08 2.05z" fill="#333847"/><path d="m262.58 272.68a1 1 0 0 1 -.39-2c12.82-5.36 18.45-14.18 20.92-20.64 3.68-9.62 2.41-18.58.67-22.25-2.32-4.87-16.25-29.13-63.18-29.13-12.18 0-23.45 5.44-34.43 16.62a1 1 0 0 1 -1.46-1.44c11.38-11.6 23.13-17.23 35.89-17.23 48.16 0 62.62 25.23 65 30.29s2.9 14.72-.6 23.88c-2.61 6.83-8.55 16.15-22 21.8a1.1 1.1 0 0 1 -.42.1z" fill="#333847"/><path d="m122.15 494.11c-13-81.08 19-120.22 38.67-135.27 10.8-8.24 12.06-11.09 12.06-11.09a219.24 219.24 0 0 1 61.49 18.39c13.5 6.45 30.15 17.66 37.19 25.34 2.77 3 7.76 19.48 7.76 19.48s23.7 92.3 32.85 108.52-135.52-47.96-190.02-25.37z" fill="#a1d2f7"/><path d="m312.17 520.51a1 1 0 0 1 -.9-.53c-9.1-16.15-32-105-32.94-108.77-1.36-4.47-5.38-16.7-7.52-19-6.73-7.35-23.28-18.61-36.88-25.12a202.21 202.21 0 0 0 -25.05-9.89 1 1 0 1 1 .63-1.95 202.66 202.66 0 0 1 25.31 10c14 6.71 30.51 18 37.5 25.58 2.85 3.1 7.47 18.16 8 19.87.25 1 23.79 92.4 32.76 108.31a1 1 0 0 1 -.89 1.54z" fill="#333847"/><path d="m414.67 424.72c-7.69 5.21-50.66 27.13-73.19 27.52-22.84.4-49.41-21.34-61.22-41.79-7-12.2-9.89-19.19-19.9-19.59-23.79-.95-42.84 37.16-36.48 60.39 11.43 41.83 57.94 63.37 114 57.2 53.94-5.94 70.24-46.58 89.22-60 .14-6.45-1.97-15.73-12.43-23.73z" fill="#fff"/><path d="m319.27 510.52a145.9 145.9 0 0 1 -25.77-2.22 1 1 0 1 1 .36-2 154.18 154.18 0 0 0 43.93 1.15c38.46-4.23 57.28-25.94 72.39-43.38 5.87-6.78 10.94-12.63 16.35-16.45a1 1 0 1 1 1.19 1.67c-5.21 3.68-10.2 9.45-16 16.12-14.55 16.78-34.46 39.76-73.72 44.08a171.74 171.74 0 0 1 -18.73 1.03z" fill="#333847"/><path d="m271.5 271.85a33.24 33.24 0 0 1 .38 11.34.67.67 0 0 1 -.76.56.67.67 0 0 1 -.55-.51 33.16 33.16 0 0 1 -.32-11.37.64.64 0 0 1 1.25 0z" fill="#333847"/><path d="m464.92 393.32c7.86-7.06 21.25-7.92 28-4.41 8.43 4.41 3 17.22-2.21 23.8s-13.1 19-30.77 12.13-.61-26.49 4.98-31.52z" fill="#f1f4fc"/><path d="m469.58 427.86a27.74 27.74 0 0 1 -10-2.06 1 1 0 1 1 .75-1.91c15.76 6.11 23.43-3.83 28.5-10.41.37-.49.74-1 1.09-1.4 3.75-4.76 7.27-12.27 6.15-17.53a6.63 6.63 0 0 0 -3.61-4.73 1 1 0 0 1 -.44-1.38 1 1 0 0 1 1.39-.44 8.7 8.7 0 0 1 4.67 6.12c1.26 5.91-2.51 14.11-6.55 19.23l-1.08 1.38c-4.04 5.2-10.15 13.13-20.87 13.13z" fill="#333847"/><path d="m479.48 418.5c-4.4-1.6-15.62-13.22-14.42-15.62s3.21-7.61 8.41-7.61 8.82-3.21 1.21-6-19.23-.4-25.24 6-27.64 24.43-34.44 29.24l-.32.21c10.46 8 12.57 17.26 12.45 23.71.76-.53 1.52-1 2.29-1.49 20-11.61 40.86-19.83 51.68-18.53s2.79-8.31-1.62-9.91z" fill="#e8f4ff"/><path d="m427.12 449.46a1 1 0 0 1 -.59-1.86c.9-.64 1.65-1.13 2.36-1.55 17.23-10 40-20.14 52.32-18.66 2.46.3 4 0 4.23-.77.42-1.76-3.41-6.1-6.31-7.15-4-1.47-13.2-10.58-14.87-14.78a2.73 2.73 0 0 1 -.12-2.27c.11-.21.22-.43.33-.67 1.26-2.63 3.61-7.51 9-7.51 2.6 0 4.2-.82 4.5-1.4a1 1 0 1 1 1.82 1c-.8 1.51-3.28 2.49-6.32 2.49-4.1 0-5.93 3.82-7.15 6.34l-.34.71c-.28 1.9 9.62 12.66 13.85 14.2 3.08 1.11 8.43 6.13 7.61 9.55-.48 2-2.66 2.8-6.48 2.34-9.86-1.19-29.42 5.86-51 18.4-.65.38-1.36.84-2.2 1.44a1 1 0 0 1 -.64.15z" fill="#333847"/><path d="m397.26 386.7a1 1 0 0 1 -.95-.65l-13.46-34.12a1 1 0 0 1 1.91-.75l13.46 34.12a1 1 0 0 1 -.58 1.33 1 1 0 0 1 -.38.07z" fill="#333847"/><path d="m297.11 432.25a1 1 0 0 1 -.7-.27 114.84 114.84 0 0 1 -17-21c-7.48-12-10.84-16.18-10.87-16.22a1 1 0 1 1 1.59-1.3c.14.17 3.46 4.29 11 16.44a111.69 111.69 0 0 0 16.68 20.56 1 1 0 0 1 -.7 1.78z" fill="#333847"/><rect fill="#2095f3" height="10" rx="1.88" width="83.32" x="146" y="72.47"/><rect fill="#2095f3" height="10" rx="1.88" width="83.32" x="252.25" y="72.47"/><rect fill="#2095f3" height="10" rx="1.88" width="83.32" x="358.51" y="72.47"/><g fill="#95a8d1"><rect height="10" rx="1.88" width="83.32" x="146" y="99.9"/><rect height="10" rx="1.88" width="83.32" x="252.25" y="99.9"/><rect height="10" rx="1.88" width="83.32" x="358.51" y="99.9"/><rect height="10" rx="1.88" width="83.32" x="146" y="127.33"/><rect height="10" rx="1.88" width="83.32" x="252.25" y="127.33"/><rect height="10" rx="1.88" width="83.32" x="358.51" y="127.33"/><rect height="10" rx="1.88" width="83.32" x="146" y="154.76"/><rect height="10" rx="1.88" width="83.32" x="252.25" y="154.76"/><rect height="10" rx="1.88" width="83.32" x="358.51" y="154.76"/><circle cx="120.58" cy="104.9" r="5"/><circle cx="101.8" cy="104.9" r="5"/><circle cx="120.58" cy="132.33" r="5"/><circle cx="101.8" cy="132.33" r="5"/><circle cx="120.58" cy="159.76" r="5"/><circle cx="101.8" cy="159.76" r="5"/></g><path d="m456.53 249.77h-154.23a1.54 1.54 0 1 1 0-3.08h154.23a1.54 1.54 0 1 1 0 3.08z" fill="#f1f4fc"/><path d="m454.84 266.71h-154.44a1.54 1.54 0 1 1 0-3.08h154.44a1.54 1.54 0 1 1 0 3.08z" fill="#f1f4fc"/><path d="m452.91 284.39h-154.49a1.54 1.54 0 0 1 0-3.08h154.49a1.54 1.54 0 0 1 0 3.08z" fill="#f1f4fc"/><path d="m450.93 302.06h-154.5a1.54 1.54 0 1 1 0-3.08h154.5a1.54 1.54 0 1 1 0 3.08z" fill="#f1f4fc"/><path d="m448.94 319.74h-154.49a1.54 1.54 0 1 1 0-3.08h154.49a1.54 1.54 0 1 1 0 3.08z" fill="#f1f4fc"/></svg>