<svg enable-background="new 0 0 760 670" viewBox="0 0 760 670" xmlns="http://www.w3.org/2000/svg"><path fill="currentcolor" d="m27.2 138.7v91.6h126.5v-91.3h22.8v205.8h-22.7v-93.6h-126.3v93.6h-22.7v-206.1zm715.1 112.5v-20.2h-88.9v-72.2h91.6v-19.8h-114.3v205.9h116.9v-19.7h-94.3v-74.1h89zm-93-172.1-64.2-74.5h-6.4v86.7h6.8v-76l65.7 76.1h5.5v-86.9h-6.6v74.3zm-316.9 328.7 65 75.2h5.7v-86.7h-6.8v75.5l-65-75.5h-6.3v86.7h6.5v-74.8zm375.1-403.5c-15.9 3.6-27.5 12.8-32.8 28.4-5.4 16.1-3 31.4 8.5 44.4 11.9 13.5 27.4 17.5 44.8 14.9 7.9-1.2 15.6-3.1 22.4-6.8v-33.2h-24.8v5.6h17.9v23.4c-9.3 3.6-18.7 6.3-28.6 5.4-15.4-1.5-27-9.2-32.4-23.9-5.5-14.8-3.6-29.1 7.4-41 10.6-11.4 24.2-13.5 38.7-10.7 6.9 1.3 13.4 4.2 20.1 6.4v-6.6c-13.1-6.6-26.7-9.5-41.2-6.3zm-96.6 390.8c-39.3 5.9-48.8 45.9-32.2 69.9 16.5 23.8 49.6 23.6 69.6 10.7v-6.5c-3 1.3-5.4 2.5-8 3.5-8.9 3.9-18.6 5.4-28.2 4.5-18.4-1.9-31.3-15.3-33.1-34.7-1.7-18.4 9.1-34.8 26.5-39.6 12.2-3.4 23.9-1.7 35.3 3.3 2 .9 4.1 1.8 6.2 2.8.3-.5.5-1.1.6-1.6.1-1.6 0-3.2 0-5-10-5.8-24.5-9.1-36.7-7.3zm-446.5 1.2c-17 4.6-28.9 15.1-32.9 32.7-3.7 16.6-.1 31.6 12.8 43.3 13.1 11.9 28.9 14.4 45.7 10.5 6.1-1.4 11.9-4 17.8-6l-.5-1v-6.3c-3 1.3-5.5 2.5-8 3.5-8.9 3.8-18.6 5.4-28.2 4.4-16.2-1.7-29.2-13.5-32.2-29-3.5-18.5 3.8-35.1 19.1-42.6 14.1-6.9 28.1-5.2 42 .7 2 .9 4 1.8 6.6 3v-7.4c-13.6-6.3-27.6-9.8-42.2-5.8zm24.5-393.1c-27.2 1.7-49.7 25.4-41.7 56.9 4.5 17.6 19.6 30.1 38.3 32.2 13.4 1.5 25.8-1.4 37.3-7.7v-7c-1.9.8-3.3 1.5-4.8 2.2-10.6 4.7-21.5 7.5-33.2 5.7-16.7-2.6-28.8-15.2-31.1-32.5-2.3-17.5 6.6-33.8 22.2-40.1 12.4-5.1 24.9-3.9 37.1.9 2.9 1.1 5.6 2.4 8.7 3.7.2-.7.3-1.4.4-2.1 0-1.6 0-3.2 0-5-10.6-5-21.5-7.9-33.2-7.2zm141.5 46.9h39.6c-.2-2.1-.3-3.6-.5-5.6h-39.2v-34.5h40.1v-5.4h-47.2v86.6h48.4v-5.2h-41.2zm131.6 390.1v-5.7h-33.8v-32.8h37.5v-5.6h-44.4v86.7h6.7v-42.6zm46.1-430.4h32.4c-.1-2.1-.2-3.7-.3-5.3h-71.7v5.8h32.5v81.1h7.1zm153 386.4.4 5.8h32.7v80.9h6.8v-81.2h32.3v-5.5zm-179.3 86.6h49.7c-.1-1.9-.2-3.4-.3-5.6h-43.2v-81.2h-6.2zm-396.1-34.4-44.6-51.8h-4.2v59.5l4.5-.3v-51.7c2.4 2.7 4 4.6 5.6 6.4 12.4 14.3 24.7 28.6 37.1 42.9 1.6 1.9 3.2 3.9 6.2 2.1v-58.4c-.5-.3-1-.5-1.5-.6-.8-.1-1.6 0-3.1 0zm461.1 34.6h6.4v-87h-6.4zm13.6-478.4h-6.4v86.8h6.4zm160.4 567.7c1.3 1.4 2 2.1 2.6 2.8 7.7 8.9 15.4 17.7 23.1 26.6 1.5 1.7 2.9 3.7 5.8 2v-38.8h-4.3v31.9c-9.1-10.5-17.3-19.9-25.5-29.4-1.5-1.7-2.8-3.8-5.7-2.2v39h4zm-411.3 61.7c9 10.4 17.2 19.9 25.4 29.4 1.5 1.7 2.9 3.7 6 2.3v-39.1l-4.3.4v31.3c-1.7-1.9-2.8-3-3.9-4.2-7.2-8.2-14.3-16.6-21.5-24.7-1.3-1.5-3.3-2.3-5.8-3.9v40.4h4.2zm180.1-60.9c.5.6 1.1 1.1 1.6 1.7 7.8 9 15.6 18 23.4 27 1.5 1.8 3 3.6 5.7 2v-39.1c-1.5.1-2.5.2-4.2.3v31.9c-1.7-1.9-2.5-2.8-3.3-3.7-7.5-8.6-15-17.2-22.4-25.9-1.5-1.8-2.9-3.6-5.6-2.1v39.1l3.9-.3v-30.5c.2-.2.5-.3.9-.4zm184.5 84.9c-.6-.7-1.2-1.4-1.8-2.2-7.7-8.9-15.4-17.8-23.1-26.6-1.5-1.8-3-3.6-5.8-2v38.8l4.3-.2v-31.8c1.3 1.5 2 2.2 2.6 3 7.7 8.9 15.4 17.8 23.1 26.6 1.5 1.8 3 3.5 5.8 1.9v-38.9l-4.1.2v30.6zm-273.5-90.9c-1.5-1.9-3.1-3.3-6-2v38.9h4.1v-31.1l.9-.3c4.2 5.2 8.5 10.4 12.9 15.9l12.9-15.9c.4.1.7.2 1.1.4v31.1l4-.2v-39.3c-1.3 0-2.7-.4-3.1.1-5 5.5-9.9 11.1-15 16.8-4-4.8-8-9.5-11.8-14.4zm-86.8-2.5-4.2.3v39h4.5v-17.4h23.9v17.6l4.2-.2v-39.1h-4.6v17.2h-23.9v-17.4zm-97.7 90.8v-7.8h-12.5c.2 1.4.3 2.4.5 3.5l7.1.5v9.6c-3.9.5-7.6 1.3-11.2 1.2-8.7-.3-15-7.3-15-16.1 0-8.7 6.5-16.1 15.1-16 4.6.1 9.1 1.9 13.7 2.9.4.1.8.1 1.4.2v-3.8c-6.1-3.1-10.3-4.1-16.1-3.6-10.2.7-18.3 8.9-18.8 19.2-.6 9.7 5.8 18.4 15.3 20.6 7 1.7 14.4.7 20.8-2.8zm490.1-29.2c-9.1.8-16.5 7.5-18.2 16.5-1.6 9.6 2.9 18.5 11.5 22 8.2 3.4 16.1 2.3 23.7-1.3v-15.6h-12.2c.3 1.5.6 2.5.8 3.5l7.2.5v9.3c-3.7.5-7.4 1.5-11 1.5-9-.1-15.5-7.2-15.5-16.1 0-9 6.7-16.2 15.6-16 4.8.1 9.5 1.6 14.4 2.5 0-.6.1-1.8.2-3.2-5-3-10.8-4.2-16.5-3.6zm-325.5-56.3c0 6.2.1 12.4-.1 18.6-.3 7.8-5 12.3-12.3 12.3-7.4-.1-11.9-4.6-12.1-12.4-.1-4.1 0-8.1-.1-12.2 0-3.7 0-7.4 0-11.5l-4.6.3v22.2c0 1.6.1 3.3.4 4.9 1.4 7.6 7.4 12.4 15.7 12.7s15.9-4.1 16.6-11.3c1-9.4.2-19 .2-28.8l-3.8.2c.1 1.8.1 3.4.1 5zm82.3 96.2 4.3-.4v-17.3h24v17.5h4.1v-39h-4.4v16.9h-23.9v-16.9l-4.2-.3zm274.5-3.9v-14h17l-.8-4.3h-16.1v-13.5h17.2c-.1-1.5-.2-2.5-.2-3.6h-21.5v39.1h21.6c.2-.5.3-1.1.4-1.6 0-.7-.1-1.5-.2-2.2zm-104-14c-.2-1.7-.3-2.7-.5-4.2h-16.3v-13.6h17.5c-.4-1.7-.7-2.7-.9-3.5h-21.2v39h21.9c.1-1.2.1-2.2.2-3.7h-17.5v-14.1zm-195.2 14c-8.1.2-14.2-5.7-15.2-13.7-1.1-7.8 3.6-15.1 11.1-17.4 6.2-2 11.9-.2 17.5 2.3.4.1.9.1 1.3.1v-3.9c-11.6-6-23.6-4.3-30.4 4.1-6 7.5-6 18.3.2 25.7 7 8.2 19.6 9.6 30.7 3.4v-3.3c-5.1 1-10.1 2.6-15.2 2.7zm118-93.4v35.2h4.7v-35.6h13.9c-.2-1.5-.4-2.6-.5-3.5h-32v3.9zm-536.6-112.9h4.3v-59.6l-4.2.5v59.1zm529.7 210h22.6v-3.8h-18.3v-35.4h-4.3zm35.7-3.8v-35.5l-4.2.3v39h22.4c.1-1.2.1-2.1.3-3.8zm-56.1-57.8 4-.4v-39h-4zm130.5-.1 4-.3v-39h-4zm80.7-178.3v11.9h7.8v-11.9zm0 57h7.6v-12.3h-7.6zm-378.7-140.8c-35.8 11.4-70.5 7.7-101.9-14-29.2-20.2-43.9-48.9-44.5-84.4-.9-55 37.4-99 92.2-106.4 6-.8 12-1.1 15.8-1.4 37.1.5 67.2 12.2 89.5 39.8 43 53.1 26.9 141.6-51.1 166.4zm48-118.2c-8.9-39.9-42.2-66.1-83.9-66.5-5.2.5-10.4.7-15.5 1.5-31.9 5.4-54.5 23.1-65.2 53.7-11.1 31.5-6.5 61.2 16.4 86.2 22.2 24.3 50.5 31.5 82.5 25.5 45.3-8.6 75-52.2 66.5-97.5-.4-1-.6-1.9-.8-2.9zm188.8-8.8c-6.4 18.7-20.1 29.4-38.7 33.8-8.6 2-17.7 2.7-26.6 3.1-11.7.5-23.5.1-36 .1v92.8h-22.6v-205.9c1.4-.1 2.8-.3 4.2-.3 18.4 0 36.9-.1 55.3 0 11.5.1 22.8 1.3 33.6 5.6 20.6 8.1 31.6 23.3 33.6 45.2.8 8.6-.1 17.3-2.8 25.6zm-21.8-25.2c-.8-12.5-7.1-21.4-18.7-26.4-7.4-3.1-15.4-4.6-23.4-4.5-11.1-.1-22.2-.1-33.3 0-1.3 0-2.5.2-3.8.3v72.6c5.2 0 10 .1 14.9 0 11.9-.4 23.9-.1 35.6-1.6 15.9-2 25.8-11.5 28.3-25.7.7-4.9.9-9.8.4-14.7zm-264.4 251.7c-.7 20.9-16.4 38.3-38.3 42.1-23.7 4.2-46.9-10.1-52.8-32.4-7.8-29.6 13.7-56.6 45.1-56.5 27.2 0 46.9 20.1 46 46.8zm-7.8-2c.1-21.4-16.4-38.1-38-38.3s-38.9 16.5-39 37.9c-.4 20.9 16.2 38.1 37 38.6h1.2c21.9 0 38.7-16.6 38.8-38.2zm4.8-348.3h-8.3c-4.9-7.7-9.9-15.5-14.9-23.3-.7-1.1-1.3-2.2-2.1-3.3-10.5-14.8-11.7-16-34.1-14.5v41h-6.7v-87.4c11.2.5 22.2.1 32.9 1.6 13.6 1.9 21.1 14.6 17.5 27.6-2.1 7.6-7.8 11.7-14.8 14.7 11.8 13.3 20 28.8 30.5 43.6zm-22.6-64.7c-.1-7.5-4.6-14-12-15.2-7.9-1.3-16-1.3-24.4-1.9v35c8.5-.7 16.7-.8 24.6-2.2 7.6-1.3 12-8 11.8-15.7zm188.2 64.7h-7.2c-4.5-9.7-9.1-19.7-13.7-29.7h-42.5c-4.6 10-9.1 19.8-13.7 29.8h-7.2l40-87.7h4.1zm-23.8-36.2c-6.1-13.4-12-26.3-18.3-40.2l-18.4 40.2zm-65.8 592.3c-.3 8.4-4.3 15-12.3 16.8-7.3 1.7-15 1.9-23.3 2.8v-40.5c8.3.4 16.5-1 24.3 2.2 7.9 3.3 11.5 9.3 11.3 18.7zm-4.7-1.1c-.1-8-4.2-13.5-12-14.9-4.6-.8-9.3-.8-14.3-1.1v32c3.5 0 6.6.1 9.7 0 1.5-.1 2.9-.3 4.3-.6 8-1.8 12.4-7.3 12.3-15.4zm-126.1 19.7c-2.1.1-3.5.2-4.6.2-6.7-6.3-7.9-18.3-20.8-18.2v17.8l-4.6.3v-39.7c5.2.3 10.3.2 15.4 1 4.2.7 6.7 3.8 7.5 8.1.8 3.8-.8 7.7-3.9 9.9-.6.5-1.3.9-1.9 1.3 4.2 6.4 8.3 12.6 12.9 19.3zm-13-25.4c1-2.1 1-4.6-.1-6.8-2.8-4.3-7.5-3.5-12.2-3.2v13.4c4.7-.2 9.6 1.3 12.3-3.4zm410.4-36.6-5 .3c-3.2-4.6-6.1-8.9-9.1-13.1-2.7-3.8-6.3-5.5-11.8-4.6v17.4l-4 .3v-39.3c4.5 0 9-.3 13.5.1 4.6.4 8 2.9 8.9 7.7 1 4.7-.4 8.7-4.7 11.3-.3.2-.6.5-.9.7 4.3 6.3 8.4 12.4 13.1 19.2zm-12.9-25.3c1-2.1.9-4.6-.1-6.7-3-4.4-7.8-3.5-12.5-3.1v13.3c4.7-.3 9.8 1.3 12.6-3.5zm-24.4 25.3h-4.7l-5.6-12.1h-18c-1.8 4-3.7 7.9-5.6 12.1l-4.7.2c6-13.6 11.7-26.6 17.8-40.3 1.4.8 3 1.2 3.4 2.1 5.9 12.4 11.5 24.9 17.4 38zm-12.3-16.7c-2.4-5.3-4.6-10.1-7.1-15.7l-6.9 15.7zm-325.1 16.8h-4.6l-5.7-12.1h-18.1c-1.8 4-3.7 8-5.6 12.1h-3.8c-.1-.4-.4-.8-.3-1 5.6-12.7 11.1-25.3 16.9-37.9.3-.6 1.7-.6 3-1 6.2 13.5 12.1 26.5 18.2 39.9zm-12.4-16.7c-2.4-5.3-4.5-10.1-7.1-15.9l-6.9 15.9zm211.6 16.6h-4.6l-5.6-12h-18.1l-5.5 12-4.7.3c6-13.6 11.7-26.6 17.9-40.5 1.4.9 2.9 1.3 3.3 2.1 5.7 12.5 11.4 25.1 17.3 38.1zm-12.3-16.7c-2.4-5.3-4.6-10.1-7.1-15.7l-6.9 15.7zm-165.9 78.5-4.5.3c-2-4.3-3.8-8.2-5.8-12.3h-18l-5.7 12.1h-4.6c5.9-13.5 11.7-26.5 18-40.7 1.5 1.3 2.8 1.8 3.2 2.8 5.9 12.4 11.5 24.8 17.4 37.8zm-12.2-16.4-7.3-15.8c-2.5 5.7-4.6 10.6-6.8 15.8zm423.5-45.4h-4.6l-5.7-12h-18c-1.7 3.8-3.5 7.7-5.5 12h-4.6c5.9-13.3 11.6-26.3 17.6-39.9 1.3.6 3 .9 3.4 1.8 5.9 12.5 11.5 25.1 17.4 38.1zm-12.3-16.6c-2.4-5.3-4.6-10.1-7.1-15.7-2.5 5.8-4.6 10.7-6.8 15.7zm-155.9 78.5h-4.6c-1.9-4.1-3.8-8.1-5.7-12.1h-18c-1.8 4-3.6 7.9-5.6 12.1h-4.6c6-13.5 11.7-26.5 18.1-40.8 1.6 1.5 2.8 2.2 3.2 3.1 5.7 12.4 11.3 24.8 17.2 37.7zm-12.3-16.5c-2.3-5.2-4.5-10-7.1-16-2.5 5.9-4.6 10.8-6.8 16z"/></svg>