<svg xmlns="http://www.w3.org/2000/svg" viewBox="0 0 1800 650"><path fill="currentcolor" d="M737.8228,270.0572H660.4986c2.3535,88.8789,41.1307,160.1193,103.9181,220.185l-.45.9185H716.3614a345.2426,345.2426,0,0,1-40.2406-55.48c-20.4423-34.889-35.56-71.9237-42.5171-111.8553-14.8767-85.3811,4.7733-161.4878,64.0645-225.5893C732.7217,60.339,776.545,37.2021,827.952,30.3519,891.6844,21.8594,948.4752,39.176,997.5349,80.38c46.29,38.8783,73.6242,89.0364,84.5686,148.3043.6344,3.4351,1.231,6.8793,1.74,10.3348.5054,3.4334.8771,6.8865,1.3346,10.5474h76.3708c0-6.75.54-13.5255-.0833-20.1919-6.2855-67.2181-33.614-125.0429-78.63-174.8641-7.7921-8.6239-15.8137-17.04-24.0937-25.9446h48.4927c4.8407,5.9751,10.4646,12.5253,15.6629,19.3975,32.0924,42.4259,54.9119,89.31,65.3866,141.5789,16.4685,82.1757.0314,156.9312-54.0289,221.8436-33.97,40.7888-77.4895,66.9565-129.9747,76.245-63.852,11.3-121.8428-3.66-172.7027-43.7079-50.1652-39.5009-79.4646-91.8066-90.7711-154.4081C739.6564,283.1492,738.8366,276.7236,737.8228,270.0572Zm103.8737,67.747h245.7829c12.9518-22.6328,19.9322-46.6128,18.7757-73.4089h-106.37a133.01,133.01,0,0,0-18.5165-83.0043H735.8c-13.0492,22.7559-20.2833,46.8211-18.7986,73.7288H823.1583C820.7627,284.7987,826.5011,312.2072,841.6965,337.8042ZM802.9278,119.9621c-22.9961,10.5424-41.5189,26.156-57.2529,46.5948h106.39V131.0138A149.2918,149.2918,0,0,1,802.9278,119.9621ZM971.0109,388.4474a149.4656,149.4656,0,0,1,49.2934,11.0272c22.86-10.6663,41.4073-26.01,56.8151-46.2549H971.0109ZM867.1059,166.4888H971.5078c-15.7276-20.5088-34.3193-36.0581-57.18-46.5578-15.1262,6.5858-31.0195,9.6549-47.2216,11.0788Zm88.8707,186.6679H852.4313c9.2356,16.0763,39.9408,40.89,56.9491,46.0511a148.2476,148.2476,0,0,1,46.5962-10.69ZM757.2188,90.3055c-29.6529,19.2681-52.8935,44.5437-70.0871,76.3793h42.6571c14.9582-22.2932,33.7866-40.5587,56.8727-53.8554ZM1065.88,429.1178c29.6838-19.1658,52.7892-44.4709,69.9992-76.0835h-42.7705a171.639,171.639,0,0,1-56.5962,53.62Zm-12.0559,7.06c-23.8676-21.9673-51.0868-33.3317-82.6624-35.3039V458.35C1000.4593,457.5641,1027.519,450.0678,1053.8242,436.1774ZM769.7366,83.7015c23.2942,21.418,50.5025,32.9866,82.329,34.7955V61.3727C830.831,59.79,784.6383,72.3012,769.7366,83.7015Zm257.92,82.8822c-17.2867-31.4522-39.9785-56.4879-68.703-75.2635l-28.45,21.4821c23.3794,13.3855,42.0721,31.7815,56.9478,53.7814ZM795.5642,353.0366c17.0361,31.1164,39.6644,56.1722,68.6008,75.09l28.3979-21.5192c-23.3082-13.3351-41.9909-31.7122-56.792-53.57ZM704.0819,254.722c-1.3515-26.1762,5.4575-50.2015,16.9846-73.3363H679.8477a216.8492,216.8492,0,0,0-18.2054,73.3363ZM867.2227,118.3673c30.56-2.1695,56.7888-13.44,79.348-33.762C933.0185,73.5822,884.7945,59.65,867.2227,61.65ZM955.7919,458.24V400.9609c-30.4983,2.4717-56.8276,13.4641-79.66,34.3346C901.3538,449.0689,927.4672,456.7427,955.7919,458.24Zm163.3261-193.38c1.089,25.8528-5.3239,49.8472-17.0048,72.9527h40.911c9.0365-16.4681,19.2533-58.1149,17.8269-72.9527Zm-66.6367-15.2588c-1.2083-20.7147-9.9158-53.631-17.9413-68.1979H996.0986c11.2116,21.6572,17.1794,44.2229,17.5132,68.1979ZM826.8892,337.868c-10.9923-21.7354-17.2226-43.9344-17.23-67.7186H770.487a214.24,214.24,0,0,0,17.7385,67.7186Zm904.5236,209.6407,1.1211.5117v50.5458h9.5127V530.645h-9.0539c-7.3654,9.1-14.7413,18.2125-22.2721,27.5166-7.77-9.5706-15.1043-18.6049-22.2067-27.3534h-9.378v67.554h9.8437V547.7176l.8176-.32,20.8856,25.876C1718.0858,564.0728,1724.7492,555.7907,1731.4128,547.5087Zm-553.4313-.7106c7.81,8.9543,14.0454,17.8428,21.73,26.2781,7.2956-9.096,13.89-17.3173,20.4841-25.5387l1.0318.3227v50.67h9.6275V530.7521h-9.1188l-22.1627,27.4168c-7.6438-9.4168-14.9788-18.4531-22.2275-27.3833h-9.2389v68.04c1.7457,0,3.2108.0308,4.6739-.0087s2.9264-.149,5.2-.2716Zm492.3546,18.0424c-.1811,20.41-15.9949,34.9283-37.7536,34.66-21.1109-.2608-35.8252-14.9342-35.6163-35.5173.2043-20.1073,15.6695-34.5993,36.8134-34.4966C1655.055,529.59,1670.5163,544.5424,1670.3361,564.8405ZM1633.2905,590.16c15.354.0861,26.6325-10.6932,26.6749-25.4938.0416-14.5636-11.15-25.6037-26.0237-25.6719-15.2848-.07-26.4942,10.6219-26.7973,25.56C1606.8548,578.8311,1618.3367,590.0759,1633.2905,590.16ZM594.1326,564.6359c-.0186,20.4518-15.6652,35.0147-37.4583,34.8638-20.8886-.1447-35.8646-14.7081-35.82-34.8335.0453-20.5951,15.2731-35.2267,36.614-35.18C578.83,529.5321,594.1511,544.22,594.1326,564.6359Zm-36.63,25.5239c15.1516-.0133,26.529-11.1128,26.4623-25.816-.0652-14.3585-11.5917-25.4042-26.4535-25.35-15.2744.0556-26.4441,11.0251-26.3766,25.9037C531.2,579.4534,542.3892,590.173,557.5021,590.16Zm116.3726-36.1545v6.4187c-1.2437.1332-2.4932.3151-3.749.3872-1.1526.0663-2.3121.0142-3.9487.0142a24.8476,24.8476,0,0,0,1.06,2.3785c4.9256,8.2769,1.403,17.8513-7.7756,20.8207-2.5185.8146-5.2033,1.1066-7.7418,1.8708a36.146,36.146,0,0,0-4.6718,2.1281l-.26,1.5349c1.85,1.0354,3.5926,2.4089,5.572,3.0325,3.6353,1.1454,7.445,1.724,11.1185,2.7635,6.7613,1.9132,10.2746,5.9426,10.4743,11.7113.1949,5.63-3.1731,10.44-9.5114,12.5953-8.2978,2.8216-16.7273,2.8787-24.8133-.7706-6.6521-3.0023-9.4131-9.4472-7.1969-15.6221,1.144-3.1874,3.094-4.8179,9.2461-7.7311-4.571-6.0924-4.1714-8.0632,2.7052-12.0907-1.1978-.9554-2.3275-1.8125-3.4092-2.7264a14.7824,14.7824,0,0,1,2.4845-24.3933,17.1768,17.1768,0,0,1,7.0591-2.2175C658.1272,553.8289,665.7547,554.0053,673.8747,554.0053Zm-20.7986,60.62c2.7145-.7184,6.07-1.1177,8.96-2.4938,3.7184-1.77,3.8716-5.3565.8363-8.0139-3.8852-3.4016-14.6392-4.6482-18.8662-1.6852-1.6395,1.1492-3.3036,3.711-3.1841,5.5115.1177,1.7727,2.1611,4.0234,3.938,4.9274C647.009,614.0149,649.8424,614.01,653.0761,614.6248Zm8.0473-45.1008c-.0768-4.6007-3.5065-7.7014-8.5075-7.6913-4.9719.01-8.8278,3.7109-8.61,8.2635.2066,4.3118,4.2067,7.71,8.8963,7.5579C657.7145,577.4978,661.1989,574.0519,661.1234,569.524Zm607.59,20.524a68.8746,68.8746,0,0,0,6.8464,2.8669c3.8138,1.1395,7.7639,1.8277,11.5673,2.9964,5.0286,1.5452,8.2748,4.8544,8.8021,10.3009.5435,5.6148-1.8909,9.8563-6.8286,12.2259a31.7724,31.7724,0,0,1-27.9458.1537,11.6326,11.6326,0,0,1-7.2161-11.5358c.1071-5.4163,3.0988-8.5288,7.7655-10.4878.7341-.3082,1.4488-.6624,2.3111-1.0591q-1.6025-1.9815-2.79-3.45c-1.5616-4.949,1.9245-6.6688,5.3678-8.6655-4.2628-2.9321-7.8251-6.1144-8.5548-11.355-1.2535-9.0029,3.4915-16.3556,12.9137-17.5251,8.1309-1.0092,16.4862-.21,24.957-.21v6.2425l-6.5549.4423c.7386,4.0477,2.4423,8.1024,1.9625,11.88-.9315,7.3326-6.3322,10.7622-13.32,12.2119C1274.9577,585.7109,1271.1147,584.9535,1268.7132,590.048Zm6.1411,24.6075c2.8818-.7161,6.25-1.0606,9.16-2.4,3.6976-1.7013,3.994-5.552,1.12-8.0966-4.02-3.5595-14.9789-4.6571-19.317-1.5167-1.5168,1.0979-3.0284,3.4407-2.956,5.1476a6.8714,6.8714,0,0,0,3.3927,4.834C1268.6657,613.8344,1271.6218,613.9594,1274.8543,614.6555Zm.0337-52.8232c-4.9853-.0249-8.8372,3.5548-8.7352,8.1183.0958,4.2893,4.0522,7.786,8.7193,7.7059a8.3158,8.3158,0,0,0,8.4651-7.9946C1283.3555,565.2338,1279.7109,561.8564,1274.888,561.8323ZM361.8721,553.54c13.4392-.5456,24.045,9.0214,24.59,22.1817.5485,13.239-8.935,23.089-22.8776,23.7615-13.9183.6713-24.56-8.6716-25.11-22.0451C337.9281,564.16,347.765,554.1125,361.8721,553.54Zm15.2548,23.1637c.08-8.496-6.1235-14.748-14.7408-14.8558-8.3827-.1048-14.4735,5.8791-14.5809,14.3251-.111,8.7272,5.8792,14.7976,14.6211,14.8167C370.9125,591.0082,377.0483,585.0455,377.1269,576.7036Zm1044.8387.0086c-.0031-13.4815,10.071-23.2063,24.0213-23.1881,13.7453.0178,24.0282,10.0762,23.9636,23.4406-.0627,12.9737-10.2684,22.4667-24.223,22.5318C1431.9033,599.5609,1421.9688,590.0352,1421.9656,576.7122Zm23.6884-14.8554c-8.3241-.05-14.4786,6.01-14.6583,14.4322-.1783,8.3608,6.263,14.7078,14.92,14.7009,8.3853-.0066,14.6329-6.094,14.7706-14.3916C1460.8222,568.3792,1454.2237,561.908,1445.654,561.8568Zm-346.6885,15.2869c-.063,13.11-10.1428,22.4194-24.2041,22.3543-13.6905-.0633-23.8373-9.8624-23.7854-22.9708.052-13.1883,10.6126-23.1408,24.4192-23.0134C1089.2731,553.6418,1099.0314,563.4247,1098.9655,577.1437Zm-24.225-15.2935a14.2964,14.2964,0,0,0-14.5888,14.5634c-.0642,8.3423,6.4782,14.6539,15.1083,14.5752,8.4514-.0771,14.5435-6.1586,14.5357-14.51C1089.7879,568.0726,1083.3831,561.8493,1074.7405,561.85ZM906.9658,576.3533c.0435-13.1434,10.0809-22.7367,23.8863-22.8293,13.74-.0922,24.0918,9.9108,24.1037,23.2908.0117,13.1591-10.4338,22.8-24.5749,22.6819C916.5833,599.3815,906.9211,589.8315,906.9658,576.3533ZM930.7063,590.99c8.3837.0883,14.7469-5.9172,15.0113-14.1676.2621-8.1818-6.3012-14.8036-14.8236-14.9558a14.25,14.25,0,0,0-14.8981,14.6965C916.0077,584.7587,922.2707,590.901,930.7063,590.99Zm-768.5573,3.481c-7.4165,5.04-15.4146,5.8722-23.64,4.255-9.4515-1.8583-15.6865-11.1965-15.7107-22.7181-.0249-11.8543,5.8793-20.457,15.588-22.7126,14.516-3.3723,25.7751,7.25,24.397,23.6178H132.1079c.7006,13.9362,10.87,16.9868,30.0411,9.3327Zm-8.5163-23.3193c-.2176-6.2375-3.3011-9.7742-8.7135-10.2649-6.7289-.61-10.9661,2.7849-12.4631,10.2649Zm807.8246,27.3543H970.43v-32.33c2.0006-1.5833,3.6335-3.3161,5.6254-4.3713,6.5578-3.474,12.568-.4627,13.67,6.788a47.7177,47.7177,0,0,1,.232,6.98c.0242,7.6059.0091,15.2121.0091,22.9006h8.8578c0-10.8186.5905-21.3277-.1546-31.7413-.8652-12.0917-13.3429-17.7481-23.7441-11.3637-1.2531.7692-2.44,1.6461-3.8452,2.6005-.4411-1.491-.802-2.7109-1.1678-3.9471h-8.4544Zm551.9377-33.0075c-.8381-9.5859-10.0846-14.841-19.1659-12.0032-2.4751.7735-4.6515,2.495-6.98,3.7533a6.2437,6.2437,0,0,1-1.236.3729c-.4591-1.335-.8659-2.5175-1.2-3.488H1476.55V598.601h8.8779v-31.74c3.9972-5.3576,8.5041-7.6222,14.066-5.7435,5.554,1.876,5.3466,7.0593,5.4419,11.7222.1225,5.9936.03,11.9915.03,17.9876v7.9787c2.7809,0,4.7653.0248,6.7485-.0144a13.48,13.48,0,0,0,1.9-.3026C1513.6137,587.3447,1514.3433,576.3482,1513.395,565.4984ZM816.846,589.8555c.96-8.4106,6.2893-12.7125,13.9122-14.9827,3.1555-.94,6.22-2.1854,9.1582-3.2324,1.045-7.9733-2.6623-11.5925-9.9575-9.9312a21.9189,21.9189,0,0,0-5.94,2.4539,55.65,55.65,0,0,0-5.54,4.1982v-9.3772c3.6507-6.6684,18.405-8.2189,25.2671-3.3453,3.1541,2.24,5.2408,5.1894,5.36,9.1232.222,7.3192.2364,14.6447.3837,21.9666.0388,1.9343.247,3.8651.4111,6.2965l5.8475-1.8419v4.7974c-6.6549,4.74-10.8072,4.72-15.4079.0936-3.0089,1.0288-5.8989,2.4114-8.9408,2.9777-7.0123,1.3057-10.9142-1.0928-13.6278-7.7584a9.1678,9.1678,0,0,0-1.0791-1.5972Zm23.3486-13.4713c-4.2764,2.1262-7.7715,3.5882-10.97,5.5376-2.751,1.6768-3.2872,4.5426-2.0842,7.4338a5.41,5.41,0,0,0,6.3875,3.5471,44.9493,44.9493,0,0,0,6.6662-2.4709Zm492.7068-17.3716c5.0211-5.2076,11.2472-6.7594,18.2353-6.0294,7.79.8137,12.5876,5.3476,13.0533,13.1043.4083,6.7983.1935,13.6331.2977,20.4511.03,1.9574.2126,3.9124.3628,6.5218l5.8661-1.9286c.0954,1.65.185,3.1988.2647,4.5785-6.53,5.0154-10.7723,5.0442-15.6917.5664-3.5144,1.0376-6.7624,2.3828-10.1379,2.9057-5.494.8512-10.0047-1.74-11.8733-6.1967a11.3152,11.3152,0,0,1,3.2807-13.0961,32.864,32.864,0,0,1,7.7062-4.4155c3.338-1.4649,6.8614-2.5072,10.3-3.7458.1343-.0485.2169-.24.3236-.3652,1.192-7.6987-2.8048-11.6721-10.2514-9.4958-3.8453,1.1238-7.2882,3.6249-11.6457,5.8835v-8.8677Zm22.2841,17.36c-4.2986,2.1455-7.8009,3.604-10.9878,5.5728-2.7164,1.6783-3.302,4.537-2.0776,7.4405a5.4336,5.4336,0,0,0,6.4121,3.5152,43.7769,43.7769,0,0,0,6.6533-2.4942Zm-1149.091,22.14h8.7547V566.4357c1.8392-1.5251,3.5277-3.4409,5.6361-4.5787,6.8473-3.6948,12.8014-.56,13.6654,7.1246a89.634,89.634,0,0,1,.2939,9.4645c.0389,6.62.0117,13.2394.0117,20.0915h9.7359c-.4485-11.7126-.7127-23.1283-1.47-34.5111-.1483-2.23-1.8476-4.6543-3.4476-6.4358-5.5424-6.1709-14.0975-6.4023-21.616-.91-.7188.5252-1.5167.9422-2.4022,1.4858-.254-1.6263-.4487-2.8723-.6469-4.1413h-8.515Zm-120.9818-.0093c0-11.0832.5747-21.8809-.1679-32.5872-.689-9.9348-10.2469-15.4789-19.69-12.1794-2.743.9583-5.1988,2.7389-8.0156,4.2669-.2082-1.3471-.4143-2.6811-.5807-3.7582H48.1329V598.477h8.7683V566.7423a43.027,43.027,0,0,1,3.5524-3.6662,10.7822,10.7822,0,0,1,10.7943-1.9432c3.9146,1.3419,4.8434,4.8266,5.0259,8.4294.2271,4.4817.1566,8.9794.1771,13.47.0234,5.1186.0054,10.2374.0054,15.4705Zm164.9732-31.0384v-8.3366c4.4868-7.2708,18.4787-7.6924,24.2969-4.1314a12.8377,12.8377,0,0,1,6.5753,11.555c.0192,6.9883-.0346,13.9771.0371,20.9648a52.11,52.11,0,0,0,.6648,5.5346l5.905-2.0023c0,1.7051,0,3.15-.0022,4.5954-6.0291,5.0495-10.98,5.19-15.56.525-3.3194,1.0232-6.5245,2.4095-9.8666,2.9534-5.8741.9562-10.276-1.5266-12.2125-6.2635a11.28,11.28,0,0,1,4.0105-13.7314,39.2017,39.2017,0,0,1,7.9518-4.0394c3.2-1.319,6.5332-2.3136,9.71-3.4148,1.0219-8.22-3.06-12.0492-10.7335-9.7088C257.1882,563.0854,253.9,565.47,250.0859,567.4648Zm21.8077,9.0126c-4.0267,1.943-7.679,3.3961-10.9957,5.4036-2.654,1.6064-3.46,4.3354-2.2413,7.3672a5.5983,5.5983,0,0,0,6.7886,3.6194c2.2994-.4711,4.4233-1.7988,6.4484-2.67Zm202.9472,19.3468c-7.3318,4.8767-10.9681,4.8391-15.8261.4628-3.4844,1.0188-6.7228,2.3451-10.0858,2.8634-5.5632.8572-9.9617-1.6456-11.8891-6.1441a11.0065,11.0065,0,0,1,3.5446-13.4333c3.1791-2.2754,7.005-3.6876,10.631-5.2835,2.41-1.0606,4.9753-1.7664,7.33-2.5822,2.5215-7.8928-4.1943-12.21-10.5788-9.7947-3.6429,1.3779-6.9447,3.6572-10.5713,5.6234v-8.865c4.5523-6.9,18.3295-7.1616,24.008-3.6817,3.9583,2.4256,6.4405,5.8089,6.5428,10.533.1586,7.3281.1,14.6607.212,21.99.0264,1.7255.3673,3.4463.61,5.5786l5.6806-2.0047Zm-15.95-19.2606c-3.9,1.8491-7.4422,3.2323-10.6668,5.15a5.6118,5.6118,0,0,0-2.5591,7.31c1.2753,3.38,3.9674,4.5052,7.19,3.83,2.1643-.4532,4.1523-1.748,6.0357-2.5848Zm247.3483,16.6552,5.9218-2.0939v4.8636c-6.4575,4.7213-10.6308,4.7189-15.2923.226-3.5581,1.0541-6.9337,2.4734-10.4429,2.997a10.3742,10.3742,0,0,1-11.6852-6.4624,10.9469,10.9469,0,0,1,3.42-13.0265,42.5236,42.5236,0,0,1,8.7168-4.6725c2.8788-1.2675,5.9394-2.1207,8.9117-3.18a3.311,3.311,0,0,0,.7719-.5692c.8629-7.7845-3.1324-11.6362-10.4929-9.4308-3.8209,1.1448-7.2461,3.61-11.0091,5.5619v-8.5835c5.8735-6.1418,15.8885-7.9668,23.3571-4.2136a12.8233,12.8233,0,0,1,7.4658,12.0421c.1009,6.9916.0489,13.9854.0933,20.9781C705.9858,589.24,706.1215,590.8234,706.2393,593.2188Zm-9.5169-3.0641V576.5372c-3.8811,1.817-7.4191,3.1569-10.617,5.0661a5.78,5.78,0,0,0-2.5729,7.7122c1.3789,3.31,4.1939,4.2387,7.3424,3.51C693.0162,592.33,694.9617,590.9886,696.7224,590.1547Zm57.9575,7.0934c.0553-5.32.2035-10.6432.0857-15.96a140.4055,140.4055,0,0,0-.8876-16.8852c-.9536-6.6135-6.505-11.034-13.1832-11.5282a17.231,17.231,0,0,0-12.8179,4.4927c-.3084.2615-.88.2124-1.3424.31-.346-1.323-.6576-2.5142-.9031-3.4528h-8.8056c0,14.3522-.0049,28.3078.0162,42.2634a11.5207,11.5207,0,0,0,.4035,2.0475h8.759v-31.639c.9973-1.2254,1.558-2.0673,2.2661-2.758a11.4378,11.4378,0,0,1,11.9165-3.078c4.338,1.2979,5.0317,5.107,5.2047,8.7831.336,7.1336.3021,14.2848.4011,21.429.0335,2.4165.0053,4.8338.0053,7.3879h8.3273A6.1277,6.1277,0,0,0,754.68,597.2481ZM403.8632,564.5652c3.3882-3.5745,7.4969-4.9408,12.2527-3.4993,4.55,1.379,5.1512,5.414,5.3085,9.2615.3127,7.6491.2581,15.3128.3828,22.97.0286,1.7543.1687,3.5068.2528,5.1668h8.7375c0-9.1529.0361-17.9523-.0275-26.751a37.12,37.12,0,0,0-.5961-5.95c-1.86-10.8876-12.46-16.1414-22.2964-11.0461-1.7263.8943-3.3212,2.0425-5.3072,3.2793-.3219-1.4956-.58-2.694-.83-3.8562h-8.5068v44.27H402.05V566.92C402.8475,565.8754,403.2958,565.1638,403.8632,564.5652Zm412.9828,25.29H793.6187c7.8751-12.1838,15.3256-23.711,23.0461-35.6557H778.8141v8.1742h21.8087l-23.138,36.0937H816.692v-8.7714Zm935.8557-60.34-4.6051.2372c18.4909,30.6136,18.5311,60.8425-.0462,91.4748l4.9741.2569C1782.0766,589.3751,1775.0115,551.808,1752.7017,529.5157Zm-180.5617.2963h-4.9992c-28.5915,31.2991-22.7195,68.2665.1207,91.5H1572C1553.4968,590.5084,1553.7171,560.32,1572.14,529.812Zm-523.1982-.1874c-8.1135.3455-13.9439,6.8952-14.8967,16.6048-.2384,2.43-.3046,4.8767-.4445,7.225l-5.7517.7847V561.73l6.1344.6573v36.0613h8.9823V562.15l7.6248-.3352v-7.7865l-7.5039-.4722c-.1655-4.4545-1.0785-9.216,2.2078-12.07,2.5286-2.1963,6.6857-2.5178,10.6037-3.8361v-7.4681A58.5456,58.5456,0,0,0,1048.9418,529.6246ZM37.0582,598.58V530.8513H27.7775V598.58Zm277.4288-8.377a22.836,22.836,0,0,1-4.8682.9062c-4.0781.1535-6.4521-1.6551-6.5984-5.743-.2723-7.6081-.0781-15.233-.0781-23.348h13.767V553.77H303.0222l-.4734-9.47-17.55,17.47,8.8.4507c0,1.8176-.0052,3.4435.0008,5.0693.0247,6.6637-.1086,13.3332.1272,19.99.2143,6.0478,3.5671,10.2073,9.22,11.5817a20.3512,20.3512,0,0,0,15.7626-2.2452v-7.9774C317.229,589.2438,315.8873,589.8349,314.487,590.2031ZM96.1331,567.4852c.0039,5.987-.1841,11.9817.0568,17.9592.389,9.6525,6.3978,14.889,16.03,13.9294,3.1962-.3185,6.31-1.4635,9.21-2.1694v-8.3995c-2.893.82-5.3866,1.8358-7.9714,2.1948-5.2251.7255-7.7881-1.0373-8.0688-6.26-.3982-7.4091-.1011-14.8555-.1011-22.745h13.8891v-8.2336H105.4512c-.2253-3.0334-.4139-5.5727-.5225-7.034l-14.9716,15.21h6.1758C96.1329,564.2166,96.132,565.8509,96.1331,567.4852Zm782.3,23.5722c-4.3908.5-6.9384-1.4035-7.1277-5.7162-.3334-7.5971-.0934-15.2194-.0934-23.4078h13.5515v-8.25H871.4047c-.1848-3.0187-.3415-5.5789-.5367-8.7663L854.4812,561.75l7.6522.5337c0,8.3285-.2343,16.3061.0667,24.2635.2942,7.7725,4.7792,12.197,12.53,12.85a19.5444,19.5444,0,0,0,12.901-2.9934v-7.6365C884.4556,589.5871,881.4882,590.71,878.4327,591.0574Zm517.0793-.1825c-6.23,1.3219-9.1727-1.0673-9.3624-7.4386-.0842-2.8293-.0162-5.6632-.0166-8.495-.0005-4.247,0-8.494,0-13.1307h13.6529v-8.0881h-13.3532c-.2226-3.0871-.4123-5.7177-.6624-9.188-6.0427,6.0141-11.3177,11.2643-17.293,17.2112l8.6419.5136c0,8.3291-.2195,16.3091.0633,24.2712.27,7.6163,4.529,11.9459,12.042,12.7909a19.6751,19.6751,0,0,0,13.4057-2.92v-7.9232A66.4189,66.4189,0,0,1,1395.512,590.8749Zm182.9129,7.5635h9.3418V530.8021h-9.3418ZM488.099,530.81h-8.1628v67.8175h8.1628Zm123.7981,30.7522c-.2877-2.637-.5445-4.992-.81-7.4279h-8.5659v44.5092h8.9538c0-2.1222-.0158-4.0671.0028-6.0117.0631-6.6449-.3463-13.3388.321-19.9231,1.0414-10.2765,8.8533-13.6455,17.2865-7.9036.41.2791.8621.4957,1.4756.8441,1.06-1.68,2.1356-3.3375,3.1591-5.0269.4995-.8243.9018-1.7076,1.3059-2.4833C627.0681,550.3085,622.6548,550.9539,611.8971,561.5624Zm721.0043-2.55c-3.2634-6.6646-11.6425-8.1891-17.4129-3.069-1.8909,1.6779-3.5187,3.6523-5.7132,5.9606-.24-3.0492-.4187-5.3257-.6132-7.8014H1300.53v44.5218h8.9452c0-2.4806-.0164-4.7664.0035-7.0519.0549-6.3283-.3392-12.7034.2954-18.9739,1.016-10.0383,8.8376-13.5265,17.0267-8.0171.5259.3538,1.0831.6607,1.7173,1.0449,1.541-2.3231,3.0073-4.5333,4.4735-6.7435Zm-226.4539,39.3943h8.6854c0-6.0689-.1017-11.725.0375-17.3752a49.2267,49.2267,0,0,1,.9129-10.403c2.1116-8.6454,8.843-11.1411,16.2655-6.35.67.4327,1.3574.839,2.2658,1.3984l4.5759-7.64c-3.9618-3.73-8.1934-6.7136-12.9024-4.6908-4.1031,1.7625-7.3836,5.44-11.0274,8.2717-.1077-2.3889-.2182-4.8394-.34-7.5316h-8.4737ZM179.2565,576.804a24.9271,24.9271,0,0,1,2.7553-10.3678c2.9926-5.3964,7.92-6.1536,13.1548-2.8628,1.069.6721,2.1368,1.3461,3.3516,2.1114l4.9836-8.42c-3.5864-1.5585-6.7018-3.6618-10.073-4.22-6.8172-1.1285-9.6852,5.0914-14.5186,9.7089v-8.5225h-8.66v44.3515h8.8831C179.1335,591.0461,178.8434,583.9047,179.2565,576.804ZM331.14,554.2217h-8.3883V598.56H331.14ZM1406.3358,598.424h8.3934V554.0921h-8.3934Zm-155.9722-44.3033h-8.1846v44.518h8.1846Zm-350.6641.04h-8.3723v44.4045H899.7ZM772.7408,598.4092V554.2364h-8.6553v44.1728ZM768.46,534.884a5.4976,5.4976,0,0,0-5.288,5.4185,5.4127,5.4127,0,0,0,5.5356,5.1525,5.2874,5.2874,0,1,0-.2476-10.571Zm636.594,5.0479a5.355,5.355,0,0,0,5.1226,5.5218,5.2633,5.2633,0,0,0,5.5937-5.0142,5.3546,5.3546,0,0,0-5.0844-5.5414A5.51,5.51,0,0,0,1405.0541,539.9319Zm-515.0083.487a5.4091,5.4091,0,0,0,5.7381,5.0329,5.2568,5.2568,0,0,0,4.9882-5.24,5.3545,5.3545,0,0,0-5.4319-5.3248A5.5564,5.5564,0,0,0,890.0458,540.4189Zm356.0961-5.5231a5.2657,5.2657,0,0,0-5.2538,5.4409,5.2728,5.2728,0,1,0,5.2538-5.4409ZM327.249,545.4479a5.2647,5.2647,0,0,0,5.1272-5.0909,5.21,5.21,0,0,0-5.2435-5.4514,5.09,5.09,0,0,0-5.3068,5.3206A5.15,5.15,0,0,0,327.249,545.4479Zm645.5753-310.285c.675,1.3144,1.3907,2.61,2.0181,3.9463,3.4634,7.3773,6.89,14.772,10.3632,22.1446,1.0951,2.3246,2.281,4.6242,6.8309,2.8624-5.2984-15.907-11.8043-31.3872-17.7021-47.2557h-12.09c7.2028-4.9239,9.231-8.9853,7.5467-14.5243a10.7941,10.7941,0,0,0-9.7739-7.324c-4.4626-.1382-8.8964,2.4411-9.99,6.781a14.3581,14.3581,0,0,0,.4063,8.5849c1.0605,2.4844,3.8219,4.2427,6.129,6.62h-11.488c-6.2774,15.7329-12.43,31.1515-18.6011,46.6191h-8.2008c5.938-5.0261,7.0372-9.5136,3.55-13.6924A7.9519,7.9519,0,0,0,910.63,248.797c-2.5209,2.0824-3.8987,4.889-2.7288,7.96.9667,2.5371,2.9191,4.6987,4.2987,6.8178h-7.3918c-5.5654-16.0972-11.0849-32.062-16.71-48.3315h-16.826c7.701-5.1309,9.9992-9.5814,8.5228-15.5173a11.82,11.82,0,0,0-10.85-8.84c-5.31-.2788-10.3546,2.503-11.689,7.4936a16.1107,16.1107,0,0,0,.3245,9.5612c1.1148,2.7712,4.1139,4.7844,6.6934,7.57H848.2011c-5.4588,17.3587-10.7671,34.2385-16.4267,52.2356l7.52.8547c4.3562-12.3283,8.3851-23.7306,12.414-35.1329,1.6332,4.4425,2.0785,8.5964,3.0031,12.6408a63.9433,63.9433,0,0,1-1.343,34.3259c-4.4246,14.0806-7.5566,28.5674-11.1975,42.684,3.3915,3.6868,4.2169,3.8025,8.9807,1.2975,5.5063-16.08,11.0916-32.3906,16.6769-48.7014l.8482.0391c5.6192,16.4176,11.2384,32.8352,16.7522,48.9444,3.3634,1.8622,6.0647,2.1391,8.7542-1.0679-.281-1.3746-.5387-2.9844-.9425-4.5567-4.4686-17.3973-8.9792-34.7839-13.4121-52.19a13.7948,13.7948,0,0,1-.4316-4.865c.4754-4.13,1.1985-8.2325,1.8625-12.34.9-5.5676,1.8369-11.1294,2.758-16.6937,6.3281,13.3932,11.6229,26.8433,17.3383,40.1122,3.667,8.5133,5.7292,16.902,2.11,25.9584-.9061,2.2674-1.1,4.8194-1.646,7.3558l2.6864,1.481c-.3178,5.7624-.635,11.5123-.9781,17.7345h5.3867c.8053-6.2917,1.559-12.1807,2.314-18.0792h7.52c.9033,6.2539,1.7525,12.1338,2.6783,18.5433l5.2927-.6246c-.3512-6.18-.67-11.7872-.98-17.25l2.6071-2.1211a88.5627,88.5627,0,0,0-2.14-9.0821c-2.3077-6.6265-1.7016-13.0313.8421-19.3954.4933-1.2342,1.003-2.4637,1.559-3.6705q8.1425-17.6728,16.3179-35.33c.5056-1.09,1.2029-2.0911,1.8111-3.1335a65.0063,65.0063,0,0,1,3.0728,14.2585,23.3071,23.3071,0,0,1-.4317,7.4062c-2.8895,12.9732-6.3681,25.8295-8.823,38.88-1.8266,9.7113-2.4055,19.6573-3.5083,29.2218h44.9391c0-.6914.0573-1.5074-.0083-2.3134-1.7585-21.6035-4.5481-43.0224-11.1628-63.7834a19.8612,19.8612,0,0,1-1.2244-7.2823c.4315-5.6139,1.3984-11.1867,2.1487-16.7762Z"/></svg>