<svg enable-background="new 0 0 24 24" viewBox="0 0 24 24" xmlns="http://www.w3.org/2000/svg"><path d="m8.6 21.4c.1.4.2.8.3 1.3 0-.5.1-.9.2-1.3l.7-2.8h1.1l-1.4 5.2h-1.1l-.9-3.3c-.1-.2-.1-.5-.2-.9 0 .3-.1.7-.2.9l-.9 3.3h-1.1l-1.4-5.2h1.1l.7 2.9c.1.4.1.7.1 1.2.1-.5.2-.9.3-1.2l.8-2.8h1.1zm5.5-2c-1.1 0-1.8.7-1.8 1.8s.6 1.8 1.7 1.8c.6 0 1.1-.2 1.6-.6v1.1c-.5.3-1 .4-1.6.4-1.7 0-2.8-1.2-2.8-2.7s1.1-2.7 2.9-2.7c.7 0 1.2.2 1.6.4v1.1c-.5-.4-1-.6-1.6-.6zm3 3c.2.4.5.6 1 .6s.8-.3.8-.7c0-.5-.4-.6-1.1-.9-.8-.4-1.2-.8-1.2-1.5 0-.8.7-1.5 1.8-1.5.6 0 1.1.2 1.4.7l-.7.6c-.2-.3-.4-.5-.8-.5-.5 0-.7.3-.7.6 0 .5.5.6 1 .9.9.4 1.3.9 1.3 1.5 0 .9-.7 1.6-1.8 1.6-.8 0-1.4-.3-1.7-.8zm-9.1-19.3c.2-.4.3-.7.5-.9.6-1.2 1.5-1.9 2.8-2.1 1.2-.2 2.4.1 3.3 1 .4.4.7.9 1 1.4.1.2.2.4.3.6.2-.4.4-.7.6-1 .5-1 1.4-1.7 2.5-1.9 1.1-.2 2.1-.1 3 .5s1.4 1.5 1.6 2.5c.2.9 0 1.7-.4 2.5-.7 1.4-1.4 2.7-2.1 4.1-.3.5-.5 1-.8 1.5-.7 1.3-1.3 2.5-2 3.8-.2.3-.3.6-.5.9-.3.5-.7.9-1.3 1.1-1 .3-2-.3-2.4-1.1-.2-.5-.5-.9-.7-1.4-.4-.7-.7-1.4-1.1-2.1-.1-.1-.1-.2-.2-.4-.1.1-.2.2-.2.3-.4.7-.8 1.5-1.2 2.3-.3.5-.5 1-.8 1.4-.3.5-.8.9-1.4 1-.9.2-1.5-.2-2-.8 0 0-.1-.1-.1-.1-.2-.4-.4-.7-.6-1.1-.5-.9-1-1.8-1.4-2.8-.4-.7-.7-1.4-1.1-2.1-.8-1.2-1.5-2.4-2.1-3.6-.2-.3-.4-.7-.5-1-.3-.5-.5-1.1-.4-1.7 0-.4 0-.7.1-1.1.2-.6.4-1.1.8-1.5l.7-.7c.6-.4 1.3-.6 2.1-.6 1.1 0 2 .3 2.7 1 .3.3.5.7.7 1s.4.7.6 1.1zm3.6 8.2c-.1-.2-.2-.4-.3-.6-.5-.9-1-1.8-1.4-2.7-.5-.7-.9-1.5-1.2-2.2-.2-.4-.4-.7-.7-1.1 0 .1-.1.1-.1.2-.3.5-.5 1-.8 1.5-.4.7-.8 1.4-1.2 2.2s-.9 1.7-1.3 2.5c-.1.2-.1.3 0 .5s.2.4.3.5c.5.9.9 1.8 1.4 2.7.1.2.2.5.4.7.2.5.6.7 1.1.9h.5c.6-.1.9-.5 1.1-1 .3-.7.7-1.3 1-2 .4-.7.8-1.4 1.2-2.1zm.8 0c.6 1.2 1.2 2.3 1.8 3.4.2.4.5.8.7 1.2.2.5.7.6 1.1.6.5 0 .9-.3 1.2-.7.2-.3.3-.6.5-.9.6-1.2 1.2-2.4 1.8-3.6-.4-.8-.9-1.7-1.4-2.5-.6-1.1-1.2-2.3-1.8-3.4-.1-.2-.3-.5-.4-.7-.1.2-.2.4-.3.6-.4.8-.9 1.7-1.3 2.5 0 .1-.1.2-.1.2-.6 1.1-1.2 2.2-1.8 3.3zm3.1-7.5c-.2-.4-.5-.9-.7-1.3-.3-.6-.7-1-1.3-1.4-.7-.4-1.4-.5-2.2-.4s-1.5.6-2 1.4c-.3.5-.5 1-.8 1.5v.4c.2.4.4.8.6 1.2.6 1 1.1 2.1 1.7 3.1.4.7.8 1.5 1.2 2.2.1-.1.1-.2.1-.2.2-.4.5-.9.7-1.3.5-.9.9-1.7 1.4-2.6s.9-1.7 1.3-2.6zm4.4 6.7c.2-.3.4-.6.5-.9.8-1.4 1.5-2.9 2.2-4.3.3-.7.4-1.4.3-2.1-.2-1-.8-1.6-1.6-2.1-.5-.3-1-.3-1.5-.3-.8 0-1.5.3-2.1.9-.4.3-.6.8-.8 1.2-.2.3-.4.7-.5 1.1.4.8.8 1.5 1.3 2.3.6 1.2 1.3 2.4 1.9 3.5 0 .2.1.4.3.7zm-15.8 0c1.2-2.3 2.3-4.5 3.5-6.7-.3-.5-.5-1-.8-1.5s-.7-.9-1.2-1.2c-.8-.4-1.6-.5-2.5-.2s-1.6.9-2 1.8c-.1.4-.1.9-.1 1.3s.1.8.3 1.2l.6 1.2c.5 1 1.1 2 1.6 3 .2.4.4.7.6 1.1z" fill="currentcolor"/></svg>