<svg enable-background="new 0 0 400 100" viewBox="0 0 400 100" xmlns="http://www.w3.org/2000/svg"><g fill="currentcolor"><path d="m46 57.4v1.5h-4.5v3.6h4v1.5h-4v4.3h-2v-11h6.5z"/><path d="m50.6 68.5c-2.5 0-3.9-1.4-3.9-4.2 0-2.7 1.4-4.2 3.9-4.2s3.9 1.4 3.9 4.2c.1 2.8-1.3 4.2-3.9 4.2zm1.9-4.2c0-1.8-.6-2.8-1.9-2.8s-1.9 1.1-1.9 2.8c0 1.8.6 2.8 1.9 2.8 1.4.1 1.9-1.1 1.9-2.8z"/><path d="m61.9 68.3-.4-1.3c-.2.9-1 1.5-2.4 1.5-1.1 0-1.8-.4-2.2-1-.5-.7-.5-1.5-.5-2.5v-4.7h1.9v4.8c0 .5 0 .9.3 1.3s.7.6 1.3.6c1.3 0 1.5-1.1 1.5-1.8v-4.9h1.9v8z"/><path d="m67.2 60.3.4 1.4c.3-.9 1-1.5 2.4-1.5 1.2 0 1.9.5 2.3 1.1.5.7.5 1.5.5 2.4v4.7h-1.9v-4.8c0-.5 0-.9-.3-1.3s-.6-.6-1.3-.6c-1.4 0-1.6 1.1-1.6 1.8v4.9h-1.9v-8h1.4z"/><path d="m82.1 57v11.4h-1.5l-.3-1.4c-.2.9-1.1 1.5-2.4 1.5-2.2 0-3.4-1.7-3.4-4.1 0-2.5 1.2-4.2 3.5-4.2 1.2 0 1.9.4 2.2 1.4v-4.6zm-5.6 7.3c0 1.6.5 2.7 1.9 2.7s1.9-1.2 1.9-2.7c0-1.6-.5-2.7-1.9-2.7s-1.9 1.1-1.9 2.7z"/><path d="m86.6 58c0 .6-.5 1.1-1.2 1.1s-1.2-.5-1.2-1.1.5-1.1 1.2-1.1 1.2.5 1.2 1.1zm-.2 2.3v1.3 6.7h-1.9v-8z"/><path d="m90.2 60.3.4 1.4c.3-.9 1-1.5 2.4-1.5 1.2 0 1.9.5 2.3 1.1.5.7.5 1.5.5 2.4v4.7h-1.9v-4.8c0-.5 0-.9-.3-1.3s-.6-.6-1.3-.6c-1.4 0-1.6 1.1-1.6 1.8v4.9h-1.9v-8h1.4z"/><path d="m101.1 65.3c-.4 0-.8 0-1.1-.1-.2.1-.4.3-.4.7 0 .6.6.6 1.1.6h1.4c1 0 3.2 0 3.2 2.2 0 1.8-1.4 2.7-4.3 2.7-2.6 0-3.7-.7-3.7-1.9 0-1.4 1.5-1.6 1.6-1.6 0 0-1-.4-1-1.4s1-1.4 1.5-1.5c-.9-.4-1.4-1.2-1.4-2.2 0-1.6 1.3-2.6 3.3-2.6 1 0 1.8.2 2.4.7.4-1 1.2-1 1.7-1h.2v1.6s-.3-.1-.6-.1c-.4 0-.6.1-.7.1.2.4.4.8.4 1.3-.3 1.5-1.6 2.5-3.6 2.5zm-1.6 2.7s-.6.3-.6 1 .6 1 2 1c1.5 0 2.4-.4 2.4-1.1 0-.8-1-.8-1.5-.8h-2.3zm2.9-5.3c0-.8-.5-1.3-1.3-1.3s-1.3.4-1.3 1.3c0 .8.5 1.3 1.3 1.3s1.3-.5 1.3-1.3z"/><path d="m113.5 57.4 3.5 8.4 3.4-8.4h2.5v11h-1.9v-8.6l-3.2 8h-1.8l-3.2-8v8.6h-1.8v-11z"/><path d="m131.6 68.1s-1.1.4-2.5.4c-1.5 0-2.5-.4-3.1-1-.7-.7-1.1-1.8-1.1-3.1 0-2.6 1.3-4.3 3.7-4.3 1.3 0 2.3.5 2.9 1.4s.6 2.1.6 3.4h-5.2c0 1.4.8 2.2 2.3 2.2 1.1 0 2.3-.4 2.3-.4h.1zm-1.5-4.5c0-1.3-.4-2.1-1.5-2.1s-1.6.8-1.7 2.1z"/><path d="m135.4 60.3.4 1.4c.2-.9.9-1.5 2.3-1.5s2.1.6 2.4 1.6c.4-1.1 1.1-1.6 2.3-1.6 1.3 0 1.9.6 2.2 1.1.4.7.4 1.5.4 2.4v4.7h-1.9v-4.8c0-.5 0-.9-.2-1.3-.2-.3-.6-.6-1.2-.6-1.3 0-1.5 1.1-1.5 1.8v4.9h-1.9v-4.8c0-.5 0-.9-.2-1.3-.2-.3-.6-.6-1.2-.6-1.3 0-1.5 1.1-1.5 1.8v4.9h-1.9v-8h1.5z"/><path d="m149.7 57v4.7c.3-.9 1-1.5 2.4-1.5 2.1 0 3.4 1.5 3.4 4.1 0 2.7-1.3 4.2-3.6 4.2-1.2 0-2-.4-2.4-1.4l-.5 1.2h-1.2v-11.3zm0 7.4c0 1.6.5 2.8 1.9 2.8s1.9-1.2 1.9-2.8-.5-2.7-1.9-2.7c-1.4-.1-1.9 1-1.9 2.7z"/><path d="m163.6 68.1s-1.1.4-2.5.4c-1.5 0-2.5-.4-3.1-1-.7-.7-1.1-1.8-1.1-3.1 0-2.6 1.3-4.3 3.7-4.3 1.3 0 2.3.5 2.9 1.4s.6 2.1.6 3.4h-5.2c0 1.4.8 2.2 2.3 2.2 1.1 0 2.3-.4 2.3-.4h.1zm-1.5-4.5c0-1.3-.4-2.1-1.5-2.1s-1.6.8-1.7 2.1z"/><path d="m170.5 62s-.4-.1-.8-.1c-1.7 0-1.7 1.3-1.7 1.9v4.5h-2v-8h1.5l.4 1.6c.3-1.3 1.3-1.7 2.5-1.7h.2v1.8z"/><path d="m172.5 66.4-1.1 4.1h-1.4l.6-4.1z"/><path d="m181.2 57.4 3.5 8.4 3.4-8.4h2.5v11h-1.9v-8.6l-3.2 8h-1.7l-3.2-8v8.6h-1.7v-11z"/><path d="m193.2 60.5s1-.4 2.6-.4c1.2 0 2.3.2 2.8 1 .4.6.4 1.4.4 2.2v2.7c0 .3 0 .9.7.9.2 0 .4-.1.4-.1v1.3s-.4.1-1 .1c-1 0-1.7-.4-1.8-1.4-.3.9-1.2 1.5-2.4 1.5-1.6 0-2.6-1-2.6-2.4 0-1.7 1.4-2.6 4-2.6h.8c0-.7 0-1-.2-1.3s-.6-.5-1.4-.5c-1.2 0-2.2.4-2.2.4h-.1zm2.3 6.5c.6 0 1.1-.3 1.4-.8s.3-1.1.3-1.4v-.2h-.4c-.8 0-2.3 0-2.3 1.3-.1.7.3 1.1 1 1.1z"/><path d="m206.5 62h-.1s-1-.4-1.9-.4c-.8 0-1.2.3-1.2.7 0 1.2 3.6.9 3.6 3.6 0 1.7-1.4 2.5-3.3 2.5-1.4 0-2.3-.4-2.3-.4v-1.5h.1s1.2.5 2.2.5c.9 0 1.3-.4 1.3-.8 0-1.4-3.6-1-3.6-3.6 0-1.5 1.1-2.4 3.2-2.4 1.1 0 2 .3 2 .3z"/><path d="m213.3 62h-.1s-1-.4-1.9-.4c-.8 0-1.2.3-1.2.7 0 1.2 3.6.9 3.6 3.6 0 1.7-1.4 2.5-3.3 2.5-1.4 0-2.3-.4-2.3-.4v-1.5h.1s1.2.5 2.2.5c.9 0 1.3-.4 1.3-.8 0-1.4-3.6-1-3.6-3.6 0-1.5 1.1-2.4 3.2-2.4 1.1 0 2 .3 2 .3z"/><path d="m228.1 62.5v5.4s-1.4.6-3.4.6c-3.4 0-5.7-1.8-5.7-5.5 0-3.9 2.4-5.7 5.9-5.7 1.6 0 2.8.4 2.8.4v1.5h-.1s-1.1-.5-2.6-.5c-2.4 0-3.9 1.3-3.9 4.1s1.5 4.2 3.6 4.2c.8 0 1.4-.2 1.4-.2v-2.8h-2v-1.5z"/><path d="m236.5 68.1s-1.1.4-2.5.4c-1.5 0-2.5-.4-3.1-1-.7-.7-1.1-1.8-1.1-3.1 0-2.6 1.3-4.3 3.7-4.3 1.3 0 2.3.5 2.9 1.4s.6 2.1.6 3.4h-5.2c0 1.4.8 2.2 2.3 2.2 1.1 0 2.3-.4 2.3-.4h.1zm-1.5-4.5c0-1.3-.4-2.1-1.5-2.1s-1.6.8-1.7 2.1z"/><path d="m240.4 60.3.4 1.4c.3-.9 1-1.5 2.4-1.5 1.2 0 1.9.5 2.3 1.1.5.7.5 1.5.5 2.4v4.7h-2v-4.8c0-.5 0-.9-.3-1.3s-.6-.6-1.3-.6c-1.4 0-1.6 1.1-1.6 1.8v4.9h-1.9v-8h1.5z"/><path d="m254.4 68.1s-1.1.4-2.5.4c-1.5 0-2.5-.4-3.1-1-.7-.7-1.1-1.8-1.1-3.1 0-2.6 1.3-4.3 3.7-4.3 1.3 0 2.3.5 2.9 1.4s.6 2.1.6 3.4h-5.2c0 1.4.8 2.2 2.3 2.2 1.1 0 2.3-.4 2.3-.4h.1zm-1.5-4.5c0-1.3-.4-2.1-1.5-2.1s-1.6.8-1.7 2.1z"/><path d="m261.3 62s-.4-.1-.8-.1c-1.7 0-1.7 1.3-1.7 1.9v4.5h-1.9v-8h1.5l.4 1.6c.3-1.3 1.3-1.7 2.5-1.7h.2v1.8z"/><path d="m262.7 60.5s1-.4 2.6-.4c1.2 0 2.3.2 2.8 1 .4.6.4 1.4.4 2.2v2.7c0 .3 0 .9.7.9.2 0 .4-.1.4-.1v1.3s-.4.1-1 .1c-1 0-1.7-.4-1.8-1.4-.3.9-1.2 1.5-2.4 1.5-1.6 0-2.6-1-2.6-2.4 0-1.7 1.4-2.6 4-2.6h.8c0-.7 0-1-.2-1.3s-.6-.5-1.4-.5c-1.2 0-2.2.4-2.2.4h-.1zm2.4 6.5c.6 0 1.1-.3 1.4-.8s.3-1.1.3-1.4v-.2h-.4c-.8 0-2.3 0-2.3 1.3-.2.7.2 1.1 1 1.1z"/><path d="m273.1 57v3.3 8.1h-1.9v-11.4z"/><path d="m283.1 57.4c.8 0 1.8 0 2.6.5.7.4 1.2 1.1 1.2 2.2 0 2.2-1.9 2.4-1.9 2.4s2.6.1 2.6 2.7c0 1.3-.6 2-1.4 2.5-1 .6-2.1.6-3 .6h-3.6v-11h3.5zm-1.6 4.5h1.3c.4 0 .9 0 1.3-.2s.7-.6.7-1.3-.3-1.1-.7-1.3-.9-.2-1.3-.2h-1.3zm0 5h1.6c.5 0 1.1 0 1.6-.3s.8-.8.8-1.5-.3-1.2-.8-1.5c-.6-.3-1.1-.3-1.6-.3h-1.6z"/><path d="m293.7 62s-.4-.1-.8-.1c-1.7 0-1.7 1.3-1.7 1.9v4.5h-1.9v-8h1.5l.4 1.6c.3-1.3 1.3-1.7 2.5-1.7h.2v1.8z"/><path d="m297.3 58c0 .6-.5 1.1-1.2 1.1s-1.2-.5-1.2-1.1.5-1.1 1.2-1.1 1.2.5 1.2 1.1zm-.2 2.3v1.1 6.9h-1.9v-8z"/><path d="m302.6 65.3c-.4 0-.8 0-1.1-.1-.2.1-.4.3-.4.7 0 .6.6.6 1.1.6h1.4c1 0 3.2 0 3.2 2.2 0 1.8-1.4 2.7-4.3 2.7-2.6 0-3.7-.7-3.7-1.9 0-1.4 1.5-1.6 1.6-1.6 0 0-1-.4-1-1.4s1-1.4 1.5-1.5c-.9-.4-1.4-1.2-1.4-2.2 0-1.6 1.3-2.6 3.3-2.6 1 0 1.8.2 2.4.7.4-1 1.2-1 1.7-1h.2v1.6s-.3-.1-.6-.1c-.4 0-.6.1-.7.1.2.4.4.8.4 1.3-.3 1.5-1.6 2.5-3.6 2.5zm-1.7 2.7s-.6.3-.6 1 .6 1 2 1c1.5 0 2.4-.4 2.4-1.1 0-.8-1-.8-1.5-.8h-2.3zm3-5.3c0-.8-.5-1.3-1.3-1.3s-1.3.4-1.3 1.3c0 .8.5 1.3 1.3 1.3s1.3-.5 1.3-1.3z"/><path d="m310.3 57v4.6c.3-.8.9-1.4 2.3-1.4 1.3 0 2 .5 2.3 1.1.5.7.5 1.5.5 2.4v4.7h-1.9v-4.8c0-.5 0-.9-.3-1.3s-.6-.6-1.3-.6c-1.4 0-1.6 1.1-1.6 1.8v4.9h-1.9v-11.4z"/><path d="m317.8 60.5s1-.4 2.6-.4c1.2 0 2.3.2 2.8 1 .4.6.4 1.4.4 2.2v2.7c0 .3 0 .9.7.9.2 0 .4-.1.4-.1v1.3s-.4.1-1 .1c-1 0-1.7-.4-1.8-1.4-.3.9-1.2 1.5-2.4 1.5-1.6 0-2.6-1-2.6-2.4 0-1.7 1.4-2.6 4-2.6h.8c0-.7 0-1-.2-1.3s-.6-.5-1.4-.5c-1.2 0-2.2.4-2.2.4h-.1zm2.3 6.5c.6 0 1.1-.3 1.4-.8s.3-1.1.3-1.4v-.2h-.4c-.8 0-2.3 0-2.3 1.3-.1.7.2 1.1 1 1.1z"/><path d="m327.7 60.3.4 1.4c.2-.9.9-1.5 2.3-1.5s2.1.6 2.4 1.6c.4-1.1 1.1-1.6 2.3-1.6 1.3 0 1.9.6 2.2 1.1.4.7.4 1.5.4 2.4v4.7h-1.9v-4.8c0-.5 0-.9-.2-1.3-.2-.3-.6-.6-1.2-.6-1.3 0-1.5 1.1-1.5 1.8v4.9h-1.9v-4.8c0-.5 0-.9-.2-1.3-.2-.3-.6-.6-1.2-.6-1.3 0-1.5 1.1-1.5 1.8v4.9h-1.9v-8h1.5z"/><path d="m45.4 29.9c1.4 0 3 0 4.3.8 1.1.7 2 1.8 2 3.7 0 3.6-3.2 4-3.2 4s4.3.2 4.3 4.5c0 2.1-1 3.4-2.3 4.2-1.6 1-3.5 1-5 1h-6v-18.2zm-2.7 7.6h2.3c.7 0 1.5 0 2.2-.4s1.2-1.1 1.2-2.2-.5-1.8-1.2-2.2-1.5-.4-2.2-.4h-2.2v5.2zm0 8.4h2.6c.8 0 1.8 0 2.7-.5s1.3-1.3 1.3-2.4-.3-2-1.2-2.5-1.9-.5-2.7-.5h-2.6v5.9z"/><path d="m62.7 37.7s-.7-.1-1.4-.1c-2.9 0-2.9 2.1-2.9 3.2v7.5h-3.2v-13.5h2.4l.6 2.6c.5-2.2 2.1-2.8 4.1-2.8h.3v3.1z"/><path d="m68.2 31c0 1.1-.8 1.9-1.9 1.9s-1.9-.8-1.9-1.9.8-1.9 1.9-1.9 1.9.9 1.9 1.9zm-.4 3.8v4 9.4h-3.2v-13.4z"/><path d="m76.5 43.2c-.7 0-1.3 0-1.8-.2-.3.2-.7.5-.7 1.1 0 1 1.1 1 1.8 1h2.2c1.7 0 5.3 0 5.3 3.6 0 2.9-2.3 4.5-7.2 4.5-4.3 0-6.2-1.2-6.2-3.2 0-2.4 2.5-2.7 2.6-2.7-.1 0-1.7-.6-1.7-2.3s1.7-2.3 2.5-2.5c-1.5-.7-2.3-2-2.3-3.7 0-2.6 2.1-4.3 5.5-4.3 1.7 0 3 .4 4 1.2.6-1.7 2-1.7 2.8-1.7h.3v2.6s-.5-.1-1.1-.1-.9.1-1.1.2c.4.6.6 1.3.6 2.1 0 2.7-2.2 4.4-5.5 4.4zm-2.8 4.5s-.9.5-.9 1.6c0 1.2 1 1.7 3.4 1.7 2.6 0 3.9-.6 3.9-1.9 0-1.4-1.7-1.4-2.4-1.4zm5-8.9c0-1.4-.8-2.1-2.2-2.1s-2.2.7-2.2 2.1.8 2.1 2.2 2.1 2.2-.7 2.2-2.1z"/><path d="m88.8 29.2v7.7c.4-1.4 1.5-2.4 3.8-2.4 2.1 0 3.3.8 3.9 1.8.8 1.1.8 2.4.8 4v7.9h-3.2v-7.9c0-.8 0-1.6-.4-2.2s-1.1-1-2.1-1c-2.4 0-2.7 1.8-2.7 2.9v8.2h-3.2v-19z"/><path d="m100.8 35.2s1.7-.6 4.3-.6c2 0 3.8.3 4.7 1.7.7 1 .7 2.4.7 3.6v4.6c0 .6 0 1.6 1.1 1.6.4 0 .7-.1.7-.1v2.2s-.7.2-1.7.2c-1.7 0-2.8-.6-3-2.4-.5 1.6-2 2.4-3.9 2.4-2.6 0-4.3-1.6-4.3-4 0-2.9 2.4-4.3 6.6-4.3h1.3c0-1.1 0-1.7-.4-2.2-.4-.6-1-.9-2.4-.9-1.9 0-3.6.7-3.6.7h-.2v-2.5zm3.9 10.8c.9 0 1.8-.4 2.3-1.3.4-.8.4-1.8.4-2.3v-.3h-.7c-1.4 0-3.8 0-3.8 2.1-.1 1.1.6 1.8 1.8 1.8z"/><path d="m116.9 34.8.6 2.3c.4-1.5 1.5-2.6 3.9-2.6 2.3 0 3.5 1 4.1 2.7.6-1.8 1.9-2.7 3.9-2.7 2.1 0 3.2.9 3.8 1.8.7 1.1.7 2.4.7 4v7.9h-3.2v-7.9c0-.8 0-1.6-.4-2.2-.3-.5-.9-1-2-1-2.2 0-2.5 1.8-2.5 2.9v8.2h-3.2v-7.9c0-.8 0-1.6-.4-2.2-.3-.5-.9-1-2-1-2.2 0-2.5 1.8-2.5 2.9v8.2h-3.2v-13.4z"/><path d="m143.5 35.2s1.7-.6 4.3-.6c2 0 3.8.3 4.7 1.7.7 1 .7 2.4.7 3.6v4.6c0 .6 0 1.6 1.1 1.6.4 0 .7-.1.7-.1v2.2s-.7.2-1.7.2c-1.7 0-2.8-.6-3-2.4-.5 1.6-2 2.4-3.9 2.4-2.6 0-4.3-1.6-4.3-4 0-2.9 2.4-4.3 6.6-4.3h1.3c0-1.1 0-1.7-.4-2.2-.4-.6-1-.9-2.4-.9-1.9 0-3.6.7-3.6.7h-.2v-2.5zm3.8 10.8c.9 0 1.8-.4 2.3-1.3.4-.8.4-1.8.4-2.3v-.3h-.7c-1.4 0-3.8 0-3.8 2.1 0 1.1.6 1.8 1.8 1.8z"/><path d="m159.6 34.8.6 2.3c.4-1.6 1.7-2.6 4-2.6 2.1 0 3.2.8 3.9 1.8.8 1.1.8 2.4.8 4v7.9h-3.2v-7.9c0-.8 0-1.6-.4-2.2s-1.1-1-2.1-1c-2.4 0-2.7 1.8-2.7 2.9v8.2h-3.2v-13.4z"/><path d="m184 29.2v19h-2.5l-.6-2.2c-.4 1.5-1.8 2.5-4 2.5-3.7 0-5.7-2.8-5.7-6.9s2-7.1 5.9-7.1c1.9 0 3.2.7 3.7 2.3v-7.6zm-9.4 12.3c0 2.7.9 4.5 3.1 4.5s3.1-1.9 3.1-4.6-.8-4.4-3-4.4-3.2 1.9-3.2 4.5z"/><path d="m195.6 29.9 3.6 14.2 3.7-13.8h3.3l3.7 13.8 3.6-14.2h2.8l-5 18.3h-3.3l-3.7-13.9-3.8 13.9h-3.3l-5-18.3z"/><path d="m222.9 48.6c-4.1 0-6.5-2.4-6.5-7s2.4-7.1 6.6-7.1c4.1 0 6.5 2.4 6.5 7s-2.4 7.1-6.6 7.1zm3.2-7.1c0-3-1-4.7-3.1-4.7-2.2 0-3.1 1.9-3.1 4.7 0 3 1 4.7 3.1 4.7 2.2.1 3.1-1.8 3.1-4.7z"/><path d="m234.6 34.8.6 2.3c.4-1.5 1.5-2.6 3.9-2.6 2.3 0 3.5 1 4.1 2.7.6-1.8 1.9-2.7 3.9-2.7 2.1 0 3.2.9 3.8 1.8.7 1.1.7 2.4.7 4v7.9h-3.2v-7.9c0-.8 0-1.6-.4-2.2-.3-.5-.9-1-2-1-2.2 0-2.5 1.8-2.5 2.9v8.2h-3.2v-7.9c0-.8 0-1.6-.4-2.2-.3-.5-.9-1-2-1-2.2 0-2.5 1.8-2.5 2.9v8.2h-3.2v-13.4z"/><path d="m265.1 47.8s-1.8.6-4.2.6c-2.6 0-4.1-.7-5.1-1.7-1.2-1.2-1.8-2.9-1.8-5.1 0-4.4 2.2-7.1 6.2-7.1 2.2 0 3.8.8 4.8 2.3.9 1.5.9 3.5.9 5.6h-8.6c0 2.3 1.3 3.6 3.8 3.6 1.9 0 3.8-.7 3.8-.7h.2zm-2.5-7.6c0-2.2-.7-3.5-2.5-3.5-1.9 0-2.6 1.3-2.8 3.5z"/><path d="m271.1 34.8.6 2.3c.4-1.6 1.7-2.6 4-2.6 2.1 0 3.2.8 3.9 1.8.8 1.1.8 2.4.8 4v7.9h-3.2v-7.9c0-.8 0-1.6-.4-2.2s-1.1-1-2.1-1c-2.4 0-2.7 1.8-2.7 2.9v8.2h-3.2v-13.4z"/><path d="m282.8 35.8 1-6.5h3l-1.8 6.5z"/><path d="m296.4 37.7h-.2s-1.7-.7-3.2-.7c-1.4 0-2 .5-2 1.2 0 2.1 6 1.5 6 6.1 0 2.8-2.3 4.1-5.5 4.1-2.3 0-3.8-.6-3.8-.6v-2.6h.2s2 .8 3.7.8c1.5 0 2.1-.6 2.1-1.4 0-2.4-6-1.7-6-6.1 0-2.4 1.9-4 5.3-4 1.9 0 3.3.5 3.3.5v2.7z"/><path d="m309.3 29.9v7.5h8.1v-7.5h3.3v18.3h-3.3v-8.3h-8.1v8.3h-3.3v-18.3z"/><path d="m330 48.6c-4.1 0-6.5-2.4-6.5-7s2.4-7.1 6.6-7.1c4.1 0 6.5 2.4 6.5 7s-2.4 7.1-6.6 7.1zm3.2-7.1c0-3-1-4.7-3.1-4.7-2.2 0-3.1 1.9-3.1 4.7 0 3 1 4.7 3.1 4.7 2.2.1 3.1-1.8 3.1-4.7z"/><path d="m347.1 37.7h-.2s-1.7-.7-3.2-.7c-1.4 0-2 .5-2 1.2 0 2.1 6 1.5 6 6.1 0 2.8-2.3 4.1-5.5 4.1-2.3 0-3.8-.6-3.8-.6v-2.6h.2s2 .8 3.7.8c1.5 0 2.1-.6 2.1-1.4 0-2.4-6-1.7-6-6.1 0-2.4 1.9-4 5.3-4 1.9 0 3.3.5 3.3.5v2.7z"/><path d="m350.4 53v-18.2h2.5l.6 2.2c.4-1.5 1.8-2.5 4-2.5 3.7 0 5.7 2.8 5.7 6.9s-2 7.1-5.9 7.1c-1.9 0-3.2-.7-3.7-2.3v6.8zm9.4-11.5c0-2.7-.9-4.5-3.1-4.5-2.3 0-3.1 1.9-3.1 4.6s.9 4.5 3.1 4.5 3.1-1.9 3.1-4.6z"/><path d="m369.3 31c0 1.1-.8 1.9-1.9 1.9s-1.9-.8-1.9-1.9.8-1.9 1.9-1.9c1.2 0 1.9.9 1.9 1.9zm-.3 3.8v2.2 11.2h-3.2v-13.4z"/><path d="m380.3 48.1s-1 .3-2.4.3c-1.9 0-3.2-.5-3.8-1.5-.6-.9-.6-2-.6-3.5v-6.1h-2.5v-2.3h2.4v-3.5l3.2-.9v4.4h3.7v2.3h-3.7v6c0 .9 0 1.5.3 2s.8.6 1.4.6c.9 0 1.8-.3 1.8-.3h.2z"/><path d="m383.2 35.2s1.7-.6 4.3-.6c2 0 3.8.3 4.7 1.7.7 1 .7 2.4.7 3.6v4.6c0 .6 0 1.6 1.1 1.6.4 0 .7-.1.7-.1v2.2s-.7.2-1.7.2c-1.7 0-2.8-.6-3-2.4-.5 1.6-2 2.4-3.9 2.4-2.6 0-4.3-1.6-4.3-4 0-2.9 2.4-4.3 6.6-4.3h1.3c0-1.1 0-1.7-.4-2.2-.4-.6-1-.9-2.4-.9-1.9 0-3.6.7-3.6.7h-.2v-2.5zm3.9 10.8c.9 0 1.8-.4 2.3-1.3.4-.8.4-1.8.4-2.3v-.3h-.7c-1.4 0-3.8 0-3.8 2.1-.1 1.1.6 1.8 1.8 1.8z"/><path d="m400 29.2v19h-3.2v-13.6-5.4z"/></g><path d="m3.8 44.1h-3.8v6.5 5.9h3.8z" fill="currentcolor"/><path d="m8.2 44.1v6.5 5.9h3.9v-12.4z" fill="currentcolor"/><path d="m16.5 44.1v6.5 5.9h3.8v-12.4z" fill="currentcolor"/><path d="m0 41.7h14.3 14.3v-3.5h-28.6z" fill="currentcolor"/><path d="m14.3 28.7-14.3 4.7v3.7l14.3-4.8 14.3 4.8v-3.7z" fill="currentcolor"/><path d="m28.6 56.2c-.1.2-1.5 2.6-10.6 2.6h-7.4c-9.4.1-10.4 1.3-10.6 1.4v3.6c.2-.1 1.2-1.3 10.6-1.4h7.4c9.1 0 10.5-2.4 10.6-2.6z" fill="currentcolor"/><path d="m28.6 62.1c-.1.2-1.5 2.6-10.6 2.6h-7.4c-9.4.1-10.4 1.3-10.6 1.4v3.6c.2-.1 1.2-1.3 10.6-1.4h7.4c9.1 0 10.5-2.4 10.6-2.6z" fill="currentcolor"/><path d="m24.7 44.1v11.8c3.1-.7 3.8-1.8 3.8-2v-9.8z" fill="currentcolor"/></svg>