<svg enable-background="new 0 0 400 530" viewBox="0 0 400 530" xmlns="http://www.w3.org/2000/svg"><path fill="currentcolor" d="m149.3 384h-3.4v-5.6-.1h1.7c1.7 0 2.8 0 3.4.6.8.6 1.4 1.4 1.7 2.3 0 2.8-2.8 2.8-3.4 2.8zm112.1.7c0 3.9 2.2 6.8 5.6 6.8 2.3 0 5.1-1.7 5.1-6.2 0-3.4-1.7-6.8-5.1-6.8s-5.6 2.3-5.6 6.2zm-62 2.8h5.1l-2.3-8.5zm-105.2 82.3c-2.8 0-5.1 2.8-5.1 6.8s2.2 6.2 5.1 6.2c2.2 0 5.1-1.7 5.1-6.2.4-3.4-1.8-6.8-5.1-6.8zm305.8-469.8v530h-400v-530zm-351 351.5h116.1v-102l101.9 102h83.4v-84l-101.4-102h101.4v-116h-301.4zm276.1 72.5v-7.3h23.7v-10.7h-38.9-.1v49h40.6v-10.7h-25.3v-9.6h22v-10.7zm3.9-30.2-6.2-18h-4l-6.2 18h3.9l.6-3.4h6.8l1.2 3.4zm-30.4-5.1-7.9-13h-2.8v18h2.8v-12.4l7.9 12.4h2.8v-18h-3.4zm-31.6-13.7c-5.1 0-9 4-9 9.6-.1 2.6.9 5.1 2.8 6.8 1.5 1.9 3.8 3 6.2 2.8 5.1 0 8.5-4.5 8.5-9.6 0-6.1-4-9.6-8.5-9.6zm-24.2.7v18h3.4v-18zm-20.3 3.3v14.7h3.4v-14.7h5.1v-3.4h-13v3.4zm-42.2 9.7-8.5-13h-2.8v18h3.4v-12.4l7.9 12.4h2.8v-18h-3.4zm-60.3-5.7v-4h9v-3.4h-12.4v18h13.5v-2.8h-10.1v-5.1h8.5v-2.7zm-23-4v14.7h3.3v-14.7h4.5l.1-3.4h-13v3.4zm-19.8 9.7-7.9-13h-2.8v18h2.8v-12.4l7.9 12.4h2.8v-18h-3.4zm-28.2 5h2.8v-18h-2.8zm15.3 86.8-3.5-1.8c0 .8-.2 1.6-.6 2.3-1.1.6-2.2 1.7-3.9 1.7-2.8 0-4.5-2.2-4.5-6.2s1.7-6.8 4.5-6.8c1.4-.1 2.7.6 3.4 1.7.4.5.6 1.1.6 1.7l3.4-.6c0-1.1-1.7-5.6-7.3-5.6-4.6 0-8.5 3.4-8.5 9.6 0 5.6 4 9.6 8.5 9.6 2.4-.1 4.6-1.1 6.2-2.8 1.1-1.1 1.1-2.1 1.7-2.8zm14-25.4h17.4l-11.8-19.7c2.3-1.1 4-1.7 6.2-3.9 3.4-3.4 3.4-7.9 3.4-9.6 0-5.1-1.7-11.3-8.5-14.1-2.8-1.7-7.3-1.7-11.8-1.7h-24.2v49h15.2v-17.5h4.5zm24.4 21.5c0-6.2-4-9.6-8.5-9.6-5.1 0-8.5 4-8.5 9.6 0 2.5.8 4.9 2.3 6.8 1.6 1.7 3.8 2.7 6.2 2.8 5.5-.2 8.3-4.7 8.5-9.6zm39.9-9.1h-5l-3.4 13.5-3.4-13.5h-5.1v18h3.4l-.6-15.2 4 15.2h2.8l3.9-15.2v15.2h3.4zm.6-23.1h-25.4v-9.6h21.4v-10.8h-21.4v-7.3h23.1v-10.7h-38.9v49h41.2zm2.7-57.4h2.8l3.9 6.8h3.4l-4-7.3c1.2 0 4-1.2 4-5.1-.1-1.6-.9-3.1-2.3-4-1.7-1.7-3.4-1.7-5.6-1.7h-5.6v18.1h3.4zm36.7 80.5h-4.6l-4 13.5-3.4-13.5h-4.5v18h2.9v-15.2l4 15.2h2.9l3.9-15.2-.6 15.2h3.4zm13.5-28.3c0-12.4-10.7-14.1-21.4-16.3-4.6-.6-6.8-1.2-6.8-3.4 0-2.8 2.9-3.4 5.1-3.4 3.3 0 6.5.6 9.6 1.7 1.4.9 2.6 2 3.4 3.4l9.6-7.9c-1.8-2.4-4.1-4.3-6.8-5.6-4.7-2.3-9.9-3.5-15.2-3.4-8.5 0-16.9 2.9-20.3 10.2-.6 2-1 4.1-1.1 6.2 0 10.8 9 13.6 13.5 14.7 4.2.4 8.3 1.2 12.4 2.2 2.8 1.1 2.8 2.8 2.8 3.4 0 3.4-6.2 3.4-7.3 3.4-2.3 0-5.1 0-6.8-1.1-4.6-1.1-5.7-2.9-6.8-5.1l-11.8 7.2c2.2 2.8 5.6 7.4 13.5 9.6 3.7 1.1 7.5 1.7 11.3 1.7 2.8 0 12.4 0 18.6-6.8 2.9-2.8 4.5-6.7 4.5-10.7zm2.7-49h6.8l1 3.4h3.4l-6.2-18h-3.9l-5.6 18h3.4zm10.8 77.3h-3.4v18h3.4zm36 2.8v-2.9h-13.5v2.9h5.1v15.2h3.4v-15.2zm5.1-27.5-13.6-6.8c-.6 1.7-2.8 8.5-9.6 8.5-7.9 0-10.7-7.4-10.7-14.7 0-1.7 0-7.3 3.9-10.7 1.5-1.8 3.8-2.8 6.2-2.8 6.7 0 9 5.1 10.7 7.9l13-6.2c-1.3-2-2.8-3.9-4.5-5.6-5-5.6-11.8-7.9-19.7-7.9-16.4 0-25.4 13.5-25.4 26.5 0 12.4 7.9 25.9 25.4 25.9 7.4 0 14.1-2.2 19.2-7.3 2.3-2.4 3.4-4.6 5.1-6.8zm28.8 24.7h-13.5v2.9h5v15.2h3.4v-15.2h5.1zm16.4-17c5.6-5.6 5.6-13 5.6-18.6v-25.9h-15.8v30.4c0 2.3 0 4.5-1.7 6.2-1.5 1-3.3 1.6-5.1 1.7-1.9 0-3.6-.6-5.1-1.7-1.7-1.7-1.7-4-1.7-6.2v-30.4h-15.1v29.3c0 5.1 0 10.7 4.5 15.2 4 3.3 10.2 5.6 17.5 5.6s13-2.1 16.9-5.6zm19.1 31.6h-10.2v-4.5h9v-2.8h-9v-4.5h9.6v-2.8h-13v18h13.6zm35.4-.1h-10.1v-4.5h9v-2.8h-9v-4.5h9.6v-2.8h-12.4v18h12.9zm.1-91.2h-6.8l.1-15.2h-3.4v18h10.1zm-279.5 25.4h-6.8v11.2h6.8c2.2 0 7.3 0 7.3-5.6s-5.1-5.6-7.3-5.6zm247.4-28.7h5l-2.8-8.5z"/></svg>