<svg enable-background="new 0 0 251.6 75.6" viewBox="0 0 251.6 75.6" xmlns="http://www.w3.org/2000/svg"><g fill="currentcolor"><path d="m84.6 37.8 22.6-26c.6-.6 0-1.7-.8-1.7h-5.2c-2.5 0-4.8 1-6.5 2.9l-18.9 22.3v-23.7c0-.8-.6-1.3-1.3-1.3h-6.3c-.8 0-1.3.6-1.3 1.3v52.6c0 .8.6 1.3 1.3 1.3h6.3c.8 0 1.3-.6 1.3-1.3v-23.5l18.9 21.8c1.7 1.9 4 2.9 6.5 2.9h5.5c.8 0 1.3-1 .8-1.7z"/><path d="m184 37c2.9-1 5.2-2.5 6.9-4.6s2.5-4.8 2.5-8c0-2.7-.6-5-2.1-7.1s-3.4-3.8-6.1-5c-2.7-1.3-5.9-1.9-9.6-1.9h-19.7c-.8 0-1.3.6-1.3 1.3v52.6c0 .8.6 1.3 1.3 1.3h20.8c3.6 0 6.9-.6 9.6-1.9s4.8-3.1 6.3-5.2c1.5-2.3 2.1-4.8 2.1-7.5 0-3.4-1-6.3-3.1-8.8-2.1-3.1-4.7-4.8-7.6-5.2zm-20.5-19.5h11.1c2.9 0 5.2.6 6.9 2.1s2.5 3.4 2.5 5.9-.8 4.4-2.5 5.9c-1.7 1.3-4 2.1-6.9 2.1h-11.1zm19.5 38.1c-1.7 1.5-4.2 2.3-7.3 2.3h-12.2v-17.2h12c3.1 0 5.5.8 7.3 2.3 1.9 1.7 2.7 3.8 2.7 6.5 0 2.6-.9 4.7-2.5 6.1z"/><path d="m38.3 48.3v5.9c0 3.4-2.7 5.9-5.9 5.9h-12.8c-3.4 0-5.9-2.7-5.9-5.9v-32.8c0-3.4 2.7-5.9 5.9-5.9h12.8c3.4 0 5.9 2.7 5.9 5.9v.8c1-.4 2.3-.6 3.6-.6 1.5 0 2.9.2 4.2.8v-1c0-7.5-6.1-13.6-13.6-13.6h-12.9c-7.6 0-13.6 6.1-13.6 13.6v32.7c0 7.5 6.1 13.6 13.6 13.6h12.8c7.5 0 13.6-6.1 13.6-13.6v-14.8z"/><path d="m32 46.4 13.8-15.9c.4-.4.4-1.3-.2-1.7-2.5-2.1-6.1-1.9-8.2.6l-8.6 9.9c-.2.2-.6.2-.6 0l-3.1-4c-.6-.8-1.7-.8-2.5 0-2.1 2.1-2.1 5.5-.2 7.8l2.5 3.1c1.8 2.5 5.2 2.5 7.1.2z"/><path d="m126.6 25.8c8.8 0 15.9 7.1 15.9 15.9s-7.1 15.9-15.9 15.9-15.9-7.1-15.9-15.9 7-15.9 15.9-15.9m0-8.3c-13.4 0-24.3 10.9-24.3 24.3s10.9 24.3 24.3 24.3 24.3-10.9 24.3-24.3-10.9-24.3-24.3-24.3z"/><path d="m221.3 25.8c8.8 0 15.9 7.1 15.9 15.9s-7.1 15.9-15.9 15.9-15.9-7.1-15.9-15.9 7.1-15.9 15.9-15.9m0-8.3c-13.4 0-24.3 10.9-24.3 24.3s10.9 24.3 24.3 24.3 24.3-10.9 24.3-24.3c.1-13.4-10.8-24.3-24.3-24.3z"/></g></svg>