<svg xmlns="http://www.w3.org/2000/svg" viewBox="0 0 300 75"><path fill="currentcolor" d="M123.6125,13.7308c-14.656,0-25.0359,10.993-25.0359,25.243,0,14.248,10.38,25.243,25.0359,25.243s25.0351-10.995,25.0351-25.243C148.6476,24.7238,138.27,13.7308,123.6125,13.7308Zm0,44.375c-10.993,0-18.1159-8.617-18.1159-19.132,0-10.518,7.1229-19.134,18.1159-19.134s18.116,8.616,18.116,19.134C141.7285,49.4888,134.6056,58.1058,123.6125,58.1058Zm68.8007-6.4451,5.497,4.141c-1.423,1.966-7.191,8.415-18.183,8.415-15.2679,0-24.696-12.759-24.696-24.838,0-14.925,10.245-25.648,25.033-25.648,6.315,0,12.962,2.377,16.829,7.465l-5.427,4.14a14.7745,14.7745,0,0,0-11.605-5.496c-10.786,0-17.909,8.616-17.909,19.539,0,10.11,6.717,18.727,17.909,18.727A14.7862,14.7862,0,0,0,192.4132,51.6607Zm44.7848-36.708h6.516v48.043h-6.516V41.0087h-24.9v21.987h-6.513V14.9527h6.513v19.949h24.9Zm39.8305,0h-5.9l-21.1729,48.043h7.602l4.748-11.878h22.866l4.8169,11.878h7.6Zm-12.416,30.466,9.09-22.051h.1391l8.9539,22.051ZM43.7831,60.7545a29.317,29.317,0,1,0-29.305-29.306A29.3082,29.3082,0,0,0,43.7831,60.7545ZM15.3243,31.8629h5.2584a23.1922,23.1922,0,0,0,1.0815,6.6333.9506.9506,0,0,0-.23.04,1.0918,1.0918,0,0,0-.133.094c-.2009.08-.271-.144-.385-.241-.12-.12-.133-.331-.258-.395a.6276.6276,0,0,0-.729.254c.1111-.012-.002.128.0851.128-.2621.013-.4591.24-.659.334-.2641.143-.3251-.321-.3481-.598-.026-.141-.25-.231-.452-.127a.2109.2109,0,0,0-.076.146c-.06,0-.11-.073-.1679-.019-.177.197.138.173.2309.29.06.057-.016.127-.0829.174-.09.073-.2271-.077-.2411,0-.044.134-.124.204-.23.164,0,.04-.018.05,0,.077,0,.036.0289.064.0669.036-.1009.041-.201.105-.275.047-.0939-.047-.0629-.2-.0939-.324-.0191-.026-.1231,0-.1231.04-.034.201.02.265-.198.278.0241.073-.056.2.051.221.113.056.251-.07.35,0,.161.164.1411.417.1881.648,0,.013-.047.03-.07.03.0429.12.07.424-.1041.295-.2109-.124.033-.429-.09-.619-.023-.037-.15-.014-.251-.014.124.308-.1439.633.124.926.104.134-.318.315-.164.474a.8438.8438,0,0,0,.381.209c.074.006,0-.155.024-.209.023-.069.2441-.146.29-.045a.71.71,0,0,1,.057.254.4533.4533,0,0,0-.297.063c.0871.197-.041.335-.074.525,0,.04.064.117.074.167.0531.15.3.014.378.138.056.099-.1139.213-.058.35.044.091.191.037.255.114.0931.057.06.176.05.291.094-.01.24.089.201.213.11.045.133-.084.1231-.159.2469.009.1469-.228.1739-.422-.084.043-.077-.134-.1739-.064-.0461-.133.01-.281-.0461-.4-.067-.138-.268-.169-.2979-.352a.3465.3465,0,0,0,.404-.204c.06-.09.211.04.271.164.03.03.01.066.01.117.154-.051.154.106.211.177.1269.088.167.241.3109.301a1.3792,1.3792,0,0,0,.651.024c-.02-.101,0-.204.058-.237.096-.088.146.099.267.11a.4453.4453,0,0,0,.2311.498c.0429.009.1159-.017.1569.009.07.051.1.164.2.197.0709.018.1439-.033.2039-.023.1111.023.1111.114.131.231.013.01.07.047.07.087.204-.04.4311.014.4881.19.1029.261.287.465.404.699.047.12.255.161.281.267a.2352.2352,0,0,0,.107.167.9656.9656,0,0,0,.531.251c.0709.028.185-.11.3079-.167a.1707.1707,0,0,1,.147.057c.188.304.235.719.5351.893.1539.091.198.274.3579.317.097.023.214-.076.3111,0,.0629.047.0829.178.1339.187a.6871.6871,0,0,1,.441.478c.007.038.03.115.09.127A.7467.7467,0,0,0,26.04,46.41q.499.5918,1.0375,1.1478l-3.7062,3.7013A28.4092,28.4092,0,0,1,15.3243,31.8629Zm50.8358-.832H61.4606a17.806,17.806,0,0,0-.3184-3.0127c.1233-.3143.2369-.6378.336-.9784.0331-.215-.043-.515-.328-.543a.1889.1889,0,0,0-.23.102c-.0309.1173.0005.2552-.03.3847-.0913-.35-.1825-.7-.2943-1.0416a.6449.6449,0,0,0-.0843-.648.6555.6555,0,0,1-.227-.394,3.0588,3.0588,0,0,0-.471-1.518,3.5,3.5,0,0,0-.5555-.5127c-.0551-.0992-.12-.1923-.1764-.29.0023-.0119-.0057-.025.002-.036.0639-.127.2009-.214.2309-.365.0271-.277-.287-.381-.361-.652,0-.012-.087,0-.14,0l.1531.047a.5783.5783,0,0,0-.4911.0085c-.1369-.2035-.2919-.3927-.4369-.59.1385-.2143-.042-.5393-.2284-.7414-.16-.15-.2808-.3883-.5115-.4787h0a.9279.9279,0,0,1,.12.023l-.2539-.067a.5134.5134,0,0,1,.1326.0436.2806.2806,0,0,0-.21.0317c-.1285-.1468-.26-.2905-.3935-.4328a1.6339,1.6339,0,0,0,.0332-.2792l1.04-1.0412a1.28,1.28,0,0,0,.2235.1767c.076.045.0931.254.163.408.0341.087.124.204.2581.111.076-.047.04-.214.167-.265a.3073.3073,0,0,1,.281.091c.3039.378.3769,1.156,1,1.109a.1775.1775,0,0,0,.1159.188c.128.04.2181-.141.308.023.0971.141.1471.321.281.392.214.066.445-.014.658.04.138.04.255.204.3511.34a2.0509,2.0509,0,0,0,.221.292c.4179.407.5789,1.023,1.0839,1.333.1531.105.3.302.524.241.0671,0,.02-.101.09-.113a.6225.6225,0,0,0,.4149-.325,1.6838,1.6838,0,0,1,.14-.1424A22.3457,22.3457,0,0,1,66.16,31.0309ZM53.4791,11.2745c-.0886.1439-.29.298-.2045.4366.0429.034-.078.011-.0371.06.083.084.23.02.3471.02.1369.02.188.168.2639.234a2.2748,2.2748,0,0,1,.4651.565c.04.084-.117.241-.04.321.214.22.174.417.174.685,0,.11.2311.007.284.044a.75.75,0,0,1,.2881.882.8686.8686,0,0,0,.0429.555c.157.305.191.746.4781.973.0639-.096.141-.227.1939-.213.2511.033.255-.162.412-.251.474-.321.869.303.999.664.1209.3329.0257.7526.1393,1.0949l-.9536.954a.97.97,0,0,1,.0047-.2931c.0111-.164-.22-.107-.26-.183-.09-.199-.164-.532.22-.502.014,0-.057-.07-.037-.14a2.0312,2.0312,0,0,1-.374,0c-.087-.01-.087-.138-.087-.178-.04-.211.071-.474-.117-.622-.164-.1-.374-.131-.538-.244a2.7133,2.7133,0,0,0-.4109-.29c-.0971-.064-.268.089-.3421,0-.317-.355-.541-.769-.8349-1.171a.6273.6273,0,0,0-.5451-.093c-.057.014-.027.077-.04.11a.1515.1515,0,0,1,.08.014c.0669.033.0239.117.0539.15a.814.814,0,0,1,.364.422c.0871.213-.07.49.0741.704.026.091.1169.154.1529.201.09.104-.003.294.0271.425.0227.08.033.1547.0478.2314a17.6829,17.6829,0,0,0-1.5439-.9508c.03-.0421.06-.0843.0858-.13.13-.201.471-.084.725-.174-.04.157.073.141.16.207-.009-.174-.009-.411-.1229-.491-.2311-.137-.2441-.337-.3651-.552-.026-.073-.157.037-.157.074.027.357-.274.294-.518.387-.0089.024.0141.091-.0089.118,0,.013-.0381.013-.0781,0-.043-.05-.077-.071-.07-.151-.1229,0-.298,0-.3469.08a.7171.7171,0,0,1-.2068.196c-.1593-.0752-.3139-.1586-.4759-.2292a.4168.4168,0,0,0,0-.2034c-.007-.057-.0609-.057-.101-.031-.0544.0286-.0588.1076-.1189.1337a17.6287,17.6287,0,0,0-6.4258-1.3524V9.0747A22.3572,22.3572,0,0,1,53.4791,11.2745Zm3.5036,9.7168a16.8985,16.8985,0,0,1,1.2584,1.8317c-.0024.039-.0018.0779-.0061.1169-.03.198-.331.157-.4541.328a.5411.5411,0,0,0-.087.382c.043.26.341.244.5251.34a2.8624,2.8624,0,0,1,1.1164.9645,16.7788,16.7788,0,0,1,.6448,1.8749l-.033.0184c-.482.249-.542.894-.846,1.238a.88.88,0,0,1-.736.335.19.19,0,0,1-.16-.141c0-.14-.05-.285.057-.398a.9879.9879,0,0,0,.274-.254.8459.8459,0,0,0-.02-.668.8877.8877,0,0,0-.993-.626c-.421.083-.669.521-.903.903,0,0-.0829.01-.0829,0-.161-.197-.3711-.3-.4811-.508-.027-.02-.027-.066,0-.111.167.091.32.342.4971.237.1709-.099.021-.33-.11-.377-.147-.05-.287-.197-.475-.178-.13.011-.287-.183-.331-.34-.0529-.235-.073-.542-.2769-.605a2.69,2.69,0,0,1-.6291-.251c-.096-.05-.2169.04-.31.033.066-.066.01-.223.043-.223.2611-.024.582-.024.424-.319-.07-.14-.21-.281-.3739-.164-.05.024-.1471.024-.167.094-.0331.047-.044.117-.073.161-.0471.11.08.317,0,.385a1.1849,1.1849,0,0,1-.3309.1227,12.0008,12.0008,0,0,0-1.434-1.8818L55.9787,19.84c.2835.2978.5656.597.827.9148-.0049.0288-.0212.0573-.0111.0861A.3976.3976,0,0,0,56.9827,20.9913Zm1.0537,25.3a.9868.9868,0,0,0,.4995.7732.5273.5273,0,0,0,.35.0755l.4129.4123a22.5,22.5,0,0,1-3.1725,2.5457.9229.9229,0,0,0,.0569-.2083,6.6009,6.6009,0,0,0,.016-.993c-.016-.191-.214-.384-.19-.572.013-.137.25-.137.3-.25.117-.268.2281-.546.365-.797.023-.05.12-.073.2-.127.121-.087.017-.223.04-.35-.1-.03-.146-.14-.19-.204a2.4048,2.4048,0,0,0-1.006-.973c-.114-.034-.124-.157-.1779-.251-.0431-.037.018-.161-.026-.203-.1241-.071-.0771-.188-.107-.275h.11a.06.06,0,0,1-.08.05c.034,0,.0769.014.08,0,.017-.01.0031-.0357,0-.05h0a.0089.0089,0,0,1,0-.009.0633.0633,0,0,1-.0629-.054,2.0475,2.0475,0,0,1,.1032-.2064c.1426-.1274.2862-.2539.4246-.3859Zm-29.3541.8554c.2558.0406.4155.26.6622.3065a2.1865,2.1865,0,0,1,.551.227.2822.2822,0,0,0,.235.012,1.2636,1.2636,0,0,0,.3141-.164c.26-.164.5979-.176.862-.35a.8784.8784,0,0,1,.187-.14c.4389-.192.927.167,1.3809-.075a1.9045,1.9045,0,0,0,.3981-.139.8166.8166,0,0,0,.2669-.879c-.0165-.0414-.0327-.0834-.0489-.1251a17.6149,17.6149,0,0,0,9.8648,3.2946V53.81a22.3277,22.3277,0,0,1-15.0783-6.2584ZM31.15,41.9462a.3919.3919,0,0,0,.041-.381.1369.1369,0,0,0-.141-.121c.02-.244.161-.43.02-.645-.154-.204-.365-.321-.4181-.582,0-.026-.127-.089-.127-.129a4.6827,4.6827,0,0,0,.03-.917c-.043-.126-.187-.277-.077-.354a.7713.7713,0,0,1,.254-.14c.208-.078.2781-.218.174-.359-.103-.143-.314,0-.468-.049-.07-.021-.08-.071-.0869-.138-.0371-.12.0869-.31-.0271-.378a.53.53,0,0,1-.224-.19c-.097-.15-.016-.321.098-.471-.067.007-.038-.117-.114-.077-.024-.157.094-.334.0271-.472-.0511-.14-.1681-.314-.341-.237-.0171,0,0,.05-.0171.05a.2079.2079,0,0,1-.304.027.272.272,0,0,1,0-.18c.07-.087.21-.051.2871-.115.14-.143.0169-.337-.05-.413a.6043.6043,0,0,1-.2569-.619c-.2441-.034-.6191-.063-.6031-.408a3.0116,3.0116,0,0,0-.1259-.886.6219.6219,0,0,1,.09-.591c.036-.047.081-.134.1471-.141.315-.044.7019.024.88-.274.1129-.214-.1311-.546.0589-.685.2505-.1874.5962-.1371.9218-.2083h1.0684c.0132.3825.0425.76.0909,1.133-.1573.0358-.1973-.1011-.4431-.0527-.15.017-.263-.027-.247.111a.4924.4924,0,0,0,.2011.284c.2122.0539.3911.095.5614.1319a11.8861,11.8861,0,0,0,3.0358,6.11l-3.4011,3.3966a.1237.1237,0,0,0-.0722-.085c-.0627-.0124-.1238-.0287-.1844-.0455-.1615-.1749-.3266-.3465-.4808-.5281a2.1377,2.1377,0,0,1,.24-.1084C31.1,42.1192,31.0926,41.98,31.15,41.9462Zm-.244-11.019c-.134-.197-.4479-.1-.538-.311a.4312.4312,0,0,1,0-.331.7934.7934,0,0,1,.364-.371,1.1155,1.1155,0,0,1,.99.141.6819.6819,0,0,1,.185.1722c-.0268.2639-.0313.5339-.0406.8025h-.9008C30.9449,30.9957,30.9249,30.96,30.9055,30.9272ZM55.3844,19.2461l-3.4693,3.4708a11.8752,11.8752,0,0,0-7.7137-3.1984V14.6044A16.8254,16.8254,0,0,1,55.3844,19.2461ZM32.1885,43.6442l3.4725-3.4688A11.9025,11.9025,0,0,0,40.67,42.9583a1.8544,1.8544,0,0,0-.8482.91c-.06.103.0169.253-.047.344a3.6967,3.6967,0,0,1-.5411.819.2109.2109,0,0,0-.017.15c.288.395.629.659.919,1.064.071.11.2151.11.258.214.114.253.271.48.405.719a.94.94,0,0,0,1.0961.337c.1539-.044.3339.104.4749.134a4.7968,4.7968,0,0,0,.9862.0446v.5777A16.8267,16.8267,0,0,1,32.1885,43.6442Zm7.9171-12.135c-.1441.382-.5321.07-.8221.258-.004.006-.0269.11.05.14.1031.05.2541.003.287.083a.35.35,0,0,1-.0329.405c-.0141.03-.0971.024-.0971,0-.15-.295-.391-.255-.662-.255.114.098-.087.07-.04.128a1.5189,1.5189,0,0,0-.7453.05,5.83,5.83,0,0,1-.0736-.8693c0-.1691.0118-.3355.0262-.5009.223.0452.4948.1134.6388-.0734.0709-.064.211.137.2949.23.03.03-.017.081-.051.121-.137.136-.3509.15-.435.354a.2133.2133,0,0,0,.124.298c.174.08.2281-.157.311-.279.0971-.115.2011-.019.294,0,0-.035-.009-.089,0-.089a2.3042,2.3042,0,0,1,.6491-.026c.2509,0,.1169-.513.094-.816,0-.068-.0071-.154,0-.228a.2166.2166,0,0,1,.0229-.117c.074-.166.398-.213.448-.037a.8525.8525,0,0,0,.0371.171c.0169.09.06.143.174.09a.1291.1291,0,0,0,.0669-.09c.0431-.096.023-.254.086-.307.098-.101.235.15.392.173a.5713.5713,0,0,0,.461-.053c.11-.067.11-.197.016-.328-.036-.06-.1259-.071-.146-.043-.1439.15-.331.113-.488.113-.1479,0-.218-.181-.3409-.268-.138-.096-.3081.101-.4681.034a.245.245,0,0,1-.1409-.357.6466.6466,0,0,1,.2279-.185c.1861-.092.401-.092.504-.254a1.1482,1.1482,0,0,0,.14-.485c.0109-.089.1009-.089.151-.099.2179-.077.4649-.023.6549-.117a3.3065,3.3065,0,0,0,.599-.419,1.2023,1.2023,0,0,1,.324-.146c.06-.017.093-.121.1071-.164.0439-.365-.057-.703,0-1.088.026-.1.1809-.164.104-.274-.0241-.04-.174.028-.2111-.023-.084-.07-.157-.214-.033-.291.0931-.083.297-.01.3671-.141a.3184.3184,0,0,0,.0129-.0335c.1813-.0252.3651-.0413.5514-.0494-.01.233.1991.4629.1313.6484-.057.117-.361.117-.559.164-.1.033-.1.199-.09.328.014.103.128.091.194.127.194.191.208.518.455.632.3011.137.665.043,1.026.137a.73.73,0,0,1,.508.452c.057.127.247.193.258.391.01.066.097.13.1911.177.1059.037.2469-.073.35-.027.154.043.091.244.131.368.073.237-.053.495.197.728.0931.081-.0969.325-.2039.462-.0461.047-.2011.047-.2171.121a.688.688,0,0,0,.093.568c.078.096.201,0,.2311.066.1839.232.2609.489.414.699a.6675.6675,0,0,0,.2309.217.1606.1606,0,0,0-.11.211c.067.09.221.148.3011.064a2.3477,2.3477,0,0,0,.3869-.228c.0741-.08.198-.049.275-.126.086.079.16.26.1.337-.1839.181-.515.057-.729.197-.147.068-.2909.031-.367.148-.074.073,0,.244.13.26.468.101.103.776-.1239,1.121-.0531.073,0,.199-.0271.343a.1741.1741,0,0,1-.157.098,5.2985,5.2985,0,0,0-1.313.03c-.1409.04-.211.237-.278.401h.08c-.12.012-.12.143-.147.211-.0229.08-.013.233-.063.307a2.588,2.588,0,0,0-.522,1.491c-.013.153.1771.254.288.254s.267-.127.364-.127c.0988.0125.137.0938.16.1883a5.84,5.84,0,0,1-1.2811.1567l-.0052-.0213c-.07-.073-.144-.073-.17-.176-.074-.148-.198.103-.345.089-.0139,0-.0384.04-.0331.085a5.8118,5.8118,0,0,1-3.5176-1.5881c.4133-.0952.7582-.4424,1.1473-.5251a3.7935,3.7935,0,0,1,1.1291-.198c.8769-.02.8269-1.133,1.2739-1.839.0981-.174-.0529-.561-.177-.746-.297-.478-1.2269.068-1.437-.436-.124-.286.625.18.695-.265a.3312.3312,0,0,0-.1469-.307.46.46,0,0,0-.448,0c-.471.394-.5581,1.076-.799,1.524-.4624.7966-1.2479,1.4017-1.7448,2.2452a5.8048,5.8048,0,0,1-.5534-.8158.51.51,0,0,1,.0782-.2024,2.6828,2.6828,0,0,0,.2471-.338c.044-.073.1279-.157.0939-.258.103,0,.103-.136.204-.15.2541-.03.211.194.2981.335a.2378.2378,0,0,0,.1029,0,2.8112,2.8112,0,0,0,.722-1.475c0-.044.107-.094.107-.113C40.5066,31.8132,40.23,31.7272,40.1056,31.5092Zm-2.9035.8615c-.1.1161-.2127.2225-.35.1715-.07-.03-.1869-.194-.11-.234a1.3282,1.3282,0,0,0,.4129-.3706C37.1661,32.0836,37.1822,32.2275,37.2021,32.3707ZM44.2014,38.07c.079-.0051.1594-.0048.2377-.0126-.0821.1079-.1576.2169-.2377.3261Zm1.31-1.8239a.5251.5251,0,0,1,.154-.484c.0739-.074.1939.017.2409.127.0431.113.0431.263.0871.394.026.137-.0711.301.0059.399a.4671.4671,0,0,1,.06.1088c-.1174.05-.2393.09-.3606.1325a.8936.8936,0,0,1,.024-.1123C45.7862,36.5947,45.5552,36.4467,45.5113,36.2457Zm.2382,1.5476c-.0338.0657-.0688.1211-.1513.1284a.9457.9457,0,0,1-.2615-.0219C45.4753,37.8665,45.6145,37.835,45.75,37.7933Zm.0537-11.7885a.3353.3353,0,0,1-.064.0319.2967.2967,0,0,1-.361-.171l0-.0014C45.5224,25.9053,45.6636,25.9531,45.8032,26.0048Zm-6.4,10.4326a6.6327,6.6327,0,0,0,3.4442,1.58.7673.7673,0,0,0-.3849.5585.8869.8869,0,0,0,.325,0c.2443-.1067.1745-.3263.1744-.5411.1227.0152.2465.0252.3712.0337a.5615.5615,0,0,0-.065.2967,1.7936,1.7936,0,0,0-.1971.264c-.023.02-.1.16-.063.224.0887.1051.225-.0038.3476-.0916v.4242c-.1468.0158-.32-.0547-.3671.0927-.0871.191.19.32.28.514a.2044.2044,0,0,1-.161.308,1.9031,1.9031,0,0,1-.762-.013c0,.076-.07.066-.07.09-.047.23,0,.417-.177.621-.114.148.057.329.157.452.114.153.161.364.305.401.113.031.21.13.314.118a.5775.5775,0,0,0,.464-.378c.0025-.01.0127-.0093.0172-.0165v.5877a.5823.5823,0,0,1-.4542.0468,4.9332,4.9332,0,0,1-.626.137.9245.9245,0,0,0-.416.2172,11.0638,11.0638,0,0,1-5.5975-2.7886Zm9.73,4.7217a12.5739,12.5739,0,0,0-1.2845.3686c-.1062.0716-.1629.2226-.2653.3287-.1631.06-.3224.1275-.4889.18a.3988.3988,0,0,1-.3088-.08V42c0,.147-.458.047-.679-.043-.073-.027-.029-.245-.123-.328-.077-.051-.228.023-.2609-.063-.047-.047,0-.162-.057-.174a14.2867,14.2867,0,0,0-1.4639.0138v-.7789a3.7807,3.7807,0,0,1,.5778-.4629.4575.4575,0,0,1,.421-.123c.1211.036.2251.113.355.163.12.061.22.145.341.215a1.1073,1.1073,0,0,0,.181.087c.21.089.337.35.5671.481.0669.033.018-.09.0879-.04a.8481.8481,0,0,0-.137-.539c-.137-.204-.3649-.307-.518-.471a.2173.2173,0,0,1,.029-.284c.0171-.04.094-.04.097,0a1.301,1.301,0,0,0,.375.173c.254.111.207.492.4541.619.1309.071.2009.265.3579.291a.4987.4987,0,0,0,.5851-.22c.0809-.134-.073-.211-.167-.298-.1841-.141.094-.204.1839-.314.16-.195,0-.361-.0169-.549-.02-.076.0339-.122.0809-.16a.1145.1145,0,0,1,.0361-.037c.107-.23.01-.481.0969-.706.0331-.049.094-.042.094-.026a.2771.2771,0,0,0,.307.15.8027.8027,0,0,0,.465-.307.36.36,0,0,1,.585.108c.037.153-.013.363-.1339.404a2.414,2.414,0,0,0-1.0291.414c-.04.038-.094.064-.118.113a.36.36,0,0,0-.1369.485c.0179.094-.1071.195-.1971.284.154.051.154.241.295.272a.6755.6755,0,0,0,.6681-.104.4678.4678,0,0,0,.0669-.321c.164-.02.2741-.178.4511-.215.3549-.056.5589.332.4649.64-.02.059-.11.059-.14.08a2.9057,2.9057,0,0,1-.3866.5405C49.34,41.0316,49.24,41.1,49.1327,41.1591Zm2.4665-3.6924c0,.036.02.097-.02.11a.1774.1774,0,0,1-.2881-.084c-.059-.127-.12-.267-.243-.317a.23.23,0,0,0-.288.113c-.1239-.089-.247-.023-.3609-.047.04-.192-.1541-.18-.2581-.307a.2452.2452,0,0,1,.104-.401c.137-.063.254.05.284.204-.016-.026-.03-.026-.0359-.056,0,.056-.0271.093,0,.129.1229.117.2669-.036.4039.064.157.093.371-.053.5521.053.01,0-.02.087.0429.087a.2727.2727,0,0,1,.224.361C51.7032,37.4127,51.6692,37.4837,51.5992,37.4667Zm-.52-13.9138c-.01-.0046-.0232,0-.0315-.0069a4.3507,4.3507,0,0,0-.448-.295c-.579-.154-.9229.348-1.271.659-.114-.364-.404-.017-.638-.061-.101-.009-.1469-.136-.2039-.136a.397.397,0,0,0-.227.09c-.1571.09-.0381.33.1229.301.124,0,.207-.175.261-.067.12.197.04.534.344.464.198-.047.318-.187.532-.207.21-.009.234-.241.21-.401.221-.027.482-.208.622-.027.0653.0614.0867.1925.1376.277l-.48.48a.2538.2538,0,0,0-.3166-.0074,5.779,5.779,0,0,1-.9759.507,1.7844,1.7844,0,0,0-.6921.769.653.653,0,0,1-.2309.2595,6.63,6.63,0,0,0-1.6184-.9043c.1083-.053.21-.1118.3283-.1572.207-.07.2341-.294.1581-.495a.3775.3775,0,0,0-.0471-.14c-.02-.106-.037-.27-.074-.27a1.5569,1.5569,0,0,0-1.1681.81,6.6953,6.6953,0,0,0-1.1717-.18V20.3583a11.0652,11.0652,0,0,1,7.1144,2.9582Zm-7.7242,1.2614a6.6289,6.6289,0,0,0-1.5612.2835.6636.6636,0,0,1,.0133-.2186c0-.04.0271-.064.057-.05.0671.01.08-.084.0931-.164a1.9245,1.9245,0,0,0-.201,0c-.247.124-.3571.389-.6051.516a.0935.0935,0,0,0-.009.112.1186.1186,0,0,0,.0246.038,6.6665,6.6665,0,0,0-1.77,1.1256L36.256,23.3139a11.0519,11.0519,0,0,1,7.0994-2.9548ZM33.2885,33.6952c.1581.037.2781.224.466.25.137.021.29.094.444-.089.047-.063.1911,0,.207.04.037.143.124.143.217.194.2281.11.154.688.455.502.1611-.108.301.009.482-.028a.4866.4866,0,0,0,.087.669,4.8021,4.8021,0,0,0,.515.414c.133.155.347.115.367-.1.034-.228-.21-.491.08-.688.281.397-.08.892.2139,1.257.021.036.037.054.0541.087.133.167.2439.34.4209.321.1311-.044.184-.168.247-.305a.2309.2309,0,0,1,.037-.114,1.72,1.72,0,0,1,.111-.327c.063-.177.284-.318.247-.522,0-.063-.017-.146-.017-.2a.3949.3949,0,0,1,.1265-.2526,6.66,6.66,0,0,0,.7572,1.04l-3.14,3.1361A11.0859,11.0859,0,0,1,32.91,33.6336C33.0288,33.6531,33.1472,33.6724,33.2885,33.6952ZM44.2014,47.6277a4.2959,4.2959,0,0,1,1.5738.145c.1109.0312.1228.2175.1907.3619a17.0053,17.0053,0,0,1-1.7645.1383Zm9.5408-5.284a1.3072,1.3072,0,0,1-.638-.02c-.9673-.2687-1.8208-.6225-2.7536-.9171.15-.0992.2931-.207.4383-.3127a2.7063,2.7063,0,0,0,.3153.1568,11.1086,11.1086,0,0,0,1.448.315c.391.086.662.364,1.033.457a.4739.4739,0,0,0,.1924.0149l.2354.2351C53.9231,42.2957,53.8307,42.3262,53.7422,42.3437Zm-1.0459-16.783c-.13.064-.2981.075-.435.138-.237.094-.1011.397,0,.619a.2084.2084,0,0,1-.0671.263c-.17.098-.207-.117-.247-.2a2.2752,2.2752,0,0,1-.134-.682c-.02-.234.278-.384.347-.609a.48.48,0,0,0-.006-.448.3915.3915,0,0,0-.438-.194c-.425.114-.545.846-.97.656-.0058-.0023-.0111-.0083-.0169-.0107L51.91,23.9113a11.1807,11.1807,0,0,1,1.0474,1.2971C52.87,25.3448,52.8231,25.4943,52.6963,25.5607Zm-9.3409-6.0414a11.8711,11.8711,0,0,0-7.6991,3.1945l-3.47-3.4717a16.8408,16.8408,0,0,1,11.1688-4.6368Zm-5.01,7.08a2.2179,2.2179,0,0,1-.998-.0753c-.2441-.047-.291.167-.4171.331-.011-.03-.027-.063-.071-.05-.016-.126.06-.224.03-.354-.013-.1-.1741-.088-.21-.171-.408-.769-1.398-.672-2.15-.546-.14.014-.194.158-.284.244a.2318.2318,0,0,1-.1378.0569A11.1567,11.1567,0,0,1,35.66,23.9109Zm5.8558,22.516A17.7324,17.7324,0,0,0,46.5475,48.9a1.741,1.741,0,0,0,.81.274c.083,0,.096.211.17.298.0869.113.047.291.1539.378.147.14.274.241.264.444,0,.241-.294.452-.117.768.044.101-.02.265.03.328a10.8859,10.8859,0,0,0,1.2,1.074c.0439.04.1279.097.09.19.178.05.201.228.318.324a.2624.2624,0,0,1,.0311.0971,22.4939,22.4939,0,0,1-5.2959.7353Zm11.8278-6.6638a3.9,3.9,0,0,0-.2939-1.542.31.31,0,0,0-.388-.214c-.0941.014-.0841.138-.1371.214a.7248.7248,0,0,0-.114.314c-.0769.18-.321.238-.385.428-.01.0367-.0248.0605-.0351.0949l-.2131-.2127a1.7649,1.7649,0,0,0,.2992-.3832c.056-.137-.031-.352.056-.509.044-.073.171-.146.2011-.234a2.836,2.836,0,0,0,.0269-.734c.14.012.247-.141.207-.204a1.0461,1.0461,0,0,1-.067-.134,2.2983,2.2983,0,0,1,.054-.441,1.6007,1.6007,0,0,0-.177-1.013.3919.3919,0,0,0-.4579-.161c-.0541.033-.0741.126-.1271.161a.7653.7653,0,0,0-.4279.176c-.148.118-.1411.368-.2651.472a2.5418,2.5418,0,0,1-.712.478.314.314,0,0,1-.066.0143,11.9813,11.9813,0,0,0,.9328-1.3241.9034.9034,0,0,1,.25-.0042c.1131.027.2-.133.3211-.201.094-.042.0869-.227.1239-.328.0561-.19.2671-.29.354-.453.197-.356.197-.886.482-1.165.193-.15.093.255.166.342a.4308.4308,0,0,0,.5721.026c.1-.1-.01-.354.1709-.455a.605.605,0,0,1,.24,0c.134.087.294.239.435.155.0971-.068.2-.208.304-.241.164-.054.351,0,.519-.073.41-.191,1.27.073,1.223-.324a2.0287,2.0287,0,0,0-1.16-1.449c-.4511-.213-.2811-.846-.6861-1.2-.1029-.073-.05-.237-.1369-.338a.5337.5337,0,0,0-.15-.113l-.0105-.0088h3.6632a16.79,16.79,0,0,1-4.6023,11.1332A4.0771,4.0771,0,0,0,56.0292,42.4517ZM60.02,29.7268c0,.017.074.017.087,0a1.5651,1.5651,0,0,0,.387-.3847q.1052.8327.1269,1.6888H56.85a.5272.5272,0,0,1,.075-.2042c.09-.134.29-.2.4079-.297.143-.118.404-.207.404-.397a4.7549,4.7549,0,0,1,.02-.816c.023-.091.1841-.164.278-.164a2.4652,2.4652,0,0,0,1.4141-.171c.11-.097.1229-.237.1929-.324.19-.2788.4279-.5264.6034-.8006.0163.0748.0389.1473.0543.2226A1.6369,1.6369,0,0,0,60.02,29.7268ZM43.3554,13.7723a17.6341,17.6341,0,0,0-11.77,4.8688l-3.3086-3.3105A22.3114,22.3114,0,0,1,43.3554,9.075ZM35.06,23.31a11.9666,11.9666,0,0,0-1.9721,2.8555.2754.2754,0,0,0-.2033.0234,1.6458,1.6458,0,0,1-.4281.192c-.047.036-.047.139-.063.23,0,.068-.114.051-.151.051-.21.066-.521-.044-.5609.256h.0759a.4851.4851,0,0,1-.2639.605c-.26.091-.5481.071-.8051.175a.6326.6326,0,0,0-.3379.277,5.0708,5.0708,0,0,0-.8221,2.294v.091c0,.052.086.103.086.122-.0944.2036-.1809.3809-.2651.5477H26.9426a16.8044,16.8044,0,0,1,4.6479-11.193ZM28.9,31.8629c-.1251.2211-.2567.4511-.4143.7293-.1911.331-.4181,1.14-.0771,1.414.17.141-.094.478-.341.495-.314.014-.736-.064-.849-.408a.1937.1937,0,0,0-.08-.0913,16.9585,16.9585,0,0,1-.1963-2.139ZM27.5725,46.1452c.2469-.04.345.26.5417.3768l-.4336.433c-.155-.1609-.3117-.32-.4619-.4858a.3611.3611,0,0,0,.0628-.01C27.4156,46.4052,27.43,46.1552,27.5725,46.1452Zm.1009,2.0093a23.12,23.12,0,0,0,15.682,6.4982V59.9a28.4155,28.4155,0,0,1-19.3875-8.0439Zm16.528,6.4985a23.24,23.24,0,0,0,5.8072-.8393c.0336.0322.0623.07.0967.101.2329.214.5579.163.8389.224a.8184.8184,0,0,0,.2211.117.83.83,0,0,0,.7819-.067c.13-.111.247-.314.3741-.391a1.7243,1.7243,0,0,1,.7829-.201.2416.2416,0,0,0,.17-.11c.034-.158.1769-.242.167-.394a1.2672,1.2672,0,0,0,.5279-.202,5.4989,5.4989,0,0,0,.903-.781c.314-.295.843-.164,1.013-.495a.7341.7341,0,0,0,.0579-.3848,23.309,23.309,0,0,0,3.96-3.0737l3.7015,3.6971A28.4243,28.4243,0,0,1,44.2014,59.9ZM59.5879,46.65A.6767.6767,0,0,0,59.68,46.46a2.1134,2.1134,0,0,0-.8031-2.397c-.1-.033-.2909-.033-.2909,0-.0841.3638-.2612.7793-.3963,1.1918l-1.6123-1.61a17.6143,17.6143,0,0,0,4.8831-11.7768H66.16a22.3135,22.3135,0,0,1-6.2649,15.0889Zm.4771-32.0866c-.0733-.3115.0949-.7353-.0075-1.0664-.037-.188-.2379-.188-.415-.188a.2051.2051,0,0,1-.161-.124c-.153-.274-.033-.581-.213-.835-.278-.391-.5849-.689-.89-1.078-.173-.193-.4239-.162-.641-.183a.363.363,0,0,1-.157-.087c-.081-.049-.104-.147-.151-.224a1.2383,1.2383,0,0,0-.615-.421,5.0951,5.0951,0,0,0-1.297-.145,1.4433,1.4433,0,0,0-.987.312,1.9129,1.9129,0,0,1-.3151.1716,23.1326,23.1326,0,0,0-10.014-2.4616V2.9708A28.414,28.414,0,0,1,63.6,11.0267Zm-16.71-6.3292a23.1174,23.1174,0,0,0-15.68,6.4942l-3.7027-3.7048A28.406,28.406,0,0,1,43.3554,2.9711ZM30.99,19.2354A17.6073,17.6073,0,0,0,26.099,31.03H21.4226a22.3534,22.3534,0,0,1,6.26-15.1049ZM26.0988,31.8629a17.736,17.736,0,0,0,.1627,1.9976.9926.9926,0,0,0-.3669.0327c-.3581.092-.3841.511-.5451.795-.11.254-.522.19-.6419.432-.06.103.057.277-.0331.427-.0639.1-.201.1-.2379.215a1.026,1.026,0,0,1-.08.213,1.8909,1.8909,0,0,0-.077.96.9108.9108,0,0,0,.034.253,1.2707,1.2707,0,0,1-.177.924c-.224.323-.619.323-.98.438-.151.066-.3349-.091-.519-.051-.025.0047-.05.0018-.0747.0048a22.4033,22.4033,0,0,1-1.14-6.6411Zm38.103,19.3933L60.5,47.5605a23.1188,23.1188,0,0,0,6.5038-15.6926h5.2411A28.399,28.399,0,0,1,64.2018,51.2562Zm8.043-20.2253H67.0037a23.1311,23.1311,0,0,0-2.2769-9.65,1.8752,1.8752,0,0,0,.4317-.263c.154-.113.07-.378,0-.455a5.1587,5.1587,0,0,1-.374-.779c-.13-.204-.4519-.227-.6189-.467-.083-.117.07-.318-.0561-.412-.0739-.056-.151-.12-.1649-.183a.965.965,0,0,0-.4911-.596c.081-.328-.217-.487-.5249-.574-.013-.017.03-.104.03-.141-.013-.127-.17-.164-.2769-.201-.04-.023-.1241,0-.1371-.023a3.5031,3.5031,0,0,1-.448-.545,1.311,1.311,0,0,0-.618-.621c-.091-.047-.168-.298-.215-.298a.712.712,0,0,1-.3372-.0517c-.0187-.0205-.0388-.04-.0576-.06a.1612.1612,0,0,1-.0332-.069.7869.7869,0,0,0-.2055-.4567L64.1932,11.62A28.4392,28.4392,0,0,1,72.2448,31.0309ZM23.38,11.6168l3.7016,3.7058A23.142,23.142,0,0,0,20.5828,31.03H15.3244A28.45,28.45,0,0,1,23.38,11.6168ZM30.6518,33.134a.1768.1768,0,0,1,.037-.234c.073-.078.164-.134.2739-.057.247.143.1741.451.287.685.141.251-.04.562-.157.769-.104.187-.291-.096-.3369-.258a3.587,3.587,0,0,1,.016-.608A.8741.8741,0,0,0,30.6518,33.134Zm-.0805,1.4579a.2361.2361,0,0,1,.0429-.227c.037-.018.091.04.141.052.063.044.184.03.257.114a.2531.2531,0,0,1,.074.235c-.097.113-.365.19-.4209.026C30.6342,34.7149,30.6012,34.6649,30.5713,34.5919Zm.3443,1.6774c-.04-.073-.0769-.164-.107-.23-.1939-.277-.495-.666-.237-.88a.2681.2681,0,0,1,.471.214c.3011,0,.424.389.3481.602-.0571.104-.094.141-.1411.244A.2167.2167,0,0,1,30.9156,36.2693Zm-.4341-1.9725c-.0369.108-.124.188-.174.12a.4793.4793,0,0,1-.13-.431.2713.2713,0,0,1,.1731-.247c.0169-.007.094-.007.094.04C30.4576,33.9568,30.5545,34.1328,30.4815,34.2968Zm.6853.4692c.13-.118.2441-.282.41-.235-.026.061.078.117.0271.157a.1894.1894,0,0,1-.2131.09c.02.101-.0709.178-.114.215C31.21,35.043,31.05,34.879,31.1668,34.766Zm.0057,2.296c-.1031-.033-.13-.134-.1031-.287.067.07.1031-.063.197-.014.01,0,.0541-.014.0671,0,.06.084,0,.174-.013.268C31.3205,37.099,31.2234,37.075,31.1725,37.062Zm.3786.8322c.19.117.0871.237.04.354a.3909.3909,0,0,1-.2271-.367A.8183.8183,0,0,1,31.5511,37.8942Zm-12.35,5.6264c-.09,0-.244.024-.301-.04a.2734.2734,0,0,1,0-.26C19.1444,43.0926,19.1344,43.3666,19.2014,43.5206Zm1.4247,1.173c.053.077.016.201.016.302-.297-.028-.545-.248-.4309-.452C20.2651,44.4306,20.5221,44.5536,20.6261,44.6936Zm.648,1.3014a.5289.5289,0,0,1-.478-.659C21.17,45.386,21.3181,45.61,21.2741,45.995Zm22.907-12.42a.5528.5528,0,0,1,0-.451.6761.6761,0,0,1,.3239-.164c.0411.164-.067.237-.174.331.107.06.235.183.141.284A.2521.2521,0,0,1,44.1811,33.5752ZM42.77,35.8776c.078.318-.6339.429-.912.098.398-.141-.168-.375.037-.438C42.2156,35.4436,42.6866,35.6006,42.77,35.8776Zm2.896-3.2586a.3132.3132,0,0,1,.137-.451c-.047.197.12.324.12.501a.36.36,0,0,0,.201.308c.107.026.237-.017.297.026a.3291.3291,0,0,1,0,.288C45.9926,33.385,45.8586,32.916,45.6656,32.619Zm-4.18-1.6727c-.1-.12,0-.206.134-.136.087.03.1141.11.1611.164C41.69,30.97,41.5368,31.0113,41.4858,30.9463ZM17.7671,38.4021c-.05-.056-.03-.154-.03-.227.067.094.17,0,.2569.073.061.07.161.128.114.204A.217.217,0,0,1,17.7671,38.4021Zm1.4279-.0931c-.051-.265.237-.314.458-.183.03,0,.063-.014.063,0,.094.209-.0969.263-.234.333A.1887.1887,0,0,1,19.195,38.309ZM42.0614,24.3913c0-.033.0331-.043.0741-.033,0-.124-.0211-.265.08-.271.06,0,.2,0,.2171.064.03.143-.19.169-.2441.303C42.1684,24.4773,42.0614,24.4543,42.0614,24.3913Zm.6252-.4621a.236.236,0,0,1,.2609.041c.1.083-.023.181-.057.214C42.7436,24.2852,42.59,24.0372,42.6866,23.9292ZM41.279,29.8584c-.2069.133-.622-.152-.5349-.378.0539-.141.3139-.178.4649-.098C41.37,29.4664,41.443,29.7574,41.279,29.8584Zm-.5913.8722c.043.009.08.049.11.033.1209-.033.2739-.07.354,0,.0739.047.164.164.0739.248-.1209.092-.26-.138-.4279-.138A.1124.1124,0,0,1,40.6877,30.7306Zm-.0635,1.0831c-.117-.087-.141-.305-.0269-.375.154-.09.2309-.267.388-.157.13.094.047.281,0,.411A.2549.2549,0,0,1,40.6242,31.8137Zm-.1174-.802c-.147.122-.0829.286-.147.471-.024.08-.184.116-.2169,0-.0511-.198.0629-.398.05-.609.09,0,.167-.017.2311.054a.0594.0594,0,0,1,0,.0531C40.4464,30.9771,40.4781,31.0014,40.5068,31.0117ZM42.901,42.0094c-.011-.003-.0169,0-.0269-.003h.05A.0634.0634,0,0,1,42.901,42.0094Zm2.3868-1.253a.2741.2741,0,0,1-.074.357c-.02.021-.0969.014-.0969,0a.4011.4011,0,0,1-.0741-.314C45.0608,40.6724,45.2408,40.6724,45.2878,40.7564Zm-.0069-.4516c.056.077.134.201.013.227-.1629.063-.251-.113-.1629-.254C45.144,40.2448,45.2409,40.2648,45.2809,40.3048Zm1.1969.8291a.5013.5013,0,0,1-.485.153c-.12-.036-.0869-.174-.07-.273.06,0,.151.022.184.022.1241-.033.23.035.334.035C46.4208,41.0869,46.4508,41.1269,46.4778,41.1339Zm2.0294-.3884c.036.011.0671.201.026.201-.214.073-.524.305-.719.068.044,0,.104.005.121-.011a.2288.2288,0,0,0,.057-.17C48.1792,40.8965,48.33,40.71,48.5072,40.7455Zm1.2605-.5543c-.038.217-.385.364-.4619.054-.0271-.117.1469-.117.2379-.194-.024.037-.037.077-.054.103C49.5567,40.0412,49.7677,40.0412,49.7677,40.1912Zm9.9612-6.1849c-.0491.167-.347.194-.5271.141-.1479-.054-.448-.087-.378-.254.09-.198.07-.429.341-.452C59.4818,33.4043,59.8138,33.7083,59.7289,34.0063Zm-3.5464,5.74c.104.03.114.167.0271.268a.5366.5366,0,0,1-.2851.14c-.2359,0-.206-.361-.0559-.445C55.9555,39.652,56.0755,39.709,56.1825,39.746Zm3.6-9.7848c.104.03.03.228-.0869.277-.1171.061-.2911-.049-.214-.19A.2175.2175,0,0,1,59.7829,29.9612Zm-12.59-5.924c.04-.031.1269.016.1969-.017,0,0-.0169-.05,0-.05.1841-.13.5121-.168.528.163v.041a1.93,1.93,0,0,0-.588.01C47.2362,24.2242,47.1162,24.1332,47.1933,24.0372Zm.6786,1.2261a1.2953,1.2953,0,0,1,.448-.434c.0629-.054.2129-.143.224-.277a.6579.6579,0,0,1,.3179.327c.016-.04.026-.064.039-.09,0,.04.024.11,0,.11a2.2284,2.2284,0,0,0-.845.612c-.043.073-.081.26-.154.214C47.7848,25.6353,47.8149,25.4083,47.8719,25.2633ZM45.01,23.5461c.02-.07.107-.051.154-.018.0769.051.0769.291-.0771.248C44.9631,23.7561,44.9872,23.6381,45.01,23.5461ZM37.8092,18.93c.114-.108.167-.295.371-.232l.117.023c.1231.164.338.074.475.181.073.103-.067.251-.111.251a1.8816,1.8816,0,0,1-.765-.127C37.8893,19.0258,37.7552,19.0048,37.8092,18.93ZM56.31,21.7975c.1839-.115.388-.07.5979-.115-.033-.063.0871-.033.0871-.11.037,0,.0769-.012.107.014a.085.085,0,0,1-.047.141.269.269,0,0,0-.213.213c-.0741.237.1259.429.19.649.04.167-.1241.301-.318.277v.204c-.1141-.037-.1141.124-.24.131-.0941,0-.1881.187-.0971.23.0971.087.2431.184.16.254-.2041.154-.3711.208-.3381.515a.09.09,0,0,1-.07.094c-.331.026-.739.096-.919-.148-.2409-.328.304-.497.5481-.715.06-.049,0-.23.06-.335h-.04c.04,0,.107-.019.117,0a.2139.2139,0,0,0,.315.098c.123-.056.123-.197.2641-.271.0269-.013.0269-.146,0-.174-.0941-.073-.138.161-.2351.094-.029-.026-.143-.014-.083-.094-.214.047-.3979.174-.5509-.047-.0411-.049-.047-.213.0329-.234.16-.052.3311,0,.418-.12C56.183,22.1775,56.0959,21.9005,56.31,21.7975Zm-1.9633,2.6c-.133.08-.394.197-.407-.04.11,0,.203-.063.32-.044C54.3268,24.3208,54.26,24.4308,54.3467,24.3978Zm2.9285-.5044a.0554.0554,0,0,1,.031.077c.003.013.006.036,0,.036-.1539.081-.539.081-.398-.113C56.9482,23.8194,57.1292,23.8024,57.2752,23.8934Zm.0578-1.01a.5138.5138,0,0,1,.19.007c.027.021,0,.07.01.096a.2252.2252,0,0,0,.0239.091C57.42,23.1041,57.42,22.9231,57.333,22.8831ZM49.3293,5.8174c0,.113.054.268-.004.317-.447.288-.975.068-1.437.195a2.6631,2.6631,0,0,1-1.7979.082c-.091.525.2469.9.464,1.311-.154,0-.3871.04-.448-.033a2.0471,2.0471,0,0,0-1.8081-.652c.056-.708,1.297-.626,1.775-.736a6.0437,6.0437,0,0,0,1.8451-.628C48.3833,5.3754,48.8144,6.0544,49.3293,5.8174Zm-.7319,4.8679a.8647.8647,0,0,1,.672.17c.097.086.1841.163.13.325A1.2794,1.2794,0,0,1,48.5974,10.6853Zm-.4617.9854c.2871-.124.104.164.124.305C48.15,11.8847,48.0257,11.7217,48.1357,11.6707Zm-.7624-.9622c.1809.019.3979.08.3979.294,0,.033.014.07,0,.077a.2438.2438,0,0,1-.12,0c-.1239-.077-.154-.161-.261-.214C47.3572,10.8545,47.3733,10.7515,47.3733,10.7085Zm2.08,2.2726c.013-.026.0669-.013.1,0,.0931.064.003.167.0431.237v-.033a.1672.1672,0,0,1-.0431.188c-.033.037-.1.002-.114-.028C49.4394,13.2181,49.3254,13.0981,49.4535,12.9811Zm.6876.6153a.2194.2194,0,0,1-.056-.221c.02.061.127-.08.107.061,0,.06,0,.089.053.126A.078.078,0,0,1,50.1411,13.5964Zm-.4942-.0336c.094-.11.26-.019.3511.094a.2934.2934,0,0,1,.04.06c-.013-.013-.03-.027-.046-.04-.004.01-.014.027-.014.029-.0269.118-.117.248-.1469.152C49.7679,13.6868,49.5439,13.6868,49.6469,13.5628Zm.4183.3653h.0769c.153,0,.3241-.051.4441.026.0769.05-.013.2-.0871.251a.4739.4739,0,0,1-.478-.201C49.9781,13.94,50.1281,13.9681,50.0652,13.9281Zm.7348.3875c-.1061-.064-.0531-.237.021-.277.0769-.071.14.033.18.143.0071.05.0831.113,0,.16A.1893.1893,0,0,1,50.8,14.3156Zm.2846.344a.23.23,0,0,1,.0431-.267c.0429-.047.1309-.007.1909.04.013.026-.0139.063,0,.063.0671.057.14-.037.194-.016a.1209.1209,0,0,1,.066.183c0,.044-.02.061-.066.044,0,.043.017.117-.014.117-.05.04-.167.127-.2069.083A1.3108,1.3108,0,0,1,51.0846,14.66Zm-.8562-9.3171c-.0169.009-.047.027-.047.033,0,.023.03.037.047.037-.143.103-.257,0-.334-.124C50.0114,5.3115,50.1284,5.2345,50.2284,5.3425Zm7.8235,5.2309a.217.217,0,0,1-.235.178c-.1971,0-.2841-.211-.3971-.34-.114-.122-.348,0-.455-.101a4.3188,4.3188,0,0,1-.365-.351c-.083-.09-.083-.317.114-.317a3.0186,3.0186,0,0,1,.923.082A.83.83,0,0,1,58.0519,10.5734Zm3.2962,14.3959c.033.153.163.247.2271.385a.8671.8671,0,0,1-.023.418c-.0741.264-.505.464-.5721.213-.201-.615-.164-1.37-.625-1.898a.5025.5025,0,0,1-.07-.381c.023-.127.16-.091.274-.091.247,0,.568.047.591.344a3.3614,3.3614,0,0,0,.02.495C61.2,24.6413,61.3141,24.7753,61.3481,24.9693Zm-.9028-2.22c.03-.019.0671,0,.087,0-.0169.141-.057.401.1861.389-.029.063-.029.223-.159.162h-.0841C60.5323,23.0776,60.2414,22.9106,60.4453,22.75Zm-.3913-.16c-.0239,0-.0239-.061-.057-.061-.151-.061-.301-.241-.16-.351.11-.107.3109-.057.3379-.261.146.024.1731.154.16.284.0459,0,.11-.017.11,0A.2866.2866,0,0,1,60.054,22.59Zm-.4945-.8463c-.194-.08.05-.348-.2009-.495-.1031-.07.1229-.157.177-.274.044-.094-.07-.195-.0071-.27a.1377.1377,0,0,1,.188-.091c.047.007.023.091.06.127.11.173-.261.278-.06.414a.1759.1759,0,0,0,.12.061c-.0169.106-.023.258.06.267.208.014.315.2.211.277A.497.497,0,0,1,59.56,21.7437ZM59.268,20.62a.1359.1359,0,0,1-.214-.094c-.04-.117-.23.014-.3-.117a.73.73,0,0,0-.1881-.237c-.077-.07,0-.141.067-.234.02-.017.02-.054.05-.071.0371-.023.1311-.023.141,0,.093.204.277.091.394.141.11.04.05.178.02.274.047-.07.017.08.077.04C59.285,20.4094,59.365,20.5764,59.268,20.62ZM45.0069,28.9813c-.0471-.143.0929-.22.16-.143.047.047.121.143.074.211a.2188.2188,0,0,0-.047.143h-.0769a.2341.2341,0,0,1-.04-.211ZM70.284,66.4075s-3.3431,2.889-10.09,2.889c-6.752,0-9.323-3.404-14.01-3.404a9.1856,9.1856,0,0,0-.9862.0584c4.2024,1.5362,7.688,3.9413,9.25,6.2506l-1.344.678a17.1039,17.1039,0,0,0-9.3157-6.673,17.0758,17.0758,0,0,0-9.3261,6.673l-1.33-.678c1.56-2.31,5.0457-4.7151,9.2458-6.2514a9.1369,9.1369,0,0,0-.9779-.0576c-4.6841,0-7.2681,3.404-14.011,3.404-6.763,0-10.11-2.889-10.11-2.889,3.2871,2.34,11.564-2.082,19.2-2.082a25.1607,25.1607,0,0,1,7.3075,1.15,25.1084,25.1084,0,0,1,7.2978-1.15C58.74,64.3255,67.011,68.7475,70.284,66.4075Zm6.4251-8.7128s-4.406,7.356-12.333,7.356a42.8447,42.8447,0,0,1-7.144-1.278,9.7092,9.7092,0,0,0,3.394-3.787,29.1465,29.1465,0,0,1,7.334-8.769s-3.47,10.948-7.04,11.437c0,0-.565.34.441.174,1.013-.174,5.5791-1.853,7.208-2.134,1.6081-.274,5.573-1.17,6.635-2.23C76.1042,57.5707,76.7091,57.6947,76.7091,57.6947Zm5.1352-10.83s-2.394,12.282-15.2379,13.121a7.9545,7.9545,0,0,0,1.0029-3.474c.1741-2.172,1.511-7.187,5.316-12.663,0,0,.554,8.655-3.758,13.961,0,0-.261.772.294.207a48.2964,48.2964,0,0,1,9.157-7.813S81.67,47.6926,81.8443,46.8646Zm2.46-10.7128a12.5216,12.5216,0,0,1-2.396,8.235c-2.963,4.269-4.1859,3.524-5.804,5.261,0,0-1.849,2.244-2.056,2.12a13.2535,13.2535,0,0,0,.327-2.561c0-1.179-.504-5.195-.504-6.987s.177-5.128,1.5571-7.391a8.9141,8.9141,0,0,0,.445,2.892,22.9335,22.9335,0,0,1,.953,4.891,15.29,15.29,0,0,1-.8961,5.081,3.7969,3.7969,0,0,0,1.18-1.494,25.2288,25.2288,0,0,1,4.4129-5.644A10.3176,10.3176,0,0,0,84.3042,36.1518Zm.83-9.0414c-.1009,3.189-.943,8.715-6.4759,15.009a11.22,11.22,0,0,0-.5421-3.239,21.0359,21.0359,0,0,1-2.57-11.824s.4411-.394,1.28,2.009c.823,2.404,2.016,3.119,2.397,5.527a23.4092,23.4092,0,0,1,.405,3.393s.2671.333.2671.059a20.395,20.395,0,0,1,1.628-6.465c1.331-2.955,3.1129-5.751,2.9519-7.714C84.4751,23.8654,85.2572,23.9294,85.1341,27.11Zm-5.79-13.508s2.179.338,3.339,9.494a21.32,21.32,0,0,1-1.725,7.203s-.562,2.049-.8289,2.049a16.03,16.03,0,0,0-1.6321-2.959c-.668-.708-5.3079-7.472-5.686-10.548,0,0,.3781-.207.8291.562a26.6523,26.6523,0,0,0,3.0689,3.353c.401.34,2.741,2.851,2.9621,5.524,0,0,.224.284-.2211-4.187C79.0093,19.6334,80.9084,16.7424,79.3443,13.6024Zm-3.6416.2751a30.5244,30.5244,0,0,0-1.7751-6.245s4.289,2.451,4.915,9.37a49.2553,49.2553,0,0,1-.3979,5.313,19.7977,19.7977,0,0,0-3.1331-2.624c-1.384-.85-5.737-5.139-6.519-8.492,0,0,.281-.371,1.672,1.454,1.063,1.404,2.166.719,5.359,4.748,0,0,.448.898.672.825.214-.037-.1179-.936-.1179-.936A31.4632,31.4632,0,0,1,75.7027,13.8775Zm-8.609-8.0406c7.9539,3.066,7.6629,9.1,7.6629,9.1a20.175,20.175,0,0,0-2.842-2.116C69.8487,11.4829,67.0937,5.8369,67.0937,5.8369ZM23.2,65.0507c-7.9361,0-12.346-7.356-12.346-7.356s.6179-.124,1.5069.769c1.067,1.06,5.0291,1.956,6.6461,2.23,1.6189.281,6.1989,1.96,7.2079,2.134,1.0031.166.449-.174.449-.174-3.588-.489-7.0449-11.437-7.0449-11.437a28.8963,28.8963,0,0,1,7.3089,8.769,9.8709,9.8709,0,0,0,3.4231,3.787A43.0459,43.0459,0,0,1,23.2,65.0507Zm-2.24-5.0651c-12.831-.839-15.2309-13.121-15.2309-13.121.16.828,3.2229,3.339,3.2229,3.339a48.4539,48.4539,0,0,1,9.166,7.813c.562.565.268-.207.268-.207-4.29-5.306-3.728-13.961-3.728-13.961,3.791,5.476,5.135,10.491,5.299,12.663A8.0024,8.0024,0,0,0,20.96,59.9856ZM5.6722,44.3868a12.579,12.579,0,0,1-2.404-8.235,10.5,10.5,0,0,0,2.792,4.403,25.6439,25.6439,0,0,1,4.3959,5.644,3.9566,3.9566,0,0,0,1.186,1.494,15.0237,15.0237,0,0,1-.8949-5.081,22.9265,22.9265,0,0,1,.9529-4.891,8.9327,8.9327,0,0,0,.444-2.892c1.394,2.263,1.561,5.6,1.561,7.391s-.501,5.808-.501,6.987a12.993,12.993,0,0,0,.334,2.561c-.221.124-2.066-2.12-2.066-2.12C9.8441,47.9108,8.6271,48.6558,5.6722,44.3868Zm3.2326-2.2674c-5.53-6.294-6.368-11.82-6.482-15.009-.1139-3.181.672-3.245.672-3.245-.1679,1.963,1.632,4.759,2.965,7.714a20.816,20.816,0,0,1,1.621,6.465c0,.274.268-.059.268-.059a24.2174,24.2174,0,0,1,.391-3.393c.408-2.408,1.565-3.123,2.4071-5.527.836-2.403,1.28-2.009,1.28-2.009A21.1521,21.1521,0,0,1,9.46,38.88,11.4986,11.4986,0,0,0,8.9048,42.1194Zm-2.2934-11.82a21.4464,21.4464,0,0,1-1.732-7.203c1.18-9.156,3.3631-9.494,3.3631-9.494-1.5641,3.14.318,6.031-.1141,10.491-.447,4.471-.244,4.187-.244,4.187.244-2.673,2.571-5.184,2.969-5.524a25.3723,25.3723,0,0,0,3.0691-3.353c.4419-.769.846-.562.846-.562-.4041,3.076-5.018,9.84-5.6931,10.548a15.5238,15.5238,0,0,0-1.628,2.959C7.1764,32.3484,6.6114,30.2994,6.6114,30.2994Zm2.5174-7.9839a46.5841,46.5841,0,0,1-.3811-5.313c.595-6.919,4.9041-9.37,4.9041-9.37a30.9328,30.9328,0,0,0-1.7921,6.245,29.4882,29.4882,0,0,1-.665,3.413s-.341.899-.107.936c.224.073.672-.825.672-.825,3.1661-4.029,4.289-3.344,5.349-4.748C18.5027,10.8285,18.79,11.2,18.79,11.2c-.7951,3.353-5.138,7.642-6.5351,8.492A19.453,19.453,0,0,0,9.1288,22.3155ZM20.4554,5.8369s-2.732,5.646-4.794,6.984a20.175,20.175,0,0,0-2.842,2.116S12.5284,8.9029,20.4554,5.8369Z"/></svg>