<svg viewBox="0 0 621.7 600" xmlns="http://www.w3.org/2000/svg"><ellipse cx="286.54" cy="284.43" fill="#d4f0f3" rx="189.11" ry="236.58" transform="matrix(.40657719 -.91361643 .91361643 .40657719 -89.81 430.59)"/><g fill="#95a8d1"><rect height="8.88" rx="1.82" width="231.57" x="245.44" y="77.86"/><rect height="8.88" rx="1.82" width="61.08" x="245.44" y="93.66"/><rect height="8.88" rx="2.87" width="151.83" x="282.99" y="123.05"/><rect height="8.88" rx="2.36" width="102.18" x="282.99" y="160.92"/><rect height="8.88" rx="2.63" width="127.45" x="282.99" y="198.79"/></g><circle cx="219.04" cy="90.2" fill="#64c0ff" r="12.34"/><rect fill="#d4f0f3" height="25.85" rx="5.47" width="25.85" x="245.44" y="114.56"/><path d="m265.82 141.32h-14.92a6.38 6.38 0 0 1 -6.37-6.38v-14.94a6.39 6.39 0 0 1 6.37-6.38h14.92a6.39 6.39 0 0 1 6.38 6.38v14.92a6.38 6.38 0 0 1 -6.38 6.4zm-14.92-25.85a4.55 4.55 0 0 0 -4.55 4.55v14.92a4.56 4.56 0 0 0 4.55 4.56h14.92a4.56 4.56 0 0 0 4.56-4.56v-14.94a4.56 4.56 0 0 0 -4.56-4.55z" fill="#52c5d0"/><rect fill="#fff" height="25.85" rx="5.47" width="25.85" x="245.44" y="152.43"/><path d="m265.82 179.19h-14.92a6.38 6.38 0 0 1 -6.37-6.38v-14.92a6.38 6.38 0 0 1 6.37-6.37h14.92a6.38 6.38 0 0 1 6.38 6.37v14.92a6.38 6.38 0 0 1 -6.38 6.38zm-14.92-25.85a4.55 4.55 0 0 0 -4.55 4.55v14.92a4.56 4.56 0 0 0 4.55 4.56h14.92a4.56 4.56 0 0 0 4.56-4.56v-14.92a4.56 4.56 0 0 0 -4.56-4.55z" fill="#95a8d1"/><rect fill="#fff" height="25.85" rx="5.47" width="25.85" x="245.44" y="190.3"/><path d="m265.82 217.06h-14.92a6.38 6.38 0 0 1 -6.37-6.37v-14.92a6.38 6.38 0 0 1 6.37-6.38h14.92a6.38 6.38 0 0 1 6.38 6.38v14.92a6.38 6.38 0 0 1 -6.38 6.37zm-14.92-25.85a4.56 4.56 0 0 0 -4.55 4.56v14.92a4.55 4.55 0 0 0 4.55 4.55h14.92a4.56 4.56 0 0 0 4.56-4.55v-14.92a4.56 4.56 0 0 0 -4.56-4.56z" fill="#95a8d1"/><path d="m257.92 133.4 9.47-12.4a1.17 1.17 0 0 0 -.08-1.28 4.43 4.43 0 0 0 -6.1.9l-5.91 7.81c-.24.27-.5.28-.52 0l-2.48-2.65a1.22 1.22 0 0 0 -1.79.11 4.63 4.63 0 0 0 .12 5.88l2.19 2.18c1.12 1.5 3.67 1.33 5.1-.55z" fill="#52c5d0"/><path d="m225.35 385.56c-1.27-15 13.18-36.14 19.33-37.06s-5.86 22.85-3.64 27.63 8.31 5.42 9.17 15.19a18.53 18.53 0 0 1 -5.26 15.1z" fill="#fff"/><path d="m237.9 382.29c21.69-26.44 38.78-45.5 42.28-41.14s-21.77 35.5-21.14 38.26 22.44-20.88 29-18 1.75 19 2.62 27.33-14.4 27.06-21.82 32.29-31.43 20-38.41 17.85-5.57-40.7 7.47-56.59z" fill="#fff"/><path d="m241.89 378.47a1.1 1.1 0 0 1 -.66-.23 1 1 0 0 1 -.13-1.45c11-13.3 19-22.28 25-28.26a1 1 0 0 1 1.4 1.47c-6 5.93-13.84 14.87-24.82 28.12a1 1 0 0 1 -.79.35z" fill="#333847"/><path d="m121.85 349.44c32.19-24.14-.93-45.73-1.59-76.08s3-56.18 37.26-65.52 61.41-2.74 77.23 26.93c12.84 24.07 17.74 69.15 7.2 88.24s-27.51 16.83-37.37 33.07c-6.57 10.83-6.89 28.75-6.89 28.75z" fill="#fff"/><path d="m121.85 350.47a1 1 0 0 1 -.82-.41 1 1 0 0 1 .2-1.44c11.6-8.69 15.45-17.3 12.88-28.77a1 1 0 1 1 2-.45c2.74 12.22-1.47 21.74-13.65 30.86a1 1 0 0 1 -.61.21z" fill="#333847"/><path d="m242.9 256.52c9.34 6.29 14.75 20.44 14 24.56s-7.38 3.72-9.18 6-4.82-30.56-4.82-30.56z" fill="#fff"/><path d="m121.4 248.59c-13.15-.4-15.5 9.29-16.9 14.07s-8.56 4.58-9 11.15.8 16.14 6.57 19.52.2 4.38.6 12.75 4.18 16.93 15.54 20.12 14.54-.6 22.51-4.38 3-4.39 12.15-1.6 17.92-1.39 19.92-4 .39-29.74 7.17-29 9 7.1 9.16 10.68-2 17.33 0 23.51 7.37 7 8.56 1.19 6.18-26.49 6.78-33.46-2-17.93-7.17-19.32-9.24 2.39-13.39 1-7.33-13.06-13.9-14.3-37.89 5.19-47.81 2.35c-1.99-.58-.79-10.28-.79-10.28z" fill="#d4bcfc"/><path d="m125.79 328.43a29.07 29.07 0 0 1 -7.82-1.24c-10-2.81-15.77-10.29-16.28-21.06a16.84 16.84 0 0 1 1.45-7.8c.86-2.15 1-2.6-1.55-4.11-5.92-3.48-7.54-12.85-7.07-20.47.25-4.2 2.94-6 5.31-7.54 1.71-1.13 3.18-2.1 3.69-3.84l.14-.47c1.38-4.79 4.21-14.75 17.77-14.33a1 1 0 0 1 1 1.05 1 1 0 0 1 -1 1c-12-.39-14.32 7.9-15.74 12.85l-.14.47c-.72 2.46-2.66 3.75-4.53 5-2.26 1.49-4.2 2.78-4.4 5.95-.4 6.69.94 15.57 6.07 18.58 3.83 2.24 3.47 4 2.41 6.64a14.93 14.93 0 0 0 -1.3 6.94c.33 7 3.16 15.92 14.78 19.18 8.88 2.49 12.41.6 17.76-2.25 1.25-.67 2.55-1.36 4-2.07a26.76 26.76 0 0 0 4.31-2.49c1.85-1.3 2.27-1.16 5.56-.11.79.26 1.77.57 3 .95a1 1 0 0 1 -.6 2c-1.26-.38-2.25-.7-3.05-.95-2.74-.89-2.74-.89-3.75-.18a27.87 27.87 0 0 1 -4.61 2.67c-1.45.69-2.72 1.37-3.95 2-3.79 1.99-6.86 3.63-11.46 3.63z" fill="#333847"/><path d="m70.1 495.11c-11.06-65 2.57-117.57 29.32-137s62.56-12.82 91.05-1.5 45.68 28 55.57 37.66 19.88 41.4 22.79 57 5.6 49.71 16.15 62.1-51.47 9.15-79.39 4.84-94.2-40.34-135.49-23.1z" fill="#a1d2f7"/><path d="m70.1 496.13a1 1 0 0 1 -1-.85c-5.33-31.3-5.16-61 .49-86 5.46-24.11 15.57-42.08 29.24-52 12.31-8.93 27.52-13.13 45.2-12.48a1 1 0 0 1 1 1.07 1 1 0 0 1 -1.07 1c-17.21-.63-32 3.43-43.92 12.09-27.71 20.09-39.33 74.73-28.91 136a1 1 0 0 1 -.84 1.18z" fill="#333847"/><path d="m120.75 255.08h-.1a1 1 0 0 1 -.93-1.12c1.61-17.6 7.32-38.87 37.53-47.11a1 1 0 1 1 .54 2c-22.93 6.25-33.7 19.81-36 45.32a1 1 0 0 1 -1.04.91z" fill="#333847"/><path d="m231.39 250.83a33.08 33.08 0 0 1 .9 11.3.67.67 0 0 1 -1.31.1 33.46 33.46 0 0 1 -.84-11.32.64.64 0 0 1 1.25-.08z" fill="#333847"/><ellipse cx="178.19" cy="302.07" fill="#fff" rx="10.35" ry="14.84"/><path d="m174.79 317.13a1 1 0 0 1 -.45-.11c-4.5-2.24-7.53-8.25-7.53-14.95 0-8.75 5.11-15.87 11.38-15.87a9.25 9.25 0 0 1 6.46 2.8 1 1 0 0 1 -1.42 1.48 7.25 7.25 0 0 0 -5-2.23c-5.14 0-9.32 6.2-9.32 13.82 0 5.94 2.56 11.21 6.38 13.11a1 1 0 0 1 -.46 1.95z" fill="#333847"/><path d="m217.2 521a1 1 0 0 1 -1-.86c0-.11-1.82-10.92-8.92-30.55a105.81 105.81 0 0 1 -4.13-15.18c-1.3-6.18-2.09-9.91-5.85-11.83a1 1 0 0 1 -.45-1.38 1 1 0 0 1 1.38-.45c4.64 2.36 5.55 6.69 6.93 13.24a102.35 102.35 0 0 0 4 14.9c7.18 19.84 9 30.82 9 30.92a1 1 0 0 1 -.85 1.18z" fill="#333847"/><path d="m335.46 429.51c3.2-53.47 45.24-56.22 45.77-70.34s-19.11-18.63-30.31-42.91-18.7-59.05-7.51-81.89 38.92-46.44 64.17-39.89c36.78 9.55 58.09 34.25 75.65 117 3.55 16.69 2.4 18 33 34.34 20.91 11.19 35.19 26.07 47 43.41a8.21 8.21 0 0 1 -4.6 12.48c-47.77 13.73-70.24 44.44-117.24 54.05-45.17 9.24-107.21 24.04-105.93-26.25z" fill="#00599d"/><path d="m563.22 390.24a1 1 0 0 1 -.85-.45c-13.28-19.47-28.1-33.16-46.64-43.08-29.49-15.78-30-18-33-32.67-.16-.76-.32-1.55-.5-2.37-5.58-26.26-11.56-46.76-18.29-62.69a1 1 0 0 1 .55-1.35 1 1 0 0 1 1.34.55c6.78 16.05 12.8 36.68 18.41 63.06.17.83.34 1.62.49 2.38 2.94 14.14 3.32 16 32 31.28 18.85 10.08 33.91 24 47.38 43.74a1 1 0 0 1 -.27 1.42 1 1 0 0 1 -.62.18z" fill="#333847"/><path d="m347.36 242.21c12.45-17.23 46.9-5 62.88 20 6.21 9.7 8.8 25.05 6.21 41.73-1.68 10.81-7.58 34.65-22 37.24-32.31 5.8-45.09-37.62-49.74-53.92-3.71-12.99-4.71-34.88 2.65-45.05z" fill="#e8f4ff"/><path d="m388.67 342.7a30.2 30.2 0 0 1 -18.67-6.49 1 1 0 1 1 1.25-1.63 28.31 28.31 0 0 0 23 5.56c15.21-2.73 20.32-30.79 21.18-36.39a82.7 82.7 0 0 0 1-12 1 1 0 0 1 1-1 1 1 0 0 1 1 1 82.45 82.45 0 0 1 -1 12.34 89.69 89.69 0 0 1 -6.3 22c-4.35 9.5-9.91 14.93-16.54 16.12a33.84 33.84 0 0 1 -5.92.49z" fill="#333847"/><path d="m414.24 480-74.24 1.85a8.2 8.2 0 0 1 -8.23-6.5l-22.77-107.13a8.21 8.21 0 0 1 7.82-9.91l74.27-1.88a8.21 8.21 0 0 1 8.23 6.5l22.74 107.14a8.2 8.2 0 0 1 -7.82 9.93z" fill="#7386b9"/><path d="m306 495.16a307.18 307.18 0 0 0 39.91-13.31l-30.93-26.11c-11.23 10.73-26.78 30.25-30.18 44.1q10.53-1.95 21.2-4.68z" fill="#00599d"/><path d="m306.09 446.68c.91-18.44 2.22-26 3.51-31.57s20.13-12.42 26.4-13.41c7-1.1-12.31 13.13-12.29 21.79 0 4.13 18.49-2.39 27.73-1.33s17.28 4.36 16.86 7.44-13 10.85-15.85 20.94-5.76 31.15-20.51 33.12-26.46-24.5-25.85-36.98z" fill="#e8f4ff"/><path d="m320.78 480.74a.93.93 0 0 1 -.6-.22c-9.17-7.67-15.5-24.21-15-33.89.94-19.2 2.32-26.44 3.53-31.73 1.38-6 18.5-11.73 20.45-12.36a.93.93 0 1 1 .57 1.77c-8.95 2.9-18.42 7.61-19.2 11-1.19 5.2-2.55 12.36-3.48 31.4-.45 9 5.72 25.16 14.35 32.37a.93.93 0 0 1 .12 1.31 1 1 0 0 1 -.74.35z" fill="#333847"/><path d="m240.47 303.92c-5.57-.22-11.37 4.22-7.67 7s7.67-7 7.67-7z" fill="#fff"/><path d="m234.18 312.4a3.29 3.29 0 0 1 -2-.69 3.34 3.34 0 0 1 -1.39-3.92c1-2.77 5.48-5.06 9.71-4.9a1 1 0 0 1 .82.47 1 1 0 0 1 .09.94c-.29.72-2.95 7-6.34 8a3.11 3.11 0 0 1 -.89.1zm4.66-7.39c-2.94.38-5.59 2-6.1 3.46-.14.4-.19.95.67 1.59a1.2 1.2 0 0 0 1.12.24c1.47-.42 3.2-3.05 4.31-5.3z" fill="#333847"/><path d="m248.72 386.52a1 1 0 0 1 -.92-.58 15.9 15.9 0 0 0 -4-4.92 14.37 14.37 0 0 1 -3.66-4.46c-1.07-2.31.25-7 2.56-14.45 1.4-4.55 3.52-11.41 2.53-12.56-.06-.07-.26-.06-.37 0-4.29.65-14.38 13.87-17.56 26.81a1 1 0 0 1 -1.25.75 1 1 0 0 1 -.75-1.24c2.78-11.3 12.81-27.38 19.26-28.35a2.33 2.33 0 0 1 2.23.73c1.65 1.92.26 6.76-2.13 14.5-1.55 5-3.48 11.23-2.66 13a12.53 12.53 0 0 0 3.19 3.81 17.79 17.79 0 0 1 4.49 5.54 1 1 0 0 1 -.48 1.37 1 1 0 0 1 -.48.05z" fill="#333847"/><path d="m378.17 271.84a33.08 33.08 0 0 1 .9 11.3.67.67 0 0 1 -1.31.1 33.46 33.46 0 0 1 -.84-11.32.64.64 0 0 1 1.25-.08z" fill="#333847"/><path d="m351.2 271.84a33.08 33.08 0 0 1 .9 11.3.67.67 0 0 1 -1.31.1 33.2 33.2 0 0 1 -.83-11.32.63.63 0 0 1 1.24-.08z" fill="#333847"/><path d="m362.81 308.84a5.89 5.89 0 0 1 -3.68-1.09c-2.2-1.65-2.38-4.72-2.51-7v-.71a1 1 0 0 1 2.05-.14v.74c.11 1.94.25 4.37 1.69 5.44 1 .76 2.67.88 4.94.36a1 1 0 0 1 .46 2 13.13 13.13 0 0 1 -2.95.4z" fill="#333847"/><path d="m384.08 314.76c-8.39 1.49-16.23 1.34-17.22 4.46-.36 1.14 4.33 9.52 11.15 6.18 5.67-2.77 6.07-10.64 6.07-10.64z" fill="#fff"/><path d="m374.84 327.08a8.29 8.29 0 0 1 -5.44-2.19c-2.1-1.8-3.78-4.75-3.4-5.94.89-2.82 5.26-3.37 11.31-4.13 2.13-.27 4.33-.54 6.61-.95l1.12-.19-.06 1.13c0 .34-.49 8.43-6.57 11.4a8.09 8.09 0 0 1 -3.57.87zm-7.09-7.66a9.6 9.6 0 0 0 3.95 4.93 5.86 5.86 0 0 0 5.92.24c3.89-1.91 5.08-6.57 5.42-8.74-1.92.31-3.81.55-5.5.76-4.71.6-9.15 1.16-9.79 2.81z" fill="#333847"/><path d="m410.39 377.15a1 1 0 0 1 -.36-2c20.89-7.73 36.76-23.67 39.15-27.26a1 1 0 0 1 1.43-.28 1 1 0 0 1 .28 1.42c-3.32 5-20.14 20.64-40.14 28a1.13 1.13 0 0 1 -.36.12z" fill="#333847"/><path d="m486.81 393.82a4.11 4.11 0 0 0 -4.08-4.61h-36.73a4.1 4.1 0 0 0 -4.07 3.61l-.35 2.81h45z" fill="#64c0ff"/><path d="m441.61 395.63-2.67 21.75a4.1 4.1 0 0 0 4.06 4.62h36.7a4.11 4.11 0 0 0 4.08-3.6l2.79-22.75z" fill="#e8f4ff"/><ellipse cx="357.6" cy="398.15" fill="#f1f4fc" rx="11.18" ry="12.99" transform="matrix(.89547883 -.44510411 .44510411 .89547883 -139.85 200.81)"/></svg>