<svg viewBox="0 0 621.7 600" xmlns="http://www.w3.org/2000/svg"><ellipse cx="310.85" cy="300" fill="#d4f0f3" rx="189.11" ry="236.58" transform="matrix(.40657719 -.91361643 .91361643 .40657719 -89.61 462.04)"/><path d="m477.26 384.66c-11.24-15.57-36.44-29-49.88-42.39-15.87 2.93-50.5 28.05-50.5 28.05s-10.13-11.85-9.69-40.25c-2.06 1.76-4.58 2.79-8.15 3.81-7.59 2.17-33.86 6.55-44.07 30.2a189.65 189.65 0 0 0 -13 45.13s-11.84 65.46-11.47 70.72 24.36 11 71.16 5.21c39.84-4.91 91.17-30.8 108-35.69 9.8-2.84 13.6-1.15 13.6-1.15s8.63-43.39-6-63.64z" fill="#52c5d0"/><path d="m525.76 348.51c-3.76-15.31 23.74-61.51.36-67.41s-64.11-5.5-68.33 30.75c-2.67 9.89-4.61 17.16 2.47 23.14 5.77 4.87.19 21.46 25.69 29.94 17.15 5.7 11.4 26.3 8.11 30 8-5.4 27.58-13.68 42.22-18.3-10.06-12.97-7.58-16.23-10.52-28.12z" fill="#fff"/><path d="m494.06 395.86a.94.94 0 0 1 -.6-.23.9.9 0 0 1 -.07-1.27c1.73-2 4.75-10.43 2.73-17.92-1.41-5.23-4.93-8.82-10.45-10.66-18.2-6-21-16.08-23-23.41-.82-3-1.47-5.39-3-6.69-6.8-5.74-5.7-12.68-3.71-20.49a.9.9 0 0 1 1.75.44c-2.24 8.75-2.36 14 3.12 18.67 2 1.67 2.73 4.41 3.6 7.59 1.9 6.94 4.51 16.44 21.79 22.18 6 2 10.07 6.13 11.63 11.91 2.18 8.06-.88 17-3.13 19.57a.85.85 0 0 1 -.66.31z" fill="#333847"/><path d="m548.44 390.67c-5.37-5.76-9.28-10.29-12.16-14-14.64 4.62-34.24 12.9-42.22 18.3-3.29 3.72-34.91 42.8-39.52 80.51-.41 3.38-.24 7.25.52 6.6 87.31-74.16 115.21-50.42 115.21-50.42s2.26-15.12-21.83-40.99z" fill="#a1d2f7"/><path d="m454.54 476.37h-.11a.9.9 0 0 1 -.78-1c4.88-40 39.39-80.6 39.74-81l.17-.15c8.58-5.81 28.72-14.08 42.45-18.41l.6-.19.38.5c1.47 1.89 3.14 3.92 5.12 6.2a.9.9 0 1 1 -1.36 1.18c-1.83-2.11-3.4-4-4.79-5.79-15.18 4.85-33.9 13-41.3 17.94-1.75 2.07-34.52 41.38-39.22 79.94a.91.91 0 0 1 -.9.78z" fill="#333847"/><path d="m288.47 203.04-.82-1.37 92.62-55.44-50.03-70.05 1.3-.93 51.03 71.46-.74.45z" fill="#95a8d1"/><path d="m427.38 342.27c-4.05-4-7-8.09-8.25-12.2-5.25-17.8 10.15-33.34 17.25-59.8 8.25-30.76 2.36-57.65-29.57-63-27.57-4.58-40.6 15.85-43.86 24.75s-7.38 34.3-7.16 54.28 21.49 24.53 17.58 33.86c-2.07 4.95-3.84 7.88-6.18 9.87-.44 28.4 9.69 40.25 9.69 40.25s34.63-25.08 50.5-28.01z" fill="#d99abf"/><path d="m290.48 480.83a.91.91 0 0 1 -.9-.84c-.38-5.3 11-68.26 11.48-70.94a192.32 192.32 0 0 1 13.09-45.33c9.38-21.75 32.2-27.53 42-30 1-.26 2-.49 2.7-.7 3.2-.92 5.76-1.89 7.81-3.64l1.52-1.29v2c-.38 24 7 36.15 9 39 1.58-1.13 5.65-4 10.87-7.46a.9.9 0 0 1 1.25.26.89.89 0 0 1 -.25 1.24c-6.71 4.44-11.49 7.9-11.53 7.93l-.68.49-.54-.63c-.41-.49-9.91-11.94-9.91-39a25.68 25.68 0 0 1 -7 2.88c-.75.21-1.68.45-2.75.72-9.49 2.4-31.71 8-40.74 29a190.88 190.88 0 0 0 -13 44.9c-4.1 22.65-11.75 66.47-11.46 70.53a.9.9 0 0 1 -.83 1z" fill="#333847"/><path d="m218.89 431.65-22.68 11.89s7.76 34.31 11.15 32.33c13.46-7.87 16.91-16.19 23.58-21.53-7.94.03-13.31-15.86-12.05-22.69z" fill="#fff"/><path d="m268.65 402.79c-19.43 5.16-29.18 24.24-48.22 28l-1.54.82c-1.26 6.83 4.06 22.72 12.05 22.69a22.35 22.35 0 0 1 6.52-3.67c3.73-1.35 6.33 1.27 14 1.56s13.71-.92 13.71-2.07 10.57-47.38 10.57-47.38-4.6-.62-7.09.05z" fill="#d4bcfc"/><path d="m324.6 374-56.05-7.18a7.19 7.19 0 0 0 -8 5.84l-15.21 82.87a7.2 7.2 0 0 0 6.17 8.44l56 7.19a7.21 7.21 0 0 0 8-5.85l15.2-82.86a7.2 7.2 0 0 0 -6.11-8.45z" fill="#7386b9"/><path d="m308.49 467.57a2.37 2.37 0 0 1 -.46 0l-56-7.18a3.61 3.61 0 0 1 -3.09-4.22l15.21-82.87a3.59 3.59 0 0 1 3.53-2.95h.47l56 7.19a3.58 3.58 0 0 1 3.08 4.22l-15.23 82.86a3.6 3.6 0 0 1 -3.54 2.95z" fill="#fff"/><path d="m220.43 430.83c12.09-7.42 21.66-22.39 28.79-22.88s14 4.19 21.56 5.39 9.06 2.52 7 5.82-10.62 2.45-14.13 2.11-5-1.94-6.67-.68-5.16 12.24-10.7 12.22c-2.94 0-25.85-1.98-25.85-1.98z" fill="#d4bcfc"/><path d="m226 240.58c9.78 18.13 8.72 25.47 8.72 29.12a34.27 34.27 0 0 0 5.58 19.84c5.47 8.21-7.15 10.64-7.15 10.64s-3.5 24.94-14.44 31-26.76 3.34-30.71 10.34-5.17 21.59-4 34.36-35.64-35.88-35.64-35.88c7.95-19.61-5.7-37.34-9.05-58.33s2.74-47.43 29.8-53.21 51.76 2.67 56.89 12.12z" fill="#d4bcfc"/><path d="m150.52 332.72h-.12a.9.9 0 0 1 -.77-1c1.16-8.86-1.41-17.46-4.38-26.22a.9.9 0 0 1 1.7-.58c3.05 9 5.68 17.79 4.46 27a.9.9 0 0 1 -.89.8z" fill="#333847"/><path d="m152.69 302.13c7 35.15 37.71 68 68.42 61s15.2-43.79 10.64-49-36.79 7.33-47.13 4.88-19.46-16.43-20.68-24.34-11.25 7.46-11.25 7.46z" fill="#7386b9"/><path d="m232.69 300.8c5.69-.25 3.75 12.62-.75 14s-25.29 6.3-28.34 6.13 7.97-19.16 29.09-20.13z" fill="#333847"/><path d="m146.31 308.09c3.93 9.61 86.35-53.21 88.18-57.78s4.86-37.09-30.1-49.56-74.9 24.51-75.11 55.65c-.13 18.6 8.82 31.6 17.03 51.69z" fill="#f1f4fc"/><g fill="#333847"><path d="m148.28 310a3.89 3.89 0 0 1 -1.35-.21 2.39 2.39 0 0 1 -1.46-1.35c-2.08-5.08-4.19-9.68-6.23-14.12-5.88-12.81-11-23.87-10.86-37.92.11-16.63 11.67-35.84 28.77-47.82 15.41-10.78 32.74-13.94 47.54-8.67a.9.9 0 0 1 -.61 1.7c-14.24-5.08-31-2-45.89 8.45-16.65 11.65-27.9 30.28-28 46.35-.09 13.66 4.91 24.55 10.7 37.16 2.05 4.46 4.16 9.07 6.26 14.19a.61.61 0 0 0 .39.34c1 .33 3.91.15 13-4.83a.9.9 0 0 1 .87 1.58c-7.65 4.15-11.23 5.15-13.13 5.15z"/><path d="m226 273.23a29.17 29.17 0 0 1 -.22 9.95.59.59 0 0 1 -1.15 0 29.22 29.22 0 0 1 .27-10 .56.56 0 0 1 1.1 0z"/><path d="m368.43 248.72a29.17 29.17 0 0 1 -.22 10 .59.59 0 0 1 -.7.45.6.6 0 0 1 -.46-.48 30.46 30.46 0 0 1 .28-10 .56.56 0 0 1 .67-.42.57.57 0 0 1 .43.46z"/><path d="m395.32 251.72a29.17 29.17 0 0 1 -.22 10 .59.59 0 0 1 -1.15 0 29.23 29.23 0 0 1 .28-10 .56.56 0 0 1 1.09 0z"/></g><path d="m149.28 330.07c-28.84 19.83-43.28 63.45-45.79 78.23s-7.93 61.1-6.12 80.75 48.63-3.05 79.78 4.75c28.18 7.05 36.43-11 36.43-11s-12.28-40.06-14.72-69.16c-2.65-31.62-16.26-47.49-27.82-59.16-17.64-17.77-21.76-24.41-21.76-24.41z" fill="#64c0ff"/><path d="m97.36 490a.89.89 0 0 1 -.89-.82c-1.77-19.32 3.5-65.53 6.14-81 3-17.4 18.16-59.57 46.16-78.81l.77-.54.5.8a92 92 0 0 0 8 9.84.9.9 0 0 1 -1.35 1.19 115.74 115.74 0 0 1 -7.62-9.29c-29.72 21-42.79 66.1-44.67 77.12-2.63 15.39-7.88 61.35-6.12 80.52a.9.9 0 0 1 -.81 1z" fill="#333847"/><path d="m163.39 364.89c-28.52-.31-28.88 49.28-29.89 66.82s12.1 79.29 20.5 84.82 45.95 9.27 57-3.83c3-3.62-14.71-47.94-18.23-107.3-1.55-24.81-16.17-40.4-29.38-40.51z" fill="#fff"/><path d="m204.85 310h-.07a.89.89 0 0 1 -.83-1c.16-2 1.38-5.87 4.85-5.87a.9.9 0 0 1 0 1.8c-2.69 0-3.05 4.17-3.05 4.21a.91.91 0 0 1 -.9.86z" fill="#333847"/><path d="m227.49 301.2-.42-.25a4.39 4.39 0 0 1 -1.55-5.89.89.89 0 0 1 1.2-.41.91.91 0 0 1 .41 1.21 2.56 2.56 0 0 0 .52 3.27 26.77 26.77 0 0 1 6.66-2.21.93.93 0 0 1 1 .82.91.91 0 0 1 -.82 1c-2.24.21-6.5 2.25-6.54 2.27z" fill="#333847"/><path d="m457.63 315.41c-4.17-14.17-9.83-13 6.85-39.93 8.49-13.73 26.63-23.44 48-19 44.21 9.14 32.12 46.89 51.67 42.42 15.45-3.54 22.1-.89 22.1 25.64 0 10-7.07 44.51-47.45 48.93s-44.22-43.81-46-49.22c-8-24.47-27.51-20.73-30.78-20.18a43 43 0 0 0 -4.39 11.34z" fill="#00599d"/><path d="m536.28 377.56a.89.89 0 0 1 -.71-.35c-.79-1-1.53-2-2.19-2.95a.9.9 0 1 1 1.47-1c.65.91 1.37 1.88 2.14 2.89a.89.89 0 0 1 -.16 1.26.88.88 0 0 1 -.55.15z" fill="#333847"/><path d="m533.76 374.63a34.42 34.42 0 0 1 -20.14-6 .9.9 0 0 1 -.23-1.25.91.91 0 0 1 1.26-.23c6.61 4.61 14.71 6.42 24.07 5.4 23.76-2.61 35.3-15.79 40.8-26.4a.9.9 0 0 1 1.6.83c-5.7 11-17.65 24.67-42.2 27.36a48.18 48.18 0 0 1 -5.16.29z" fill="#333847"/><path d="m456.84 316.31a.89.89 0 0 1 -.86-.65c-.68-2.32-1.39-4.24-2-5.93-3.28-8.89-4.38-11.88 9.75-34.73 8.07-13 26.34-24.1 49-19.42a.9.9 0 0 1 .7 1.06.89.89 0 0 1 -1.06.7c-21.79-4.51-39.34 6.1-47.08 18.61-13.67 22.1-12.64 24.88-9.59 33.16.64 1.72 1.36 3.66 2.06 6.05a.89.89 0 0 1 -.61 1.11.78.78 0 0 1 -.31.04z" fill="#333847"/><path d="m469.73 304.37a14.92 14.92 0 0 1 .8 6.39.48.48 0 0 1 -.54.42.47.47 0 0 1 -.4-.31c-.47-.58-1.72-8.48.14-6.5z" fill="#333847"/><circle cx="288.06" cy="202.36" fill="#fff" r="25.64"/><path d="m288.06 228.8a26.44 26.44 0 1 1 26.44-26.44 26.47 26.47 0 0 1 -26.44 26.44zm0-51.28a24.84 24.84 0 1 0 24.84 24.84 24.86 24.86 0 0 0 -24.84-24.84z" fill="#2095f3"/><circle cx="330.89" cy="75.72" fill="#fff" r="25.64"/><path d="m330.89 102.16a26.44 26.44 0 1 1 26.44-26.44 26.47 26.47 0 0 1 -26.44 26.44zm0-51.28a24.84 24.84 0 1 0 24.84 24.84 24.86 24.86 0 0 0 -24.84-24.84z" fill="#95a8d1"/><circle cx="381.42" cy="146.47" fill="#fff" r="25.64"/><path d="m381.42 172.91a26.44 26.44 0 1 1 26.44-26.44 26.47 26.47 0 0 1 -26.44 26.44zm0-51.28a24.84 24.84 0 1 0 24.84 24.84 24.86 24.86 0 0 0 -24.84-24.84z" fill="#95a8d1"/><path d="m329.54 75.89h1.35a9 9 0 1 1 9-9 9 9 0 0 1 -9 9h1.35a14.4 14.4 0 0 1 14.16 11.81 19.62 19.62 0 1 0 -31 0 14.4 14.4 0 0 1 14.14-11.81z" fill="#e8f4ff"/><circle cx="330.89" cy="66.89" fill="#95a8d1" r="9"/><path d="m330.89 95.34a19.56 19.56 0 0 0 15.51-7.64 14.4 14.4 0 0 0 -14.16-11.81h-2.7a14.4 14.4 0 0 0 -14.16 11.81 19.56 19.56 0 0 0 15.51 7.64z" fill="#95a8d1"/><path d="m380.07 146.65h1.35a9 9 0 1 1 9-9 9 9 0 0 1 -9 9h1.35a14.39 14.39 0 0 1 14.16 11.81 19.62 19.62 0 1 0 -31 0 14.39 14.39 0 0 1 14.14-11.81z" fill="#e8f4ff"/><circle cx="381.42" cy="137.65" fill="#95a8d1" r="9"/><path d="m381.42 166.09a19.58 19.58 0 0 0 15.51-7.63 14.39 14.39 0 0 0 -14.16-11.81h-2.7a14.39 14.39 0 0 0 -14.16 11.81 19.58 19.58 0 0 0 15.51 7.63z" fill="#95a8d1"/><path d="m286.71 202.53h1.35a9 9 0 1 1 9-9 9 9 0 0 1 -9 9h1.35a14.4 14.4 0 0 1 14.16 11.81 19.62 19.62 0 1 0 -31 0 14.41 14.41 0 0 1 14.14-11.81z" fill="#e8f4ff"/><circle cx="288.06" cy="193.54" fill="#95a8d1" r="9"/><path d="m288.06 222a19.56 19.56 0 0 0 15.51-7.64 14.4 14.4 0 0 0 -14.16-11.81h-2.7a14.41 14.41 0 0 0 -14.16 11.81 19.58 19.58 0 0 0 15.51 7.64z" fill="#95a8d1"/><ellipse cx="435.36" cy="277.27" fill="#d99abf" rx="14.65" ry="7.51" transform="matrix(.28853051 -.9574707 .9574707 .28853051 44.25 614.09)"/><path d="m375.73 276.59c-13.35-3-17.28 1.07-19.94 9.75s-8.36 11.9-5.32 25.58 47.59 32.31 67.69 13.08c19.53-18.69 6.42-34.14 19.66-60.77 4.36-16.48-12.7 3.24-17.45 18.81s-8.74 18.81-19.19 18.43-1.71-19.57-25.45-24.88z" fill="#00599d"/><path d="m376.9 278.16c-4.09 0-6-1.84-6.86-3.48-3-5.59 1.51-16.12 5.9-21.57a.9.9 0 0 1 1.27-.13.89.89 0 0 1 .14 1.26c-4.07 5-8.2 14.93-5.72 19.6 1 1.92 3.21 2.75 6.44 2.47a.9.9 0 1 1 .16 1.79c-.47.04-.91.06-1.33.06z" fill="#333847"/><path d="m472.82 345.27a.9.9 0 0 1 -.14-1.79 12.81 12.81 0 0 0 6.54-3.62.9.9 0 0 1 1.27-.06.89.89 0 0 1 .06 1.27 14.51 14.51 0 0 1 -7.59 4.19z" fill="#333847"/><path d="m377.13 295.3c-4.05 0-9.15-.49-13-2.47a.9.9 0 0 1 .82-1.61c6.9 3.54 18.6 1.88 18.71 1.86a.9.9 0 0 1 1 .76.89.89 0 0 1 -.76 1 51.36 51.36 0 0 1 -6.77.46z" fill="#333847"/><path d="m431.37 404.39a3.61 3.61 0 0 0 -3.17-4.39l-32.06-3.09a3.6 3.6 0 0 0 -3.86 2.8l-.54 2.43 39.26 3.86z" fill="#2095f3"/><path d="m391.74 402.16-4.17 18.77a3.6 3.6 0 0 0 3.17 4.37l32.06 3.09a3.59 3.59 0 0 0 3.86-2.8l4.34-19.59z" fill="#e8f4ff"/></svg>