<svg viewBox="0 0 621.7 600" xmlns="http://www.w3.org/2000/svg"><ellipse cx="271.12" cy="300.93" fill="#d4f0f3" rx="189.11" ry="236.58" transform="matrix(.40657719 -.91361643 .91361643 .40657719 -114.04 426.29)"/><path d="m568.63 263.51a6.69 6.69 0 0 1 -6.8 7.85h-263.48a9.46 9.46 0 0 1 -9.07-7.85l-9-62.22a6.68 6.68 0 0 1 6.8-7.85h263.47a9.48 9.48 0 0 1 9.08 7.85z" fill="#e8f4ff"/><path d="m561.83 272.35h-2v-2h2a6.34 6.34 0 0 0 1.7-.22l.51 1.92a8.53 8.53 0 0 1 -2.21.3zm-7.91 0h-4v-2h4zm-9.9 0h-3.95v-2h3.93zm-9.89 0h-4v-2h4zm-9.89 0h-4v-2h4zm-9.9 0h-4v-2h4zm-9.89 0h-4v-2h4zm-9.89 0h-4v-2h4zm-9.9 0h-4v-2h4zm-9.89 0h-4v-2h4zm-9.89 0h-4v-2h4zm-9.9 0h-4v-2h4zm-9.89 0h-4v-2h4zm-9.89 0h-4v-2h4zm-9.9 0h-3.95v-2h3.95zm-9.89 0h-4v-2h4zm-9.89 0h-4v-2h4zm-9.9 0h-3.95v-2h3.95zm-9.89 0h-4v-2h4zm-9.89 0h-4v-2h4zm-9.89 0h-4v-2h4zm-9.9 0h-4v-2h4zm-9.89 0h-4v-2h4zm-9.89 0h-4v-2h4zm-9.9 0h-3.95v-2h3.95zm-9.89 0h-4v-2h4zm-9.89 0h-4v-2h4zm-10.08-.18a10.49 10.49 0 0 1 -4-1.75l1.16-1.62a8.23 8.23 0 0 0 3.21 1.42zm272.55-4.39-1.83-.79a5.91 5.91 0 0 0 .48-2.37 6.33 6.33 0 0 0 -.07-1l2-.34v.05a8.9 8.9 0 0 1 .09 1.26 8 8 0 0 1 -.67 3.19zm-280.39-2.54a9.93 9.93 0 0 1 -.38-1.59l-.35-2.46 2-.29.36 2.47a7.09 7.09 0 0 0 .3 1.25zm278.12-7.51-.57-3.92 2-.28.57 3.91zm-279.7-2.42-.57-3.92 2-.28.57 3.92zm278.28-7.37-.57-3.94 2-.28.56 3.91zm-279.7-2.42-.57-3.92 2-.28.56 3.91zm278.33-7.37-.56-3.92 2-.29.57 3.92zm-279.7-2.42-.56-3.92 2-.28.57 3.91zm278.29-7.38-.57-3.91 2-.29.56 3.92zm-279.7-2.41-.57-3.92 2-.28.56 3.91zm278.28-7.38-.57-3.91 2-.29.56 3.92zm-279.7-2.42-.56-3.91 2-.29.57 3.92zm278.29-7.37-.57-3.92 2-.28.57 3.92zm-279.76-2.42-.57-3.91 2-.29.57 3.92zm278-7a8.49 8.49 0 0 0 -2.12-2.81l1.31-1.49a10.55 10.55 0 0 1 2.61 3.46zm-276-2.27-1.69-1a7.5 7.5 0 0 1 3.41-2.93l.78 1.82a5.58 5.58 0 0 0 -2.45 2.11zm269.07-2.63h-.57-3.31v-2h3.31.72zm-9.82 0h-4v-2h4zm-9.89 0h-4v-2h4zm-9.89 0h-4v-2h4zm-9.9 0h-3.95v-2h3.95zm-9.89 0h-4v-2h4zm-9.89 0h-4v-2h4zm-9.9 0h-3.89v-2h3.95zm-9.89 0h-4v-2h4zm-9.89 0h-4v-2h4zm-9.9 0h-3.95v-2h3.95zm-9.89 0h-4v-2h4zm-9.89 0h-4v-2h4zm-9.9 0h-3.95v-2h3.95zm-9.89 0h-4v-2h4zm-9.89 0h-4v-2h4zm-9.9 0h-3.85v-2h3.95zm-9.89 0h-4v-2h4zm-9.89 0h-4v-2h4zm-9.9 0h-4v-2h4zm-9.89 0h-4v-2h4zm-9.89 0h-4v-2h4zm-9.9 0h-4v-2h4zm-9.89 0h-4v-2h4zm-9.89 0h-4v-2h4zm-9.89 0h-4v-2h4zm-9.9 0h-4v-2h4z" fill="#2095f3"/><path d="m325 401.93c21.49 18.58 33.42 26.66 43.16 27.31 5.79.39 7.4-69.3 2-105.58s.91-51.58 5.67-64.56 9.64-19.83 12.17-18.83-7.42 30.81-6.16 35.47 4.43-3.66 14.54-1.67 18.62 16.65 20.54 23.63-1.05 18.52-4.21 20.18-3.95-5.67-4.27.33-3.57 15.88-7.36 18.71 19 59.53 14.38 103.63c-3.17 30.09-17.41 48-23.66 49.37-5.59 1.25-54.59-4.52-75.33-11-81.87-25.68 8.53-76.99 8.53-76.99z" fill="#d4bcfc"/><path d="m578.92 171.36a6.69 6.69 0 0 1 -6.8 7.85h-263.48a9.46 9.46 0 0 1 -9.07-7.85l-9-62.22a6.68 6.68 0 0 1 6.8-7.85h263.48a9.47 9.47 0 0 1 9.07 7.85z" fill="#f1f4fc"/><path d="m572.12 180.2h-263.48a10.46 10.46 0 0 1 -10.05-8.7l-9-62.22a7.68 7.68 0 0 1 7.78-9h263.48a10.47 10.47 0 0 1 10 8.7l9 62.22a7.68 7.68 0 0 1 -7.78 9zm-274.75-77.92a5.7 5.7 0 0 0 -5.82 6.72l9 62.22a8.43 8.43 0 0 0 8.09 7h263.48a5.7 5.7 0 0 0 5.82-6.72l-9-62.22a8.43 8.43 0 0 0 -8.09-7z" fill="#b3b3b3"/><path d="m555.19 180.2h-246.55a10.46 10.46 0 0 1 -10.05-8.7l-8.59-59.22a1 1 0 0 1 2-.28l8.57 59.22a8.43 8.43 0 0 0 8.09 7h246.53a1 1 0 1 1 0 2z" fill="#333847"/><path d="m252.51 238.05c19.35 42.57 29.65 87.19-4.07 103.72-29.5 14.47 13.37 48.07 13.37 48.07l-93.15-9.46-17.2-117.82z" fill="#d4bcfc"/><path d="m260.79 260c3.39 7.21 13 12.19 13.7 19.12.52 5.26-6.85 10.55-6.85 10.55l-13.9-12.67z" fill="#d4bcfc"/><path d="m165.93 361.63c-37.34 22-33.56 53.05-33.72 72.48-.28 33.11 18.14 64.6 18.14 64.6h159l-4.1-20.35s10.41.82 15.14 1.68c4.47-5.87 13.78-59.6 8.31-74.84-17.2-14.62-42.31-32.9-91.14-41.17-46.49-7.88-71.63-2.4-71.63-2.4z" fill="#64c0ff"/><path d="m150.35 499.7a1 1 0 0 1 -.85-.49c-.19-.32-18.56-32.11-18.29-65.11 0-1.66 0-3.4 0-5.22-.12-13.24-.26-29.72 9.81-45.52a1 1 0 1 1 1.67 1.07c-9.75 15.3-9.61 31.46-9.5 44.44v5.25c-.28 32.46 17.83 63.78 18 64.09a1 1 0 0 1 -.86 1.49z" fill="#333847"/><path d="m233.82 191.08a49.8 49.8 0 0 1 10.81 4.81 37.8 37.8 0 0 1 8.21 6.64 31.9 31.9 0 0 1 5.49 8.18 31.11 31.11 0 0 1 2.64 9.43 36.26 36.26 0 0 1 -.3 10.41 47.63 47.63 0 0 1 -3.37 11.09 65.05 65.05 0 0 1 -6.56 11.49 89.73 89.73 0 0 1 -9.84 11.61 27.38 27.38 0 0 0 -5.65 7.74 16.34 16.34 0 0 0 -1.6 7.27 18.87 18.87 0 0 0 1.57 6.93 35.12 35.12 0 0 0 3.84 6.67c1.57 2.2 3.36 4.37 5.24 6.53s3.83 4.33 5.73 6.49 3.72 4.35 5.33 6.56a38.29 38.29 0 0 1 4.06 6.72 47.68 47.68 0 0 1 2.83 8.46 69.58 69.58 0 0 1 1.69 11.05 68.45 68.45 0 0 1 -.23 12.59 59.7 59.7 0 0 1 -3 13.13 51 51 0 0 1 -6.48 12.64 50.31 50.31 0 0 1 -10.8 11.12 62.14 62.14 0 0 1 -15.93 8.58 93.25 93.25 0 0 1 -21.84 5 121.44 121.44 0 0 1 -25.51.17 135.2 135.2 0 0 1 -25.28-4.93 129.13 129.13 0 0 1 -23.4-9.46 104.55 104.55 0 0 1 -19.85-13.43 75.74 75.74 0 0 1 -14.62-16.82 56 56 0 0 1 -7.82-19.68 52.65 52.65 0 0 1 .68-22 72.51 72.51 0 0 1 10.82-23.67 147.28 147.28 0 0 0 12.18-22.23c3.41-7.58 6.3-15.24 9-22.72s5.31-14.77 8.1-21.61a119.49 119.49 0 0 1 9.4-18.84 55.37 55.37 0 0 1 12.86-14.54 46.93 46.93 0 0 1 18.56-8.57c7.38-1.69 16.08-2.11 26.46-1s22.45 3.75 36.58 8.19z" fill="#00599d"/><path d="m192.35 404q-6.06 0-12.26-.6a135.13 135.13 0 0 1 -25.46-5 130.36 130.36 0 0 1 -23.58-9.53 105.65 105.65 0 0 1 -20-13.56 77.13 77.13 0 0 1 -14.86-17.05 57.12 57.12 0 0 1 -8-20 53.9 53.9 0 0 1 .69-22.37 74 74 0 0 1 11-24 145.85 145.85 0 0 0 12.09-22.07c3.21-7.13 5.92-14.22 9-22.66l1.54-4.24c2.21-6.09 4.3-11.85 6.57-17.41a119.25 119.25 0 0 1 9.46-19 56 56 0 0 1 13.1-14.8 1 1 0 0 1 1.39.18 1 1 0 0 1 -.18 1.4 53.9 53.9 0 0 0 -12.63 14.28 117.49 117.49 0 0 0 -9.3 18.72c-2.25 5.52-4.34 11.26-6.54 17.34l-1.55 4.24c-3.1 8.49-5.83 15.61-9.06 22.79a147.18 147.18 0 0 1 -12.28 22.34 72.09 72.09 0 0 0 -10.68 23.36 51.79 51.79 0 0 0 -.66 21.54 55 55 0 0 0 7.68 19.33 75.16 75.16 0 0 0 14.48 16.61 103.77 103.77 0 0 0 19.69 13.29 127 127 0 0 0 23.21 9.39 133.6 133.6 0 0 0 25.09 4.89 120.64 120.64 0 0 0 25.3-.16 93.13 93.13 0 0 0 21.62-5 61.65 61.65 0 0 0 15.67-8.44 49.52 49.52 0 0 0 10.59-10.91 1 1 0 0 1 1.39-.23 1 1 0 0 1 .23 1.38 51.42 51.42 0 0 1 -11 11.34 63.45 63.45 0 0 1 -16.18 8.72 95 95 0 0 1 -22.08 5.07 116.74 116.74 0 0 1 -13.49.82z" fill="#333847"/><ellipse cx="331.32" cy="140.07" fill="#d4f0f3" rx="16.22" ry="18.17" transform="matrix(.95191575 -.30635994 .30635994 .95191575 -26.98 108.21)"/><g fill="#333847"><path d="m252.24 250.94a39.11 39.11 0 0 1 3.37 13.82.89.89 0 0 1 -.86.93.92.92 0 0 1 -.85-.51 39.55 39.55 0 0 1 -3.29-13.87.86.86 0 0 1 1.63-.37z"/><path d="m237.2 262.46a1.49 1.49 0 0 1 -.34-2.94l34.14-8.18a1.49 1.49 0 1 1 .69 2.89l-34.14 8.19a2.09 2.09 0 0 1 -.35.04z"/><path d="m262.64 238.71c.58-7.74 7.41-9.26 11.47-2.71 1.71 3.58 2.37 7.45 3 11.32a52.17 52.17 0 0 1 .35 13.17c-.42 4.6-2.88 10.76-8.64 9.83a1.08 1.08 0 0 1 -.95-1.22 1.09 1.09 0 0 1 1.14-1c4.27.36 5.27-4.63 5.61-8a63.81 63.81 0 0 0 -1.68-18.59c-.49-1.87-.81-3.84-2-5.37-3.31-4-5.89-1.26-6.93 2.75a.69.69 0 0 1 -1.36-.25z"/><path d="m391.8 490.91h-.05c-.63 0-64.21-3.07-109.93-19.76a1 1 0 1 1 .68-1.86c45.43 16.58 108.71 19.61 109.34 19.64a1 1 0 0 1 0 2z"/><path d="m378.77 432.41h-.13a88.82 88.82 0 0 1 -32-11.84 1 1 0 0 1 -.31-1.37 1 1 0 0 1 1.37-.3 86.93 86.93 0 0 0 31.22 11.55 1 1 0 0 1 -.12 2z"/><path d="m401.08 337.91a1 1 0 0 1 -.77-.36 1 1 0 0 1 .14-1.4c8.51-7 7.73-27.38 6.79-34a1 1 0 1 1 2-.28c1.06 7.38 1.77 28.21-7.49 35.79a1 1 0 0 1 -.67.25z"/></g><path d="m552.27 140.25h-188.27a4 4 0 0 1 -3.94-3.5l-.06-.75a4 4 0 0 1 3.94-4.44h188.23a4 4 0 0 1 3.94 3.5l.1.79a4 4 0 0 1 -3.94 4.4z" fill="#7386b9"/></svg>