<svg viewBox="0 0 621.7 600" xmlns="http://www.w3.org/2000/svg"><ellipse cx="310.85" cy="300" fill="#d4f0f3" rx="189.11" ry="236.58" transform="matrix(.40657719 -.91361643 .91361643 .40657719 -89.61 462.04)"/><path d="m436.62 278.55v44.1a23.28 23.28 0 0 0 23.44 23.11h53.12a23.28 23.28 0 0 0 23.45-23.11v-44.1z" fill="#fff"/><path d="m338.37 440.17c-19.74 10.73-44.75 22.83-63.19 34.33-21.62 13.44-24 41.13-24 51.09 31.51 14 158.61-6.93 210.28-5.58 0-7.81-3.25-37-21.77-48.61-20.91-13.15-67.49-34.21-74.36-34.21s-26.96 2.98-26.96 2.98z" fill="#75d1d9"/><path d="m251.2 526.62a1 1 0 0 1 -1-1c0-8.63 1.78-37.87 24.46-52 12.45-7.73 27.78-15.73 42.6-23.46 7.3-3.8 14.19-7.39 20.65-10.9a1 1 0 0 1 1.4.42 1 1 0 0 1 -.41 1.4c-6.47 3.52-13.37 7.11-20.68 10.92-14.79 7.71-30.09 15.69-42.46 23.38-21.78 13.54-23.49 41.85-23.49 50.21a1 1 0 0 1 -1.07 1.03z" fill="#333847"/><path d="m348.33 312c-29-36.89-73.15 29.65-73.15 38.89 0 4.74 7.69 18.58 16.39 32.21-6.4 4.66-7.83 15.2-3 24.67 5.22 10.22 15.75 15.29 23.52 11.32a12.41 12.41 0 0 0 3.71-2.91c7.67 9.46 13 22.95 14.55 37.26 1.7 15.8 18 38.89 28.43 38.16s16.71-20.8 17.22-35.71c.62-17.58-4.85-17.16-4.37-28.34.24-5.59 16.42-11.39 18-32 1.72-22.05-21.79-58.71-41.3-83.55z" fill="#d99abf"/><path d="m358.29 492.66c-11.38 0-27.3-23.6-29-39.1-1.46-13.51-6.39-26.48-13.6-35.79a13.23 13.23 0 0 1 -3.16 2.26c-4.05 2.06-8.9 2-13.64-.34a25.32 25.32 0 0 1 -11.27-11.44c-5-9.8-3.58-21 3.31-26a1 1 0 1 1 1.22 1.67c-6.07 4.42-7.22 14.47-2.68 23.37a23.32 23.32 0 0 0 10.32 10.52c4.14 2 8.33 2.12 11.8.35a11.33 11.33 0 0 0 3.4-2.67l.81-.93.77.95c7.85 9.68 13.23 23.46 14.78 37.81 1.72 16 17.79 37.92 27.33 37.23 5.12-.35 8.75-6 10.88-10.6a1 1 0 1 1 1.88.86c-3.39 7.39-7.76 11.47-12.62 11.81z" fill="#333847"/><path d="m301.52 395.43-8.52-10.54a2.07 2.07 0 0 0 -3.08-.17l-1.1 1.1c-22.72-24.18-31.56-27-34.86-37.31-2.54-8 1.48-7.48 2.57-13.51.75-4.12-2.8-9.17-1-13.67 1.75-4.34 7.61-4.67 10.55-8.74 2.41-3.34.3-9.57 3.62-12.36 1.77-1.48 11.08-2.6 13-4 3.52-2.44 1.76-7.76 5.6-9.72 4-2 8.52 1.12 12.53-.33 3.41-1.24 5.71-7.54 8.89-8.3 4.78-1.15 7.23 3.47 10.88 3.52 4 .06 8.9-7.41 13.57-1 4.53 6.22 39.23 60 37.36 65 0 0-11.38-15.48-23.24-33.41-8.73-13.2-26.76-11.05-41.13-1.64-9.76 6.4-21.67 18.88-20.35 27.62s8.28 12.87 9.49 23.49c.4 3.46 1 24.42 10 33.15a2.83 2.83 0 0 1 -4.78.82z" fill="#00599d"/><path d="m543 269.65a24.93 24.93 0 0 0 -25-24.93h-56.45a24.93 24.93 0 0 0 -24.93 24.93v8.9h106.38z" fill="#52c5d0"/><path d="m544 279.59h-108.42v-9.94a26 26 0 0 1 26-26h56.42a26 26 0 0 1 26 26zm-106.35-2.08h104.28v-7.86a23.93 23.93 0 0 0 -23.9-23.9h-56.48a23.93 23.93 0 0 0 -23.9 23.9z" fill="#333847"/><path d="m518 352.1h-56.45a26 26 0 0 1 -26-26v-48.59h108.45v48.62a26 26 0 0 1 -26 25.97zm-80.38-72.51v46.54a23.93 23.93 0 0 0 23.9 23.9h56.48a23.93 23.93 0 0 0 23.9-23.9v-46.54z" fill="#333847"/><path d="m472.07 352.1a1 1 0 0 1 -1-1v-60.2a1 1 0 0 1 2.07 0v60.16a1 1 0 0 1 -1.07 1.04z" fill="#333847"/><path d="m507.51 352.1a1 1 0 0 1 -1-1v-58.86a1 1 0 1 1 2.07 0v58.82a1 1 0 0 1 -1.07 1.04z" fill="#333847"/><path d="m543 313.86h-106.38a1 1 0 1 1 0-2.07h106.38a1 1 0 1 1 0 2.07z" fill="#333847"/><path d="m196.62 288.54.87 13.78a13.69 13.69 0 0 1 -12.91 14.68l-30 1.88a13.68 13.68 0 0 1 -14.58-12.94l-4.9-77.78a13.69 13.69 0 0 1 12.9-14.65l30-1.88a13.68 13.68 0 0 1 14.65 12.91l.1 1.62a29.57 29.57 0 0 1 8-2.13 39.39 39.39 0 0 1 9.83 1l-.15-2.42a32.56 32.56 0 0 0 -34.44-30.36l-30 1.89a32.55 32.55 0 0 0 -30.36 34.44l4.9 77.78a32.54 32.54 0 0 0 34.44 30.36l30-1.89a32.54 32.54 0 0 0 30.35-34.44l-2.19-34.82z" fill="#2095f3"/><path d="m181.74 284.57 30-39.28a3.74 3.74 0 0 0 -.25-4 14.07 14.07 0 0 0 -19.36 2.85l-18.76 24.79c-.75.84-1.58.89-1.63.1l-7.87-8.43a3.92 3.92 0 0 0 -5.68.35c-4.54 5.15-4 13.25.38 18.68l6.93 6.89c3.61 4.55 11.71 4.04 16.24-1.95z" fill="#2095f3"/><path d="m287.82 57.28-19.15 96.22c-1.27 6.4 19.23 20.41 46.85 25.9s51.93.41 53.2-6l19.15-96.22z" fill="#95a8d1"/><ellipse cx="337.49" cy="69" fill="#7386b9" rx="15.03" ry="51" transform="matrix(.19509032 -.98078528 .98078528 .19509032 203.96 386.54)"/><g fill="#333847"><path d="m363.08 87.78a151.67 151.67 0 0 1 -28.72-3c-25.09-5-49.87-16-47.91-25.91s29.09-10.59 54.18-5.6 49.86 16.05 47.9 25.91c-1.2 5.98-11.73 8.6-25.45 8.6zm-51.08-35.56c-13.84 0-22.66 2.82-23.5 7-1.31 6.63 17 17.64 46.28 23.47s50.42 2.66 51.74-4-17-17.64-46.28-23.47a147 147 0 0 0 -28.24-3z"/><path d="m344.19 182.28a150.22 150.22 0 0 1 -28.63-3.07c-13.45-2.68-25.81-6.74-34.79-11.45-9.47-5-14-10-13.11-14.46a1 1 0 0 1 2 .41c-.68 3.39 3.71 7.85 12 12.21 8.81 4.62 21 8.62 34.24 11.26s26 3.6 35.93 2.7c9.37-.84 15.13-3.28 15.8-6.67a1 1 0 0 1 2 .4c-.9 4.49-7 7.38-17.65 8.34-2.36.22-4.98.33-7.79.33z"/><path d="m356.88 118.16a150.12 150.12 0 0 1 -28.62-3.07c-25.09-5-49.87-16-47.91-25.91a1 1 0 1 1 2 .4c-1.32 6.63 17 17.64 46.27 23.48 13.27 2.64 26 3.59 35.94 2.7 9.36-.84 15.12-3.28 15.8-6.67a1 1 0 1 1 2 .4c-.89 4.49-7 7.37-17.65 8.34-2.4.22-5.05.33-7.83.33z"/><path d="m350.75 150.22a150.3 150.3 0 0 1 -28.63-3.07c-13.45-2.68-25.81-6.74-34.79-11.45-9.47-5-14-10-13.11-14.46a1 1 0 0 1 2 .4c-.67 3.4 3.72 7.85 12 12.22 8.81 4.62 21 8.62 34.24 11.26s26 3.6 35.93 2.7c9.37-.84 15.13-3.28 15.81-6.67a1 1 0 1 1 2 .4c-.89 4.49-7 7.37-17.65 8.34-2.37.22-5.02.33-7.8.33z"/><path d="m268.67 154.54h-.2a1 1 0 0 1 -.81-1.22l18.79-94.46a1 1 0 1 1 2 .41l-18.79 94.46a1 1 0 0 1 -.99.81z"/><path d="m320.06 348.81a41 41 0 0 1 6.4 13.4.94.94 0 0 1 -1.65.79 41.12 41.12 0 0 1 -6.34-13.47.9.9 0 0 1 1.59-.72z"/><path d="m348.64 332.32a40.79 40.79 0 0 1 6.41 13.41.94.94 0 0 1 -1.66.79 41.09 41.09 0 0 1 -6.33-13.47.89.89 0 0 1 1.58-.73z"/><path d="m351 436.13a1 1 0 0 1 -1-.79 1 1 0 0 1 .76-1.25l1.44-.36c10.25-2.52 14.49-3.57 25.6-15.61a1 1 0 0 1 1.53 1.41c-11.54 12.49-16.27 13.66-26.63 16.21l-1.45.36a1 1 0 0 1 -.25.03z"/><path d="m320.11 378.28a8.81 8.81 0 0 1 -4.88-1.54 16.07 16.07 0 0 1 -6.48-10.91c-.06-1.38.78-3 2.59-4.82 5.38-5.54 18.1-12.19 21.22-12.19 5 .09 7.09 5 8.2 7.66.17.42.33.8.47 1.09 1.32 2.73 1.08 8.33-2.31 10.89l-1.18.9a48.67 48.67 0 0 1 -14.58 8.33 8.75 8.75 0 0 1 -3.05.59zm12.43-27.63c-2.45 0-14.69 6.28-19.89 11.63-1.86 1.91-2.1 3-2.08 3.47a14.23 14.23 0 0 0 5.67 9.47 6.67 6.67 0 0 0 6.32.77 47.18 47.18 0 0 0 14.11-8.07l1.19-.9c2.53-1.92 2.81-6.49 1.77-8.64-.16-.32-.32-.73-.51-1.18-1.08-2.58-2.71-6.48-6.55-6.55z"/><path d="m356.64 356.78a10.43 10.43 0 0 1 -7.56-3.39c-.2-.25-.47-.55-.77-.89-1.91-2.15-5.46-6.15-3.36-10.72 1.28-2.78 12.85-11.42 20.2-13.87 2.46-.82 4.25-.9 5.47-.24a16 16 0 0 1 7 10.57 8.53 8.53 0 0 1 -2.59 7.59 48.75 48.75 0 0 1 -13.83 9.53l-1.32.67a7.12 7.12 0 0 1 -3.24.75zm12-27.73a9.32 9.32 0 0 0 -2.91.59c-7.1 2.37-18.12 10.73-19.12 12.9-1.6 3.49 1.21 6.65 3.06 8.74.33.37.62.7.84 1 1.49 1.87 5.73 3.6 8.55 2.15l1.33-.68a47 47 0 0 0 13.4-9.21 6.7 6.7 0 0 0 2-6 14.18 14.18 0 0 0 -6.08-9.21 2.42 2.42 0 0 0 -1.07-.28z"/><path d="m337.49 353.22a.9.9 0 0 1 -.47-.13.93.93 0 0 1 -.31-1.26c1.27-2.09 5.72-5.39 9-5.48a.92.92 0 0 1 .92.88.93.93 0 0 1 -.89.94c-2.56.07-6.51 2.93-7.53 4.61a.91.91 0 0 1 -.72.44z"/><path d="m361 378.28a.93.93 0 0 1 -.64-.26.91.91 0 0 1 0-1.29c2.75-2.81 2.29-9.15-.9-12.55a.91.91 0 0 1 1.33-1.25c3.46 3.69 4.62 11.24.87 15.08a.89.89 0 0 1 -.66.27z"/></g><path d="m356.34 398.39c-7 1.38-17.71-1.18-18 0s-.45 14 9 11.8 9-11.8 9-11.8z" fill="#fff"/><path d="m345.31 411.35a6.53 6.53 0 0 1 -4.78-1.92c-3.35-3.32-3.31-10.05-3-11.24s1.86-1.15 6.08-.76c3.7.34 8.77.82 12.6.06l1-.2.05 1.06c0 .1.37 10.42-9.69 12.73a10.14 10.14 0 0 1 -2.26.27zm-6.1-12.35c-.11 1.62.13 6.71 2.61 9.15 1.32 1.3 3.06 1.68 5.33 1.16 6.92-1.59 8.07-7.42 8.25-9.83a56.21 56.21 0 0 1 -12-.22 34.14 34.14 0 0 0 -4.19-.26z" fill="#333847"/><path d="m175.87 173.32a2.15 2.15 0 0 1 -.56-.07 2.07 2.07 0 0 1 -1.44-2.55c.19-.69.39-1.37.6-2a2.07 2.07 0 1 1 4 1.23c-.2.63-.39 1.28-.57 1.92a2.06 2.06 0 0 1 -2.03 1.47zm3.48-9.74a2.08 2.08 0 0 1 -.84-.18 2.05 2.05 0 0 1 -1-2.73c.28-.65.58-1.3.89-1.94a2.07 2.07 0 0 1 3.74 1.79q-.43.9-.84 1.83a2.09 2.09 0 0 1 -1.95 1.23zm4.85-9.14a2 2 0 0 1 -1.1-.32 2.07 2.07 0 0 1 -.66-2.85c.38-.6.76-1.2 1.15-1.79a2.07 2.07 0 1 1 3.46 2.28c-.37.56-.73 1.13-1.09 1.7a2.07 2.07 0 0 1 -1.76.98zm6-8.41a2.08 2.08 0 0 1 -1.6-3.39c.45-.55.9-1.09 1.36-1.62a2.07 2.07 0 1 1 3.14 2.7l-1.3 1.55a2.06 2.06 0 0 1 -1.56.73zm7-7.61a2.07 2.07 0 0 1 -1.44-3.56l1.54-1.46a2.07 2.07 0 0 1 2.81 3l-1.47 1.39a2.05 2.05 0 0 1 -1.37.63zm7.84-6.78a2.06 2.06 0 0 1 -1.64-.8 2.08 2.08 0 0 1 .36-2.91c.56-.43 1.12-.86 1.69-1.28a2.07 2.07 0 1 1 2.55 3.35l-1.61 1.22a2 2 0 0 1 -1.28.42zm8.48-5.95a2.07 2.07 0 0 1 -1.11-3.83c.6-.37 1.19-.75 1.79-1.11a2.08 2.08 0 0 1 2.15 3.55c-.57.35-1.15.7-1.73 1.07a2.1 2.1 0 0 1 -1.03.32zm9-5.13a2.07 2.07 0 0 1 -.95-3.92l1.89-.94a2.08 2.08 0 0 1 1.82 3.73l-1.83.91a2.08 2.08 0 0 1 -.85.22zm9.44-4.25a2.08 2.08 0 0 1 -.75-4l2-.75a2.07 2.07 0 0 1 1.44 3.89l-1.9.72a2 2 0 0 1 -.75.14zm9.84-3.28a2.07 2.07 0 0 1 -.54-4.07c.7-.19 1.39-.36 2.07-.53a2.08 2.08 0 0 1 1 4c-.64.15-1.29.32-2 .49a2 2 0 0 1 -.45.08z" fill="#95a8d1"/><path d="m265.93 420.54h-.11c-.7 0-1.41-.08-2.13-.14a2.09 2.09 0 0 1 -1.9-2.24 2.06 2.06 0 0 1 2.24-1.89c.68.05 1.34.1 2 .13a2.07 2.07 0 0 1 -.1 4.14zm-10.28-1.28a2.58 2.58 0 0 1 -.39 0c-.69-.13-1.39-.27-2.08-.43a2.07 2.07 0 0 1 .87-4.05c.67.15 1.33.28 2 .41a2.07 2.07 0 0 1 -.39 4.11zm-10.06-2.51a2.08 2.08 0 0 1 -.6-.09l-2-.63a2.07 2.07 0 1 1 1.28-3.94l1.94.61a2.07 2.07 0 0 1 -.6 4.05zm-9.78-3.44a2.15 2.15 0 0 1 -.77-.15l-1.95-.8a2.07 2.07 0 1 1 1.61-3.82l1.88.77a2.07 2.07 0 0 1 -.77 4zm-9.46-4.24a2 2 0 0 1 -.92-.22c-.63-.31-1.25-.62-1.88-1a2.07 2.07 0 1 1 1.9-3.68l1.83.92a2.07 2.07 0 0 1 -.93 3.93zm-9.1-5a2.05 2.05 0 0 1 -1.06-.3l-1.8-1.09a2.07 2.07 0 1 1 2.17-3.53l1.76 1.07a2.07 2.07 0 0 1 -1.07 3.85zm-8.69-5.67a2.08 2.08 0 0 1 -1.2-.38c-.57-.41-1.14-.82-1.7-1.24a2.07 2.07 0 1 1 2.46-3.33c.54.4 1.09.8 1.65 1.19a2.07 2.07 0 0 1 -1.21 3.76zm-8.17-6.37a2.07 2.07 0 0 1 -1.34-.49l-1.6-1.39a2.07 2.07 0 0 1 2.75-3.1l1.54 1.33a2.09 2.09 0 0 1 .23 2.93 2.06 2.06 0 0 1 -1.58.76zm-7.54-7.03a2 2 0 0 1 -1.49-.64c-.49-.51-1-1-1.45-1.55a2.07 2.07 0 0 1 3.09-2.81c.45.5.91 1 1.38 1.48a2.08 2.08 0 0 1 -.06 2.93 2.1 2.1 0 0 1 -1.47.59zm-6.7-7.89a2 2 0 0 1 -1.66-.83c-.43-.57-.85-1.14-1.26-1.72a2.07 2.07 0 1 1 3.39-2.39c.39.55.78 1.09 1.19 1.63a2.07 2.07 0 0 1 -1.66 3.31zm-5.6-8.71a2.06 2.06 0 0 1 -1.82-1.09c-.34-.63-.67-1.26-1-1.9a2.08 2.08 0 0 1 3.72-1.85c.29.6.6 1.19.92 1.78a2.08 2.08 0 0 1 -1.83 3.06zm-4.09-9.5a2.08 2.08 0 0 1 -2-1.43c-.22-.69-.43-1.38-.62-2.07a2.07 2.07 0 1 1 4-1.11c.18.64.37 1.27.57 1.9a2.06 2.06 0 0 1 -1.33 2.61 2 2 0 0 1 -.62.06z" fill="#95a8d1"/><path d="m407.34 406.53a2.07 2.07 0 0 1 -.71-4c.64-.23 1.27-.47 1.88-.71a2.07 2.07 0 1 1 1.54 3.85l-2 .76a2.16 2.16 0 0 1 -.71.1zm9.45-4.23a2.08 2.08 0 0 1 -1-3.9c.59-.32 1.18-.65 1.75-1a2.08 2.08 0 0 1 2.1 3.58c-.61.36-1.23.71-1.87 1.05a2.05 2.05 0 0 1 -.98.27zm8.64-5.69a2.07 2.07 0 0 1 -1.28-3.7c.53-.42 1-.84 1.54-1.26a2.07 2.07 0 1 1 2.68 3.16c-.54.46-1.09.91-1.66 1.36a2 2 0 0 1 -1.28.44zm7.57-7.11a2.07 2.07 0 0 1 -1.56-3.44c.44-.5.87-1 1.29-1.52a2.07 2.07 0 1 1 3.21 2.62c-.45.55-.91 1.09-1.39 1.64a2.08 2.08 0 0 1 -1.55.7zm6.06-8.38a2.07 2.07 0 0 1 -1.78-3.12c.34-.58.67-1.16 1-1.74a2.07 2.07 0 0 1 3.65 2c-.34.63-.69 1.25-1.06 1.88a2 2 0 0 1 -1.87.98zm4.35-9.39a2.3 2.3 0 0 1 -.68-.11 2.07 2.07 0 0 1 -1.33-2.62q.33-.94.6-1.89a2.08 2.08 0 0 1 4 1.18c-.21.68-.42 1.37-.66 2.06a2.08 2.08 0 0 1 -1.98 1.38z" fill="#95a8d1"/><path d="m474.74 231.79h-.24a2.08 2.08 0 0 1 -1.83-2.3q.12-1 .21-2a2.07 2.07 0 0 1 4.13.37c-.07.71-.14 1.41-.22 2.11a2.07 2.07 0 0 1 -2.05 1.82zm.57-10.34a2.07 2.07 0 0 1 -2.07-2.07c0-.68 0-1.35 0-2a2.08 2.08 0 0 1 2-2.13h.06a2.07 2.07 0 0 1 2.07 2v2.12a2.08 2.08 0 0 1 -2.07 2.08zm-.61-10.34a2.06 2.06 0 0 1 -2.05-1.83c-.08-.67-.17-1.34-.26-2a2.07 2.07 0 1 1 4.11-.57c.09.7.18 1.4.26 2.1a2.06 2.06 0 0 1 -1.82 2.3zm-1.7-10.2a2.07 2.07 0 0 1 -2-1.61c-.15-.66-.31-1.32-.47-2a2.07 2.07 0 1 1 4-1c.17.68.34 1.37.49 2.06a2.07 2.07 0 0 1 -1.56 2.48 2.4 2.4 0 0 1 -.46.07zm-2.82-10a2.07 2.07 0 0 1 -2-1.4c-.22-.65-.44-1.29-.67-1.92a2.07 2.07 0 0 1 3.9-1.41c.23.66.47 1.33.69 2a2.06 2.06 0 0 1 -1.3 2.62 1.87 1.87 0 0 1 -.67.14zm-3.79-9.63a2.07 2.07 0 0 1 -1.89-1.23c-.28-.61-.57-1.23-.86-1.84a2.08 2.08 0 0 1 3.75-1.78c.3.64.6 1.28.89 1.92a2.07 2.07 0 0 1 -1 2.74 2 2 0 0 1 -.94.22zm-4.68-9.25a2.07 2.07 0 0 1 -1.81-1.05c-.33-.6-.67-1.19-1-1.77a2.07 2.07 0 1 1 3.57-2.1q.54.92 1 1.83a2.07 2.07 0 0 1 -.79 2.82 2 2 0 0 1 -1.02.3zm-5.47-8.8a2.06 2.06 0 0 1 -1.72-.9c-.38-.56-.77-1.12-1.16-1.67a2.07 2.07 0 1 1 3.38-2.4l1.16 1.74a2.07 2.07 0 0 1 -.55 2.88 2 2 0 0 1 -1.16.38zm-6.24-8.23a2.06 2.06 0 0 1 -1.61-.77c-.42-.52-.86-1.05-1.29-1.56a2.07 2.07 0 1 1 3.16-2.68c.46.54.9 1.08 1.35 1.63a2.07 2.07 0 0 1 -.3 2.91 2 2 0 0 1 -1.31.47zm-6.87-7.76a2.08 2.08 0 0 1 -1.5-.63c-.47-.49-.95-1-1.42-1.45a2.07 2.07 0 1 1 2.93-2.93c.49.49 1 1 1.48 1.5a2.07 2.07 0 0 1 -.06 2.93 2 2 0 0 1 -1.45.54zm-7.53-7.13a2 2 0 0 1 -1.35-.5l-1.55-1.32a2.07 2.07 0 1 1 2.65-3.18c.54.44 1.07.9 1.61 1.36a2.07 2.07 0 0 1 -1.36 3.64zm-8.16-6.38a2.09 2.09 0 0 1 -1.19-.37l-1.67-1.15a2.07 2.07 0 1 1 2.3-3.44c.58.38 1.16.78 1.75 1.19a2.07 2.07 0 0 1 -1.19 3.77zm-8.84-5.4a2.06 2.06 0 0 1 -1-.23c-.6-.32-1.2-.62-1.79-.9a2.07 2.07 0 1 1 1.79-3.74c.63.31 1.27.62 1.91 1a2.07 2.07 0 0 1 -.95 3.91zm-9.59-3.9a1.85 1.85 0 0 1 -.56-.08c-.52-.15-1-.28-1.55-.4a2.07 2.07 0 1 1 .93-4c.57.13 1.15.28 1.74.44a2.07 2.07 0 0 1 -.56 4.07z" fill="#95a8d1"/></svg>